<svg width="366" height="302" viewBox="0 0 366 302" fill="none" xmlns="http://www.w3.org/2000/svg">
<path d="M456.714 42.3259C456.792 54.9907 453.899 67.1083 449.052 78.7569C443.892 91.4217 436.935 102.992 428.569 113.781C417.468 128.009 405.351 141.299 392.764 154.199C375.408 172.023 356.88 188.441 337.727 204.311C317.088 221.432 296.058 238.084 274.168 253.641C253.607 268.339 231.873 280.925 208.576 290.776C199.039 294.763 189.345 298.281 179.181 300.157C172.693 301.408 166.126 302.346 159.402 301.877C154.243 301.564 149.474 300.001 145.096 297.265C140.092 294.216 137.434 289.838 137.122 284.053C136.887 280.691 136.965 277.251 137.591 273.968C139.701 263.023 142.36 252.234 146.581 241.915C151.35 230.266 157.135 219.087 163.624 208.298C177.227 185.704 192.55 164.362 209.124 143.801C232.342 114.953 257.75 88.1382 285.816 63.9812C308.722 44.2022 333.739 27.7066 361.18 14.8854C373.688 9.02204 386.588 4.48771 400.191 1.75148C408.087 0.187921 416.061 -0.515682 424.035 0.422455C428.569 0.969702 433.026 2.06419 437.169 4.01865C444.596 7.3803 449.756 12.8528 452.883 20.3579C455.15 25.7521 456.244 31.381 456.635 37.088C456.792 38.9642 456.714 40.606 456.714 42.3259Z" fill="#9F26FF"/>
<mask id="mask0_52_106" style="mask-type:alpha" maskUnits="userSpaceOnUse" x="137" y="0" width="320" height="302">
<path d="M456.714 42.3259C456.792 54.9907 453.899 67.1083 449.052 78.7569C443.892 91.4217 436.935 102.992 428.569 113.781C417.468 128.009 405.351 141.299 392.764 154.199C375.408 172.023 356.88 188.441 337.727 204.311C317.088 221.432 296.058 238.084 274.168 253.641C253.607 268.339 231.873 280.925 208.576 290.776C199.039 294.763 189.345 298.281 179.181 300.157C172.693 301.408 166.126 302.346 159.402 301.877C154.243 301.564 149.474 300.001 145.096 297.265C140.092 294.216 137.434 289.838 137.122 284.053C136.887 280.691 136.965 277.251 137.591 273.968C139.701 263.023 142.36 252.234 146.581 241.915C151.35 230.266 157.135 219.087 163.624 208.298C177.227 185.704 192.55 164.362 209.124 143.801C232.342 114.953 257.75 88.1382 285.816 63.9812C308.722 44.2022 333.739 27.7066 361.18 14.8854C373.688 9.02204 386.588 4.48771 400.191 1.75148C408.087 0.187921 416.061 -0.515682 424.035 0.422455C428.569 0.969702 433.026 2.06419 437.169 4.01865C444.596 7.3803 449.756 12.8528 452.883 20.3579C455.15 25.7521 456.244 31.381 456.635 37.088C456.792 38.9642 456.714 40.606 456.714 42.3259Z" fill="black"/>
</mask>
<g mask="url(#mask0_52_106)">
<path d="M178.826 272.267C178.514 274.612 178.123 276.957 177.81 279.303C175.621 295.017 171.399 310.339 165.927 325.271C165.458 326.522 164.832 327.695 164.129 328.789C163.894 329.18 163.113 329.571 162.722 329.415C162.253 329.337 161.94 328.633 161.236 327.851C163.347 328.086 163.66 326.913 163.972 325.819C168.272 312.763 172.259 299.629 174.683 286.026C175.621 280.71 176.325 275.394 177.185 270.078C177.341 268.905 177.185 267.889 176.716 266.794C171.009 254.051 166.474 240.839 163.738 227.002C162.018 218.637 160.924 210.272 161.314 201.672C161.393 200.187 161.627 198.701 162.096 197.294C162.878 194.87 164.989 194.245 166.943 195.887C168.194 196.981 169.289 198.467 170.227 199.952C172.65 203.783 174.136 208.004 175.465 212.382C177.654 219.653 178.904 227.08 179.686 234.663C180.312 240.996 180.546 247.25 180.39 253.582C180.312 257.178 179.999 260.853 179.686 264.449C179.608 265.7 179.764 266.872 180.312 268.045C183.517 274.847 187.035 281.492 191.257 287.668C193.524 291.029 196.025 294.235 198.996 297.049C201.029 299.004 203.218 300.802 205.72 302.053C209.55 303.929 213.381 304.085 217.29 302.443C219.948 301.349 222.215 299.785 224.326 297.909C227.922 294.704 230.815 291.029 233.473 287.042C239.883 277.348 244.34 266.794 247.467 255.693C248.405 252.488 249.03 249.282 249.89 246.077C250.047 245.373 249.968 244.748 249.577 244.123C241.994 231.849 237.225 218.324 233.238 204.565C229.408 191.196 226.671 177.593 224.56 163.912C223.075 153.983 221.824 143.977 220.573 133.97C219.792 127.637 219.401 121.227 219.635 114.894C219.713 113.018 220.026 111.142 220.417 109.344C220.573 108.484 221.042 107.702 221.512 106.998C222.528 105.513 224.17 104.888 225.811 105.591C227.14 106.138 228.548 106.92 229.564 107.936C231.284 109.735 232.926 111.689 234.255 113.722C238.554 120.054 241.603 127.09 244.34 134.204C249.108 146.869 252.236 160.003 254.19 173.371C256.223 187.365 257.083 201.359 256.613 215.431C256.301 224.656 255.284 233.881 253.565 243.028C253.408 243.81 253.33 244.592 253.877 245.373C256.692 249.517 259.819 253.426 263.806 256.475C265.057 257.491 266.464 258.351 267.871 259.133C273.109 261.947 278.503 262.025 283.898 259.446C287.494 257.726 290.465 255.146 293.123 252.175C296.25 248.657 298.83 244.748 301.097 240.605C306.335 231.067 309.853 220.826 312.589 210.35C317.202 192.76 319.547 174.779 319.938 156.563C319.938 155.703 319.703 154.687 319.312 153.905C307.586 132.093 299.846 108.875 294.217 84.8739C292.888 79.2451 291.872 73.4599 291.403 67.6747C291.168 64.5476 291.168 61.4205 291.95 58.3715C292.185 57.5116 292.575 56.5735 293.044 55.7917C294.53 53.29 297.032 52.5864 299.455 54.1499C300.706 55.0099 301.957 56.0262 302.895 57.2771C304.458 59.3879 305.866 61.655 307.038 63.9222C310.869 71.4273 313.449 79.4015 315.638 87.4538C319.547 102.151 321.892 117.161 322.83 132.406C323.221 139.129 323.299 145.931 323.534 152.654C323.534 153.436 323.69 154.296 324.081 155C327.912 161.723 332.29 168.212 337.841 173.606C341.749 177.437 346.049 180.564 351.209 182.362C354.805 183.613 358.48 184.082 362.31 183.535C366.845 182.831 370.519 180.72 373.724 177.515C376.539 174.701 378.728 171.495 380.604 167.977C384.435 160.785 386.936 153.123 388.813 145.306C392.096 131.546 393.66 117.631 394.129 103.48C394.207 101.057 394.207 98.6333 394.285 96.1316C394.285 95.1934 393.972 94.4898 393.269 93.8644C378.102 79.0106 368.799 61.0296 364.968 40.1561C363.327 31.0092 363.014 21.7842 364.89 12.5592C365.359 10.1357 366.219 7.71216 367.157 5.44499C367.705 4.11596 368.643 2.78694 369.659 1.77062C371.613 -0.262007 374.35 -0.57472 376.695 0.988842C378.18 2.00516 379.588 3.25601 380.526 4.74139C382.246 7.39944 383.887 10.2139 385.138 13.1064C388.5 20.6115 390.533 28.5857 392.252 36.5599C396.083 54.3845 397.803 72.3654 398.038 90.5809C398.038 92.0663 398.507 93.0826 399.679 94.0989C407.341 100.51 416.253 104.184 426.025 106.06C433.765 107.546 441.661 108.015 449.557 108.249C455.186 108.406 460.815 108.406 466.443 108.249C469.336 108.171 472.307 107.858 475.199 107.467C476.919 107.233 478.639 106.764 479.968 105.122C479.968 106.451 479.421 107.155 478.561 107.546C477.154 108.249 475.747 108.953 474.261 109.344C469.805 110.594 465.114 110.907 460.502 111.064C450.417 111.454 440.332 111.142 430.325 110.36C418.911 109.422 408.435 105.982 399.21 98.946C398.898 98.7114 398.585 98.5551 398.038 98.2424C397.959 99.1023 397.959 99.8059 397.881 100.431C397.647 111.845 396.709 123.181 394.754 134.361C393.112 143.82 390.845 153.123 387.249 161.957C385.686 165.788 383.966 169.541 381.62 172.981C380.057 175.248 378.415 177.437 376.46 179.391C369.503 186.505 361.059 188.538 351.522 185.958C346.518 184.629 342.218 182.049 338.31 178.766C332.837 174.153 328.459 168.603 324.628 162.661C324.316 162.192 324.003 161.723 323.69 161.254C323.612 161.176 323.456 161.176 323.221 161.019C323.065 163.521 322.909 166.023 322.752 168.446C321.189 188.929 317.592 209.021 310.322 228.252C308.055 234.35 305.24 240.214 301.8 245.764C299.299 249.83 296.484 253.66 292.81 256.787C290.855 258.507 288.745 260.071 286.399 261.322C279.441 265.153 272.405 264.918 265.526 261.009C261.148 258.507 257.552 254.989 254.425 251.08C253.799 250.299 253.174 249.517 252.392 248.579C252.157 249.439 251.923 250.064 251.766 250.69C248.796 262.885 244.496 274.612 237.929 285.401C235.036 290.091 231.831 294.547 227.922 298.456C225.42 300.88 222.762 302.991 219.557 304.476C214.006 307.134 208.534 306.9 203.218 303.851C200.169 302.131 197.589 299.864 195.244 297.362C191.569 293.453 188.442 289.153 185.784 284.619C183.673 281.101 181.797 277.426 179.764 273.83C179.452 273.283 179.217 272.736 178.904 272.189C179.061 272.189 178.983 272.189 178.826 272.267ZM250.906 240.136C251.141 239.588 251.219 239.354 251.297 239.119C252.47 232.318 253.174 225.516 253.565 218.637C254.268 205.737 253.643 192.916 252.157 180.095C250.516 166.492 247.701 153.202 243.323 140.302C240.509 132.015 237.069 123.963 232.378 116.536C231.206 114.66 229.798 112.862 228.313 111.142C227.688 110.36 226.749 109.656 225.89 109.109C224.795 108.406 224.248 108.562 223.857 109.813C223.466 110.985 223.231 112.236 223.153 113.487C222.528 120.914 223.153 128.341 224.091 135.768C225.342 146.322 226.828 156.876 228.469 167.352C230.58 180.877 233.473 194.245 237.46 207.379C240.665 218.089 244.496 228.487 249.812 238.337C250.047 238.728 250.359 239.276 250.906 240.136ZM394.207 88.7046C394.285 87.8447 394.285 87.3756 394.285 86.8284C393.816 69.551 391.94 52.43 388.109 35.5435C386.467 28.1166 384.435 20.7679 381.229 13.81C380.135 11.4647 378.728 9.19754 377.32 7.00855C376.773 6.07042 375.835 5.28864 374.975 4.66321C374.037 3.95961 373.255 4.03779 372.473 4.81957C372.004 5.28864 371.535 5.91406 371.301 6.46131C370.597 8.10305 369.894 9.82296 369.503 11.5429C367.705 19.2043 367.626 27.0221 368.643 34.8399C371.144 54.619 379.197 71.9745 392.409 86.8284C392.878 87.4538 393.425 87.9229 394.207 88.7046ZM319.781 146.869C319.86 146.869 320.016 146.791 320.094 146.791C320.094 146.556 320.172 146.322 320.172 146.087C319.781 126.856 317.514 107.858 312.667 89.1737C310.635 81.2777 308.133 73.5381 304.537 66.2675C303.364 63.9222 301.957 61.7332 300.471 59.5442C299.846 58.6061 298.83 57.8243 297.892 57.1207C297.11 56.5735 296.484 56.7298 296.015 57.5898C295.546 58.5279 295.233 59.5442 295.077 60.6387C294.374 64.9385 294.999 69.2383 295.624 73.5381C297.032 82.5286 299.221 91.4409 301.8 100.197C306.257 115.598 311.573 130.608 318.687 145.071C319.078 145.54 319.469 146.166 319.781 146.869ZM164.598 197.138C163.66 198.467 163.582 199.952 163.503 201.359C163.347 206.128 163.738 210.975 164.363 215.744C166.474 231.38 171.087 246.312 177.106 260.853C177.263 261.244 177.575 261.635 177.966 262.338C178.123 260.306 178.279 258.82 178.357 257.257C178.826 246.937 178.357 236.618 176.559 226.454C175.308 219.262 173.667 212.148 170.539 205.424C169.601 203.314 168.35 201.359 167.178 199.405C166.709 198.388 165.927 197.529 164.598 197.138Z" fill="black"/>
</g>
<path fill-rule="evenodd" clip-rule="evenodd" d="M156.719 93.0233C156.789 92.5287 156.86 92.2461 156.931 91.9635C158.273 92.1754 158.909 92.67 158.768 94.0125C158.697 95.0017 158.344 95.9909 157.991 96.9095C157.729 97.5635 157.387 98.1636 157.047 98.7598L157.046 98.7602C156.835 99.1301 156.625 99.4984 156.436 99.8771C155.588 101.361 154.458 102.633 152.833 103.339C150.148 104.541 147.604 103.198 147.039 100.372C146.473 97.6867 146.827 95.2137 148.805 93.1646C151.349 90.3383 153.892 90.2677 156.719 93.0233ZM18.6536 100.584C19.3602 96.7681 17.0285 93.8711 12.8597 93.8711C12.6477 93.8711 12.2944 93.8711 11.8705 93.9418C4.31011 95.2842 0.989207 101.431 0 107.437V107.579C0 109.062 0.777234 109.769 2.3317 109.981C2.68499 109.981 3.10894 110.122 3.39157 110.334C5.15801 111.818 7.13642 111.818 9.11483 111.041C11.9411 109.981 14.3435 108.144 16.1806 105.742C17.3111 104.187 18.3003 102.491 18.6536 100.584ZM92.9232 94.3949C92.7028 94.4143 92.4532 94.4364 92.1375 94.4364C90.5831 94.2951 88.9579 94.7897 87.4741 95.9202C84.8598 97.7573 82.6694 100.089 81.1856 102.915C80.7617 103.763 80.4084 104.682 80.2671 105.6C79.9138 107.72 81.3269 108.851 83.4466 108.285C83.6584 108.228 83.8689 108.166 84.0787 108.104C85.4093 107.714 86.716 107.331 88.1807 108.003C88.746 108.215 89.5232 108.073 90.1591 107.861C90.9364 107.579 91.7136 107.225 92.4202 106.731C95.7411 104.54 96.7303 101.22 96.7303 97.4747C96.7303 95.6376 95.3171 94.4364 93.4094 94.3657C93.2534 94.3657 93.0974 94.3795 92.9232 94.3949ZM46.7047 110.971C46.6215 110.998 46.5356 111.026 46.4481 111.054C46.0894 111.17 45.703 111.295 45.3622 111.465C44.0903 112.101 43.1011 111.606 42.9598 110.193C42.8892 109.699 42.9598 109.133 43.1011 108.71C43.8784 105.813 44.9382 102.986 46.634 100.513C46.9873 99.948 47.4113 99.3827 47.9059 98.9588C48.3298 98.5348 48.8951 98.1109 49.3897 97.8989C50.0256 97.6869 50.7322 97.4749 51.3681 97.5456C51.6452 97.5802 51.9224 97.613 52.1993 97.6457C53.6163 97.8132 55.0253 97.9797 56.3848 98.3935C57.2327 98.6055 57.7273 99.5947 57.8686 100.513C57.9392 101.22 58.0099 101.997 57.8686 102.704C57.374 105.813 53.5585 109.981 50.3789 110.123C50.0962 110.123 49.8136 110.248 49.531 110.374C49.3897 110.437 49.2483 110.499 49.107 110.547L49.1069 110.547C48.3297 110.829 47.5525 111.112 46.7753 111.324C46.7753 111.295 46.7632 111.253 46.749 111.205C46.7289 111.136 46.7047 111.053 46.7047 110.971ZM112.981 126.162C114.183 122.558 112.487 119.167 108.883 118.389C108.106 116.199 106.552 115.634 104.785 116.976C104.008 117.542 103.372 118.389 102.807 119.237C100.899 122.134 101.323 125.314 101.888 128.423C102.03 129.271 102.665 129.836 103.443 130.119C103.655 130.189 103.867 130.242 104.079 130.295C104.291 130.348 104.503 130.401 104.715 130.472C108.459 131.532 111.71 129.836 112.981 126.162ZM16.0392 132.238C16.0392 128.281 18.5829 124.395 21.9745 122.911C22.4691 122.7 22.893 122.346 23.317 121.922C25.3661 120.156 27.8391 120.862 28.475 123.547C28.6163 124.325 28.6163 125.102 28.475 125.879C27.8391 129.271 26.1433 132.238 23.7409 134.711C23.2463 135.206 22.6104 135.701 21.9745 136.054C19.2188 137.538 16.3925 136.054 16.0392 132.874V132.238ZM121.178 95.1427C118.705 95.7787 115.808 99.3822 115.878 102.35C115.878 104.964 117.504 106.801 119.765 106.66C120.613 106.613 121.46 106.503 122.308 106.393C122.732 106.338 123.156 106.283 123.58 106.236C123.909 106.236 124.195 106.109 124.471 105.986L124.472 105.986C124.552 105.95 124.631 105.914 124.711 105.883C127.184 104.752 129.586 100.795 129.445 98.1104C129.374 95.92 127.82 94.4362 125.629 94.5068C124.145 94.5068 122.662 94.7894 121.178 95.1427ZM69.7391 116.906C69.7705 117.079 69.8055 117.255 69.8408 117.434L69.8408 117.434C69.9642 118.057 70.0924 118.704 70.0924 119.308C70.0924 120.085 70.2337 120.792 70.6576 121.569C71.0109 122.205 71.1522 122.982 71.2229 123.689C71.3642 127.081 67.8313 130.755 64.3691 130.755C62.0374 130.755 60.059 129.059 59.5644 126.727C58.9285 123.901 60.4829 120.156 63.0266 118.602C64.0158 117.966 65.0757 117.754 66.1355 118.531C66.9834 119.167 67.2661 119.026 67.902 118.178L69.1738 116.694C69.3858 116.835 69.5978 116.906 69.7391 116.906ZM166.878 139.963C165.731 140.764 164.66 141.512 163.078 141.353C162.442 139.587 161.382 138.598 159.616 138.739C159.333 138.739 158.98 138.456 158.768 138.244C157.849 137.326 156.86 137.396 155.8 137.82C152.691 139.163 150.925 143.614 152.338 146.723C153.539 149.408 156.577 150.327 158.98 148.631C159.616 148.207 160.181 147.642 160.675 147.006C161.382 146.158 162.089 145.593 163.219 145.239C165.621 144.533 167.317 142.837 168.094 140.435C168.139 140.211 168.127 139.987 168.113 139.71L168.112 139.709V139.709V139.709V139.709V139.709C168.104 139.548 168.094 139.37 168.094 139.163C167.665 139.414 167.267 139.691 166.878 139.963ZM92.8088 144.462L92.8101 144.461C93.1099 144.391 93.4098 144.32 93.6921 144.25C93.6921 144.108 93.6921 143.967 93.7627 143.755C91.7843 142.483 89.5939 142.271 87.3329 142.907L87.2173 142.936C86.42 143.137 85.7396 143.309 84.9305 142.837C83.8706 142.271 82.7401 142.483 81.6803 143.119C79.0659 144.603 77.5821 148.701 78.7126 151.528C79.0659 152.517 79.7018 153.294 80.691 153.435C82.2455 153.718 83.8706 153.718 85.2131 152.658C86.9089 151.316 88.1808 149.62 88.3221 147.429C88.4634 146.299 88.958 145.663 89.8765 145.31C90.5123 145.098 91.2188 144.886 91.9252 144.674L91.9256 144.674C92.208 144.603 92.508 144.533 92.808 144.462L92.8088 144.462ZM47.8352 154.708C47.6019 154.604 47.3782 154.51 47.1605 154.418C46.7846 154.26 46.4267 154.109 46.0687 153.93C45.6448 154.602 45.2209 155.255 44.7969 155.909C44.373 156.562 43.949 157.216 43.525 157.887C42.7478 159.088 41.688 159.936 40.1335 159.654C38.579 159.371 37.4485 158.382 37.1659 156.757C37.0245 155.838 37.0245 154.849 37.1659 153.93C37.5191 151.881 38.4377 150.044 39.9215 148.56C42.0412 146.441 44.2316 146.582 45.9981 148.914C46.1394 149.126 46.3514 149.338 46.5633 149.549C48.5417 151.175 48.7537 152.093 47.8352 154.708ZM11.7883 154.272L11.7884 154.272L11.7884 154.272C11.8822 154.101 11.9823 153.919 12.0824 153.719C11.9854 153.641 11.883 153.563 11.7767 153.483L11.7766 153.483L11.7765 153.482C11.496 153.27 11.1886 153.037 10.8812 152.729C9.32677 151.034 8.05494 150.751 6.00587 151.811C3.53285 153.153 1.83707 155.061 1.34246 157.887C1.13049 159.159 1.13049 160.431 1.97838 161.562C3.81548 163.964 8.40823 163.823 9.68006 160.926C10.0334 160.078 10.3866 159.159 10.6693 158.241C10.8174 157.722 10.9267 157.184 11.0379 156.637L11.0379 156.637C11.1389 156.14 11.2414 155.636 11.3758 155.132C11.4671 154.858 11.6173 154.584 11.7883 154.272L11.7883 154.272L11.7883 154.272ZM143.082 111.253C144.777 111.748 145.696 113.514 145.201 114.998C144.848 116.128 144.566 117.259 144.424 118.389C144.071 120.933 142.799 122.841 140.679 124.113C138.701 125.314 136.581 124.395 135.733 122.205C135.239 120.862 135.309 119.52 135.733 118.248C136.723 115.422 138.701 113.443 141.527 112.595C142.375 112.383 142.94 112.101 143.082 111.253ZM129.374 148.49C130.293 146.229 130.01 144.18 128.032 142.272C128.526 141.424 128.597 140.576 127.961 139.94C127.184 139.163 126.265 139.163 125.276 139.446C124.993 139.516 124.711 139.658 124.499 139.799C121.955 141.212 120.33 144.604 120.754 147.43C121.037 149.55 122.45 151.033 124.216 151.245C126.407 151.528 128.597 150.327 129.374 148.49Z" fill="black"/>
</svg>
