<svg width="278" height="304" viewBox="0 0 278 304" fill="none" xmlns="http://www.w3.org/2000/svg">
<path d="M-87 159.953C-86.0494 120.844 -71.6551 85.5373 -41.3727 57.156C-29.5585 46.1566 -15.979 37.4657 -1.72047 29.9969C11.9949 22.9356 26.7966 19.6765 42.1415 19.1333C66.1772 18.1827 89.1267 22.2566 110.582 33.256C150.914 53.8969 176.036 86.8952 185.949 130.893C196.948 179.372 181.468 230.567 145.753 265.059C123.347 286.65 96.5954 299.279 65.6341 302.81C13.3528 308.785 -37.5705 283.391 -65.6801 237.764C-79.8028 214.543 -86.7284 189.149 -87 159.953Z" fill="#FFDC26"/>
<mask id="mask0_47_54" style="mask-type:alpha" maskUnits="userSpaceOnUse" x="-87" y="19" width="277" height="285">
<path d="M-87 159.953C-86.0494 120.844 -71.6551 85.5373 -41.3727 57.156C-29.5585 46.1566 -15.979 37.4657 -1.72047 29.9969C11.9949 22.9356 26.7966 19.6765 42.1415 19.1333C66.1772 18.1827 89.1267 22.2566 110.582 33.256C150.914 53.8969 176.036 86.8952 185.949 130.893C196.948 179.372 181.468 230.567 145.753 265.059C123.347 286.65 96.5954 299.279 65.6341 302.81C13.3528 308.785 -37.5705 283.391 -65.6801 237.764C-79.8028 214.543 -86.7284 189.149 -87 159.953Z" fill="black"/>
</mask>
<g mask="url(#mask0_47_54)">
<path d="M-73.8534 261.327C-74.804 261.87 -75.6188 262.413 -76.5693 262.956C-80.6432 265.536 -84.5813 268.116 -88.6551 270.696C-89.7415 271.375 -90.9637 272.054 -92.1858 272.326C-93.0006 272.462 -94.2227 272.054 -94.7659 271.511C-95.1733 270.832 -95.3091 269.474 -94.9017 268.795C-94.2227 267.573 -93.1364 266.623 -92.05 265.808C-86.3466 261.462 -80.6432 257.117 -74.804 253.043C-49.0029 234.982 -22.6585 217.736 4.50055 201.712C36.6841 182.837 69.0034 163.961 101.458 145.629C135.136 126.482 170.307 110.05 205.885 94.7056C213.897 91.1749 221.909 87.5084 229.921 83.9777C231.551 83.2988 233.044 82.484 234.81 82.0766C239.97 80.4471 243.908 82.0766 246.216 86.8294C247.439 89.5453 248.389 92.5328 248.932 95.5203C251.784 109.507 252.327 123.494 251.648 137.617C249.883 174.146 237.661 207.008 217.292 237.019C195.972 268.252 167.998 292.152 135 310.213C108.927 324.471 81.225 334.113 51.8932 338.458C34.9187 341.039 17.9443 341.717 0.969856 338.73C-13.1529 336.286 -26.325 331.533 -38.4108 323.928C-53.8915 314.287 -64.8909 300.571 -72.9029 284.548C-76.0262 278.301 -76.4335 271.919 -74.5324 265.265C-74.2608 264.314 -73.9892 263.364 -73.8534 262.413C-73.5818 261.734 -73.7176 261.598 -73.8534 261.327Z" fill="#27DAB7"/>
<mask id="mask1_47_54" style="mask-type:alpha" maskUnits="userSpaceOnUse" x="-96" y="81" width="348" height="260">
<path d="M-73.8534 261.327C-74.804 261.87 -75.6188 262.413 -76.5693 262.956C-80.6432 265.536 -84.5813 268.116 -88.6551 270.696C-89.7415 271.375 -90.9637 272.054 -92.1858 272.326C-93.0006 272.462 -94.2227 272.054 -94.7659 271.511C-95.1733 270.832 -95.3091 269.474 -94.9017 268.795C-94.2227 267.573 -93.1364 266.623 -92.05 265.808C-86.3466 261.462 -80.6432 257.117 -74.804 253.043C-49.0029 234.982 -22.6585 217.736 4.50055 201.712C36.6841 182.837 69.0034 163.961 101.458 145.629C135.136 126.482 170.307 110.05 205.885 94.7056C213.897 91.1749 221.909 87.5084 229.921 83.9777C231.551 83.2988 233.044 82.484 234.81 82.0766C239.97 80.4471 243.908 82.0766 246.216 86.8294C247.439 89.5453 248.389 92.5328 248.932 95.5203C251.784 109.507 252.327 123.494 251.648 137.617C249.883 174.146 237.661 207.008 217.292 237.019C195.972 268.252 167.998 292.152 135 310.213C108.927 324.471 81.225 334.113 51.8932 338.458C34.9187 341.039 17.9443 341.717 0.969856 338.73C-13.1529 336.286 -26.325 331.533 -38.4108 323.928C-53.8915 314.287 -64.8909 300.571 -72.9029 284.548C-76.0262 278.301 -76.4335 271.919 -74.5324 265.265C-74.2608 264.314 -73.9892 263.364 -73.8534 262.413C-73.5818 261.734 -73.7176 261.598 -73.8534 261.327Z" fill="#27DAB7"/>
</mask>
<g mask="url(#mask1_47_54)">
<path d="M186.221 283.934C186.628 282.576 187.035 281.083 187.307 279.725C188.393 272.392 187.579 265.195 186.9 257.997C185.134 239.937 180.925 222.283 177.122 204.494C174.271 191.458 171.419 178.421 170.74 164.978C170.333 155.608 170.197 146.102 170.468 136.596C170.876 120.301 172.505 104.141 175.493 87.9816C177.258 78.7475 179.295 69.5134 182.69 60.5509C184.591 55.3907 187.035 50.3663 190.566 46.0208C192.603 43.4407 195.047 41.4038 198.306 39.3668C198.035 40.0458 198.035 40.4532 197.763 40.589C191.381 45.7492 187.85 52.8106 185.406 60.4151C182.283 69.6492 180.381 79.0191 179.023 88.6606C175.357 112.832 173.999 137.004 175.085 161.447C175.629 172.582 177.665 183.446 179.974 194.309C183.233 210.062 186.628 225.678 189.615 241.566C191.517 251.751 192.739 261.936 192.603 272.256C192.603 274.972 192.331 277.688 191.924 280.404C191.652 282.033 191.109 283.799 190.294 285.292C188.665 288.416 185.406 289.095 182.961 286.65C181.06 284.885 179.431 282.712 178.344 280.404C175.764 274.972 173.32 269.404 171.011 263.701C164.629 247.27 159.74 230.431 154.852 213.457C147.519 188.47 139.235 163.755 130.001 139.448C128.236 134.831 126.199 130.486 124.026 126.004C123.211 124.375 122.125 122.745 121.039 121.387C119.138 119.215 117.508 119.215 115.607 121.387C114.385 122.881 113.298 124.646 112.619 126.412C110.311 131.436 109.225 137.004 108.681 142.436C107.188 156.015 107.595 169.595 108.274 183.174C109.496 206.803 112.755 230.295 115.607 253.788C117.372 268.182 119.002 282.441 119.273 296.971C119.409 307.291 119.273 317.612 117.101 327.796C116.558 330.241 115.879 332.685 114.928 334.993C112.076 341.647 106.644 342.598 101.756 337.03C99.5831 334.586 97.9535 331.734 96.324 328.883C92.9291 322.636 90.4848 315.846 88.4478 308.921C83.5592 292.625 79.8927 276.194 76.7694 259.491C71.8808 233.147 67.128 206.803 62.5109 180.322C60.7456 170.274 59.3876 160.225 57.7581 150.04C57.3507 147.867 56.8075 145.559 55.9927 143.386C55.5854 142.164 54.6348 140.942 54.0916 139.855C51.9189 140.127 50.6967 141.485 49.8819 142.843C48.1166 145.83 46.2155 148.682 44.7217 151.805C39.9689 161.99 37.9319 172.854 36.8456 183.853C34.9444 203.679 36.0308 223.37 38.0677 243.06C39.6973 258.269 41.4626 273.478 42.4132 288.823C43.3638 302.81 43.3638 316.797 40.2405 330.648C39.5615 333.364 38.6109 336.08 37.5246 338.66C36.7098 340.561 35.4876 342.191 33.9939 343.684C31.0064 346.672 27.2041 346.943 24.0808 343.956C22.0439 341.919 20.007 339.611 18.7848 337.03C16.0689 331.327 13.4888 325.352 11.316 319.377C5.74842 303.489 2.21774 286.922 -1.04135 270.491C-4.57203 252.294 -7.15215 234.097 -8.10271 215.629C-8.91748 201.099 -8.78169 186.569 -9.18908 172.039C-9.18908 169.866 -9.46067 167.558 -9.73226 164.706C-11.7692 166.336 -12.7198 168.101 -13.6703 169.73C-17.88 177.471 -21.2749 185.619 -24.1266 193.902C-32.0027 216.987 -36.484 240.616 -36.6198 265.059C-36.7556 277.416 -36.8913 289.774 -37.2987 302.267C-37.5703 311.908 -38.5209 321.55 -41.78 330.784C-42.5948 333.228 -43.8169 335.537 -45.0391 337.845C-45.5823 338.796 -46.5328 339.746 -47.4834 340.425C-49.1129 341.512 -50.0635 340.833 -50.6067 338.388C-50.3351 338.524 -49.9277 338.524 -49.7919 338.66C-49.5203 338.796 -49.3845 339.067 -48.9771 339.339C-47.2118 338.117 -46.5328 336.351 -45.7181 334.586C-43.5453 329.562 -42.3232 324.266 -41.78 318.834C-41.101 311.772 -40.5578 304.575 -40.422 297.378C-40.1504 283.799 -40.2862 270.219 -39.8788 256.64C-39.3357 237.357 -35.5334 218.481 -29.6942 200.013C-26.4351 189.692 -22.497 179.779 -17.4726 170.274C-16.1146 167.829 -14.6209 165.385 -12.8556 163.212C-11.905 161.99 -10.6828 161.04 -8.91748 161.583C-7.28794 162.126 -6.74476 163.484 -6.60896 164.978C-6.20158 169.323 -5.92999 173.669 -5.79419 178.014C-5.3868 189.013 -5.5226 200.013 -4.84362 210.876C-2.67089 246.726 3.3041 282.033 13.8961 316.39C15.7973 322.636 18.3774 328.611 21.0933 334.586C22.1797 337.03 23.8092 339.203 25.7104 341.24C27.7473 343.549 29.92 343.413 31.8212 341.104C33.1791 339.339 34.6729 337.302 35.216 335.265C36.574 330.241 37.7962 325.216 38.4751 320.056C39.6973 309.871 39.8331 299.687 38.8825 289.502C37.253 272.12 35.3518 254.738 33.7223 237.357C31.9569 218.617 31.4138 199.877 33.5865 181.137C34.8086 170.409 37.253 159.953 41.87 150.176C43.0922 147.596 44.4501 145.151 45.9439 142.843C46.7586 141.485 47.845 140.127 49.0672 139.041C52.4621 135.917 55.9927 136.325 58.0297 140.534C59.2518 143.115 60.2024 145.966 60.7456 148.818C62.6467 159.682 64.2763 170.409 66.0416 181.273C72.2882 219.432 78.2632 257.59 87.6331 295.205C89.8058 303.761 92.5217 312.316 95.5092 320.735C97.003 324.945 99.4473 328.883 101.756 332.821C102.706 334.315 104.064 335.672 105.558 336.759C107.595 338.388 109.089 337.981 110.447 335.808C111.261 334.315 112.076 332.685 112.348 331.055C113.298 324.673 114.385 318.426 114.792 312.044C115.607 297.514 114.249 283.12 112.619 268.861C110.039 245.64 107.052 222.555 104.743 199.334C102.978 182.088 102.435 164.842 103.793 147.596C104.336 140.263 105.422 133.066 108.41 126.412C109.496 123.967 110.854 121.523 112.619 119.486C116.014 115.412 120.36 115.548 123.755 119.486C125.52 121.523 127.014 123.832 128.1 126.412C131.902 135.374 135.705 144.472 139.1 153.571C147.111 174.891 152.951 197.025 159.333 218.888C164.493 236.27 169.925 253.516 176.986 270.355C178.48 273.886 180.11 277.28 182.011 280.54C182.826 282.033 184.184 283.391 185.27 284.749C185.542 284.07 185.949 283.934 186.221 283.934Z" fill="black"/>
</g>
</g>
<path d="M183.713 25.0952C180.714 25.0952 178.599 23.1775 178.403 20.3257C178.255 18.6539 178.747 17.1296 179.681 15.7529C180.665 14.3761 182.828 13.3436 184.549 14.3761C184.697 14.4745 184.893 14.5236 185.09 14.5728C187.352 14.8187 189.368 17.3263 189.318 19.9323C189.269 22.44 187.204 24.6035 184.549 24.9968C184.254 25.046 183.91 25.0952 183.713 25.0952Z" fill="black"/>
<path d="M207.462 10.1475C204.069 10.1475 201.857 7.39396 202.644 4.05041C202.889 2.91951 203.43 1.88694 204.266 1.10022C205.2 0.215166 206.282 -0.227363 207.61 0.116826C208.2 0.264336 208.79 0.264336 209.331 0.411845C211.297 0.805204 212.674 1.98528 213.166 3.95207C213.707 5.91887 212.969 7.4923 211.494 8.77072C210.363 9.75411 208.986 10.1475 207.462 10.1475Z" fill="black"/>
<path d="M174.617 39.1085C174.568 42.4029 171.47 44.5172 168.47 43.2388C164.34 41.5179 163.947 37.0434 165.766 34.1915C166.209 33.5032 166.848 33.0606 167.635 32.8148C168.323 32.6181 169.061 32.5689 169.552 33.0115C170.339 33.749 171.322 33.9949 172.158 34.5357C173.682 35.5191 174.617 37.2401 174.617 39.1085Z" fill="black"/>
<path d="M181.501 89.7534C177.911 89.7534 175.256 86.9015 175.453 83.6072C175.6 81.2962 177.075 80.1653 179.337 80.7062C179.681 80.8045 180.025 80.7553 180.37 80.8045C181.009 80.8537 181.697 80.8537 182.336 80.952C184.598 81.3454 186.221 83.1646 186.221 85.3281C186.221 87.3441 184.598 89.2125 182.435 89.7042C182.091 89.7042 181.697 89.7042 181.501 89.7534Z" fill="black"/>
<path d="M172.502 61.3332C172.502 63.1034 171.962 64.5785 170.781 65.7585C169.159 67.3811 166.799 67.5287 165.029 66.0536C162.816 64.2834 162.324 60.5957 163.996 58.3831C165.225 56.7605 166.995 56.4654 168.864 56.8588C170.781 57.2522 171.912 58.5306 172.355 60.4482C172.453 60.7924 172.502 61.1366 172.502 61.3332Z" fill="black"/>
<path d="M224.819 97.3256C224.819 94.7687 226.737 92.9003 229.441 92.9003C232.588 92.9003 234.85 94.9654 234.85 97.8664C234.85 100.423 232.637 102.488 229.933 102.538C227.032 102.538 224.819 100.276 224.819 97.3256Z" fill="black"/>
<path d="M203.873 101.653C200.775 101.653 197.776 98.6532 197.825 95.5555C197.825 93.392 199.497 92.2119 201.562 92.8511C202.053 92.9986 202.644 92.9986 203.184 92.9986C205.446 92.9003 207.118 93.9329 207.856 95.8505C208.986 98.7515 207.02 101.702 203.873 101.653Z" fill="black"/>
<path d="M262.631 87.885C262.631 90.0485 260.811 91.9661 258.55 92.212C256.583 92.4086 254.518 91.2286 253.78 89.4093C253.288 88.2292 253.338 87.0983 254.075 86.0657C254.124 85.9674 254.223 85.8691 254.272 85.7707C255.944 83.4597 258.451 83.0172 260.861 84.5906C261.992 85.3774 262.631 86.5574 262.631 87.885Z" fill="black"/>
<path d="M224.327 6.6564C224.327 5.62383 224.573 4.78795 225.114 4.00123C226.098 2.52613 227.671 2.13277 229.244 2.96866C229.884 3.31285 230.474 3.65704 231.064 4.09957C232.342 5.13214 232.883 6.45972 232.49 8.08233C232.096 9.7541 230.965 10.7867 229.244 11.1309C227.622 11.4259 226.294 10.8358 225.311 9.55742C224.622 8.67236 224.327 7.68897 224.327 6.6564Z" fill="black"/>
<path d="M272.563 62.0217C275.169 61.9725 277.185 64.136 277.136 66.447C277.087 67.8237 276.595 68.9546 275.562 69.8889C273.399 71.8557 270.105 70.8231 269.465 67.9712C269.318 67.332 269.269 66.5945 269.465 66.0045C269.76 65.0211 270.252 64.0377 270.744 63.1034C271.235 62.3167 272.071 62.0217 272.563 62.0217Z" fill="black"/>
<path d="M234.801 39.1085C234.801 38.961 234.751 38.7643 234.751 38.5676C234.653 36.945 235.538 35.8633 237.062 35.5191C239.177 35.0766 241.537 36.5025 241.979 38.5185C242.471 40.6328 241.094 42.6979 238.931 43.2388C236.718 43.7796 234.309 42.1079 234.702 39.6002C234.751 39.4527 234.751 39.3052 234.801 39.1085Z" fill="black"/>
<path d="M195.416 30.4055C195.465 28.8812 195.858 27.7011 196.841 26.8161C198.513 25.2918 200.824 25.8327 201.562 27.6519C201.758 28.0945 202.004 28.4878 202.25 28.8812C202.939 30.2088 202.988 31.5364 202.103 32.7656C201.267 33.9457 200.087 34.4866 198.612 34.2407C197.038 33.9949 196.104 33.0115 195.612 31.5855C195.514 31.0938 195.465 30.6513 195.416 30.4055Z" fill="black"/>
<path d="M214.248 73.7241C215.575 74.3142 217.296 74.7075 218.23 76.3301C218.968 77.6577 218.673 79.2803 217.542 80.4604C216.362 81.6405 214.641 81.9355 213.215 81.2471C211.15 80.2145 210.265 77.3627 211.396 75.3467C211.937 74.3142 212.871 73.7241 214.248 73.7241Z" fill="black"/>
<path d="M235.587 77.8543C233.473 77.8543 231.752 76.0842 231.85 73.9699C231.9 73.134 232.145 72.249 232.539 71.5114C233.129 70.3313 234.26 69.8888 235.489 70.1347C236.325 70.2822 237.161 70.6264 237.849 71.1181C239.324 72.1015 239.865 73.7241 239.373 75.1992C238.882 76.7726 237.259 77.8543 235.587 77.8543Z" fill="black"/>
<path d="M186.713 45.6481C186.713 44.5663 187.008 43.6321 187.794 42.8946C189.024 41.7636 190.794 41.862 191.826 43.1404C192.17 43.5829 192.515 43.9763 192.908 44.3696C193.498 44.9597 193.94 45.6481 194.137 46.484C194.629 48.7949 192.711 50.7617 190.4 50.3192C188.384 49.975 186.762 47.9099 186.713 45.6481Z" fill="black"/>
<path d="M248.814 20.5222C247.388 20.5222 246.159 19.6372 245.815 18.2113C245.667 17.572 245.421 16.982 244.979 16.4411C243.946 15.2119 244.34 13.491 245.766 12.7534C246.061 12.6059 246.405 12.4584 246.749 12.4092C249.06 12.1142 251.813 14.2285 252.059 16.5395C252.305 18.6538 250.781 20.5222 248.814 20.5222Z" fill="black"/>
<path d="M215.919 24.9968C215.919 26.1768 215.723 27.0619 215.133 27.8978C213.903 29.6679 211.494 29.8154 210.068 28.1436C208.888 26.8161 208.79 24.9476 209.724 23.4725C209.921 23.1283 210.117 22.7841 210.265 22.4399C211.052 20.4731 213.264 20.0306 214.69 21.6041C215.674 22.6366 215.919 23.8659 215.919 24.9968Z" fill="black"/>
<path d="M264.007 30.7989C264.007 32.6673 262.631 34.1424 260.811 34.29C258.845 34.4375 257.124 33.0115 256.927 30.9956C256.829 30.258 256.878 29.5205 256.927 28.7829C257.075 27.5045 258.107 26.6195 259.435 26.5211C261.647 26.3244 264.057 28.5863 264.007 30.7989Z" fill="black"/>
<path d="M274.431 45.2548C274.431 47.1232 272.956 48.795 271.039 48.9917C269.269 49.1883 267.548 48.0083 267.204 46.2382C266.958 45.0581 267.253 43.878 267.744 42.8454C267.941 42.4029 268.482 42.0095 268.924 41.7637C271.235 40.6328 274.431 42.6488 274.431 45.2548Z" fill="black"/>
<path d="M251.518 57.6456C251.518 59.2682 250.486 60.6449 248.912 60.9891C247.437 61.3333 245.962 60.5466 245.274 59.0715C245.077 58.6782 244.831 58.2356 244.536 57.8914C243.504 56.4655 243.995 54.5971 245.618 53.8595C248.175 52.7286 251.518 54.8921 251.518 57.6456Z" fill="black"/>
<path d="M227.769 28.5862C227.769 28.7337 227.769 28.9304 227.72 29.1763C227.474 30.848 226.294 32.0281 224.77 32.0281C223.295 32.0281 222.066 30.9464 221.771 29.3729C221.623 28.4879 221.426 27.6028 221.279 26.7178C221.082 25.6852 221.328 24.751 222.213 24.1118C223.147 23.4234 224.131 23.4726 225.114 24.0134C226.442 24.7018 227.769 26.9144 227.769 28.5862Z" fill="black"/>
<path d="M201.168 66.8894C201.07 68.1678 200.431 69.2496 199.103 69.8396C197.776 70.4296 196.497 70.233 195.366 69.2496C194.039 68.1186 193.596 66.0043 194.334 64.3817C195.071 62.7591 196.891 62.1199 198.513 62.9558C200.185 63.7917 201.168 65.2176 201.168 66.8894Z" fill="black"/>
<path d="M212.674 46.0906C212.625 46.8282 212.625 47.3199 212.576 47.7624C212.379 48.9425 211.691 49.7292 210.511 50.0734C209.38 50.3684 208.396 50.0242 207.659 49.1883C206.282 47.7132 206.43 45.1564 207.806 43.7796C208.741 42.8946 210.068 42.6487 211.199 43.1896C212.281 43.6813 212.773 44.7139 212.723 45.9923C212.674 46.1398 212.674 46.2381 212.674 46.0906Z" fill="black"/>
<path d="M225.065 64.0376C225.065 65.316 224.131 66.3978 222.803 66.6928C221.525 66.9878 220.394 66.6436 219.46 65.6602C218.575 64.6768 218.28 63.5459 218.624 62.2675C218.919 61.1858 219.656 60.4974 220.738 60.2516C221.771 60.0057 222.656 60.3499 223.393 61.1366C223.688 61.4808 224.032 61.825 224.327 62.1692C224.868 62.71 225.114 63.3001 225.065 64.0376Z" fill="black"/>
<path d="M212.527 58.924C212.477 60.4974 211.986 61.4316 210.904 61.9725C209.822 62.5134 208.741 62.3659 207.806 61.6283C206.38 60.5466 206.036 58.3339 206.97 56.8097C208.101 54.9904 210.56 54.9904 211.642 56.8588C212.084 57.5472 212.33 58.4323 212.527 58.924Z" fill="black"/>
<path d="M230.375 49.6801C230.375 51.1552 229.539 52.3844 228.261 52.7286C226.983 53.0728 225.606 52.4828 224.917 51.2043C224.475 50.4176 224.278 49.5326 224.475 48.5983C224.721 47.4183 225.409 46.6316 226.589 46.3365C227.72 46.0415 228.654 46.4349 229.441 47.2708C230.08 47.91 230.326 48.795 230.375 49.6801Z" fill="black"/>
<path d="M222.754 43.9271C221.131 43.9271 219.656 42.4029 219.656 40.7311C219.656 39.256 220.787 38.1251 222.262 38.1743C224.18 38.1743 225.655 39.4527 225.655 41.0261C225.655 42.5504 224.327 43.9271 222.754 43.9271Z" fill="black"/>
</svg>
