<svg width="314" height="493" viewBox="0 0 314 493" fill="none" xmlns="http://www.w3.org/2000/svg">
<path d="M168.047 279.26C149.753 259.863 131.458 240.649 113.439 220.977C98.4543 204.705 84.0205 187.883 70.5056 170.325C61.2198 158.283 52.3935 145.965 45.6806 132.27C42.8299 126.479 40.3467 120.321 38.3231 114.071C35.0116 103.776 34.7329 93.2073 37.1195 82.7308C39.2306 73.2653 44.0993 65.4547 52.1853 59.9427C57.6066 56.1762 63.6719 54.7075 70.1971 54.6174C79.1118 54.528 87.7513 56.0009 96.2991 58.6686C113.487 64.0958 129.664 71.4527 144.923 80.8313C165.513 93.52 185.552 107.128 205.04 121.654C224.16 135.813 243.188 150.063 261.941 164.773C274.995 175.07 287.313 186.286 299.907 197.043C303.86 200.444 307.813 203.846 311.673 207.155C316.178 211.109 320.774 214.97 325.371 219.015C337.873 230.047 350.467 241.171 362.877 252.295C375.287 263.603 386.871 275.554 397.903 288.24C408.475 300.282 418.588 312.6 427.874 325.745C436.977 338.522 445.344 351.851 451.689 366.282C454.724 373.359 457.207 380.62 458.496 388.341C459.509 394.315 459.786 400.289 458.685 406.354C456.575 418.025 450.328 426.479 439.576 431.714C432.96 434.837 426.068 436.398 418.807 436.855C407.503 437.679 396.382 436.297 385.445 433.629C370.739 430.132 356.768 424.614 342.981 418.177C323.862 409.349 306.121 398.223 288.84 386.271C267.146 371.192 246.831 354.368 227.342 336.533C207.117 317.779 187.72 298.381 168.047 279.26Z" fill="#FB421F"/>
<mask id="mask0_4_13929" style="mask-type:alpha" maskUnits="userSpaceOnUse" x="35" y="54" width="425" height="384">
<path d="M168.047 279.26C149.753 259.863 131.458 240.649 113.439 220.977C98.4543 204.705 84.0205 187.883 70.5056 170.325C61.2198 158.283 52.3935 145.965 45.6806 132.27C42.8299 126.479 40.3467 120.321 38.3231 114.071C35.0116 103.776 34.7329 93.2073 37.1195 82.7308C39.2306 73.2653 44.0993 65.4547 52.1853 59.9427C57.6066 56.1762 63.6719 54.7075 70.1971 54.6174C79.1118 54.528 87.7513 56.0009 96.2991 58.6686C113.487 64.0958 129.664 71.4527 144.923 80.8313C165.513 93.52 185.552 107.128 205.04 121.654C224.16 135.813 243.188 150.063 261.941 164.773C274.995 175.07 287.313 186.286 299.907 197.043C303.86 200.444 307.813 203.846 311.673 207.155C316.178 211.109 320.774 214.97 325.371 219.015C337.873 230.047 350.467 241.171 362.877 252.295C375.287 263.603 386.871 275.554 397.903 288.24C408.475 300.282 418.588 312.6 427.874 325.745C436.977 338.522 445.344 351.851 451.689 366.282C454.724 373.359 457.207 380.62 458.496 388.341C459.509 394.315 459.786 400.289 458.685 406.354C456.575 418.025 450.328 426.479 439.576 431.714C432.96 434.837 426.068 436.398 418.807 436.855C407.503 437.679 396.382 436.297 385.445 433.629C370.739 430.132 356.768 424.614 342.981 418.177C323.862 409.349 306.121 398.223 288.84 386.271C267.146 371.192 246.831 354.368 227.342 336.533C207.117 317.779 187.72 298.381 168.047 279.26Z" fill="black"/>
</mask>
<g mask="url(#mask0_4_13929)">
<path fill-rule="evenodd" clip-rule="evenodd" d="M47.6223 213.283C50.6322 213.362 53.6223 213.461 56.6124 213.56C59.6024 213.659 62.5925 213.758 65.6024 213.837C90.315 214.471 115.028 216.055 139.423 220.491C148.008 222.028 156.489 223.98 164.95 225.928L164.959 225.93C166.956 226.39 168.952 226.849 170.948 227.303C174.987 228.174 178.789 229.6 182.274 231.976C187.977 235.936 189.958 241.877 187.581 248.372C186.235 251.936 184.096 255.025 181.72 257.877C176.334 264.372 169.997 269.758 163.186 274.51C159.102 277.373 154.964 280.125 150.819 282.881C147.968 284.776 145.115 286.673 142.275 288.609C139.819 290.272 137.602 292.173 135.384 294.233C133.087 296.53 133.245 298.114 135.938 299.856C137.602 300.886 139.344 301.837 141.245 302.312C141.876 302.484 142.506 302.657 143.135 302.83L143.137 302.831C147.718 304.091 152.253 305.338 156.849 306.035C171.185 308.173 185.601 310.074 199.938 311.737C221.831 314.248 243.767 316.629 265.683 319.008L265.687 319.009L265.699 319.01C273.511 319.858 281.321 320.706 289.125 321.559C294.907 322.272 300.61 323.223 306.392 324.252C309.323 324.807 312.174 325.599 314.946 326.47C316.847 327.104 318.748 328.054 320.412 329.242C325.243 332.648 325.956 337.321 322.709 342.311C320.332 345.955 317.085 348.569 313.6 350.945C305.454 356.7 296.603 361.044 287.778 365.375C287.25 365.634 286.722 365.893 286.194 366.153C285.348 366.576 284.504 366.997 283.661 367.417L283.66 367.418C279.456 369.514 275.288 371.593 271.066 373.836C270.889 373.934 270.708 374.031 270.526 374.129C269.242 374.819 267.888 375.547 267.264 377.004C268.214 378.43 269.64 378.905 270.986 379.301C274.709 380.331 278.432 381.361 282.234 381.836C293.64 383.261 304.966 384.608 316.451 385.638C328.926 386.707 341.439 387.697 353.953 388.687L353.956 388.687C366.471 389.677 378.985 390.667 391.46 391.737C399.777 392.45 408.173 393.558 416.569 394.826C419.931 395.326 423.357 396.279 426.731 397.217C427.094 397.318 427.455 397.419 427.816 397.519C429.321 397.915 430.826 398.786 432.094 399.737C434.153 401.321 434.153 403.539 432.252 405.281C431.064 406.311 429.638 407.261 428.133 407.816C424.886 409.162 421.48 410.509 417.995 411.459C416.96 411.736 415.926 412.014 414.893 412.292C407.942 414.161 401.029 416.021 393.995 417.4C381.737 419.735 369.45 421.98 357.151 424.227C349.422 425.639 341.689 427.052 333.956 428.489C332.53 428.806 331.105 428.964 329.758 429.043C329.258 429.043 328.725 428.948 328.222 428.858C327.928 428.806 327.644 428.756 327.382 428.726C327.382 428.568 327.382 428.41 327.461 428.172C327.659 428.132 327.857 428.053 328.055 427.974C328.253 427.895 328.451 427.816 328.649 427.776C352.095 423.974 375.461 419.301 398.668 413.835C405.541 412.206 412.413 410.196 419.229 408.203C420.033 407.968 420.836 407.733 421.638 407.499C423.466 406.977 425.186 406.132 426.931 405.275C427.304 405.092 427.678 404.908 428.054 404.727C428.601 404.508 429.073 404.138 429.704 403.643C429.986 403.421 430.301 403.174 430.668 402.905C430.299 402.71 429.954 402.514 429.627 402.329L429.626 402.329C428.757 401.837 428.01 401.414 427.262 401.242C426.439 401.021 425.611 400.785 424.78 400.548C422.329 399.849 419.845 399.141 417.361 398.786C415.888 398.591 414.417 398.395 412.947 398.198L412.934 398.197L412.934 398.197C403.655 396.958 394.419 395.725 385.124 394.905C370.058 393.577 354.993 392.355 339.912 391.132C328.907 390.239 317.894 389.346 306.867 388.41C299.56 387.795 292.312 386.769 285.021 385.736L285.021 385.736C283.856 385.571 282.689 385.405 281.521 385.242C278.273 384.846 275.026 383.974 271.778 383.103C270.036 382.628 268.373 381.915 266.788 381.123C263.383 379.301 263.066 376.291 265.838 373.677C267.026 372.489 268.452 371.539 269.957 370.668C273.35 368.877 276.771 367.114 280.17 365.363L280.174 365.361C282.486 364.169 284.789 362.983 287.065 361.796C288.082 361.267 289.102 360.74 290.122 360.213C296.733 356.798 303.374 353.367 309.481 349.044C312.333 346.985 315.184 344.608 317.56 342.074C321.837 337.638 321.125 334.074 315.422 331.698C311.857 330.193 307.976 329.005 304.174 328.371C295.461 326.787 286.669 325.44 277.877 324.411C262.986 322.668 248.076 320.945 233.165 319.223C218.254 317.5 203.344 315.777 188.453 314.034C177.443 312.688 166.433 311.183 155.502 309.44C150.433 308.648 145.522 307.381 140.611 305.955C138.156 305.242 135.78 304.134 133.562 302.708C129.206 299.936 128.651 296.054 131.899 292.015C134.735 288.597 138.306 286.18 141.937 283.723C142.26 283.504 142.584 283.285 142.909 283.064C144.422 282.014 145.944 280.963 147.468 279.911C152.724 276.282 158.01 272.632 163.106 268.886C169.364 264.213 175.146 258.906 179.819 252.649C180.928 251.223 181.799 249.718 182.512 248.055C185.047 242.669 183.859 237.996 178.789 234.827C176.096 233.085 173.086 231.659 170.077 230.867C162.789 228.808 155.423 226.827 147.978 225.243C125.404 220.57 102.196 217.956 78.9091 216.214L49.6817 214.075C49.4675 214.051 49.2462 214.02 49.0198 213.989L49.0191 213.989L49.0189 213.989C48.4922 213.915 47.9385 213.837 47.3847 213.837C47.406 213.774 47.4215 213.716 47.4359 213.662C47.4753 213.515 47.5064 213.399 47.6223 213.283ZM372.53 343.816C372.9 343.869 373.26 343.931 373.621 343.992L373.622 343.992C374.343 344.115 375.065 344.239 375.857 344.291C385.52 344.925 395.183 345.559 404.846 346.034C410.76 346.322 416.674 346.584 422.593 346.846C431.341 347.233 440.099 347.621 448.886 348.093C462.113 348.806 475.262 350.39 488.331 353.321C490.265 353.728 492.199 354.266 494.301 354.851C495.47 355.176 496.692 355.516 497.994 355.856C497.669 356.073 497.408 356.262 497.19 356.42C496.772 356.723 496.512 356.912 496.251 356.965C495.697 357.044 494.984 356.965 494.351 356.806C470.351 351.816 445.876 350.47 421.48 349.519C408.504 348.982 395.676 348.146 382.709 347.302L381.48 347.222C377.758 346.984 374.035 346.43 370.312 345.876L370.312 345.876C368.015 345.479 366.827 344.608 366.906 343.42C367.138 341.644 368.574 341.223 369.893 340.836L369.995 340.806C372.391 340.171 374.816 339.626 377.254 339.078C378.765 338.739 380.281 338.398 381.797 338.034C385.441 337.242 389.093 336.476 392.745 335.711C400.05 334.179 407.355 332.648 414.589 330.905C420.846 329.4 427.024 327.341 433.044 325.282C434.942 324.612 436.801 323.588 438.648 322.57L438.649 322.57C439.422 322.144 440.193 321.719 440.965 321.321C441.034 321.275 441.102 321.231 441.168 321.187C441.556 320.932 441.894 320.709 442.232 320.371C444.054 318.549 444.054 317.123 442.074 315.618C440.727 314.589 439.222 313.717 437.638 313.242C433.044 311.816 428.371 310.47 423.619 309.519C411.364 307.128 398.968 306.006 386.631 304.889C385.891 304.822 385.151 304.755 384.411 304.688C352.887 301.678 321.283 298.114 290.075 292.569C269.878 289.005 249.838 284.807 230.195 278.47C223.7 276.411 217.363 274.035 211.343 270.866C208.571 269.361 205.878 267.777 203.74 265.48C200.809 262.233 200.73 258.985 204.056 256.134C205.641 254.708 207.462 253.52 209.522 252.728C209.878 252.597 210.234 252.465 210.591 252.333C214.761 250.793 218.999 249.228 223.304 248.134C233.928 245.587 244.649 243.234 255.354 240.886L255.359 240.885L255.368 240.883C258.306 240.238 261.242 239.594 264.175 238.946C282.155 234.906 300.135 230.55 317.56 224.372C323.897 222.154 330.154 219.699 336.015 216.372C337.837 215.342 339.659 214.154 341.322 212.808C342.273 212.016 343.065 211.065 343.778 210.035C344.491 209.006 344.411 207.976 343.461 207.184C343.236 207.019 343.014 206.851 342.793 206.684C341.847 205.97 340.924 205.272 339.897 204.887C336.332 203.699 332.768 202.511 329.045 201.798C320.332 199.897 311.461 199.263 302.669 198.709C284.278 197.453 265.749 197.162 247.275 196.871C245.938 196.85 244.601 196.829 243.264 196.808C239.997 196.757 236.731 196.715 233.465 196.672L233.46 196.672H233.459C216.294 196.448 199.137 196.225 182.037 194.828C176.176 194.352 170.235 193.639 164.374 192.847C161.364 192.372 158.354 191.58 155.502 190.788C154.156 190.392 152.809 189.679 151.701 188.887C149.166 187.144 148.849 184.768 150.988 182.471C152.176 181.125 153.681 180.095 155.186 179.224C159.769 176.629 164.39 174.149 168.996 171.677C170.998 170.603 172.996 169.531 174.987 168.452C181.562 164.887 187.977 161.165 193.918 156.65C200.809 151.501 206.195 144.848 211.106 137.878C216.571 130.195 221.007 121.957 223.779 112.848C225.601 107.066 226.551 101.046 226.076 94.8682C225.363 85.9178 221.086 79.1059 214.116 73.8783C212.547 72.6902 210.894 71.5877 209.24 70.4851C208.137 69.7501 207.035 69.015 205.957 68.2546C205.957 68.0962 205.977 67.9576 205.997 67.819C206.017 67.6803 206.037 67.5417 206.037 67.3833C206.182 67.456 206.311 67.5453 206.43 67.6283C206.571 67.7263 206.7 67.8157 206.829 67.8586C208.052 68.5923 209.293 69.2887 210.531 69.983L210.531 69.9834L210.532 69.9836C212.902 71.3129 215.257 72.6344 217.442 74.1951C226.63 80.6901 230.036 89.9574 229.64 100.809C229.403 109.125 227.026 117.046 223.462 124.571C217.759 136.769 210.155 147.699 200.175 156.887C195.423 161.323 189.958 164.729 184.255 167.739C180.413 169.759 176.551 171.719 172.69 173.68C168.829 175.64 164.967 177.6 161.126 179.62C158.908 180.729 156.928 181.917 154.869 183.184C154.385 183.474 153.96 183.883 153.45 184.374C153.125 184.686 152.766 185.032 152.334 185.402C152.721 185.617 153.078 185.826 153.417 186.024C154.33 186.557 155.112 187.014 155.978 187.303C156.725 187.485 157.477 187.682 158.232 187.88L158.234 187.88C160.443 188.459 162.686 189.047 164.928 189.283C165.676 189.363 166.424 189.443 167.173 189.523C173.884 190.244 180.654 190.97 187.423 191.184C200.255 191.58 213.106 191.877 225.957 192.174C238.809 192.471 251.66 192.768 264.491 193.164C281.363 193.719 298.154 194.511 314.946 195.461C319.022 195.701 323.143 196.349 327.241 196.993H327.241C328.559 197.2 329.874 197.407 331.184 197.6C334.035 198.075 336.808 198.946 339.421 199.818C341.085 200.372 342.827 201.164 344.253 202.115C349.164 205.283 349.639 209.56 345.758 213.758C343.382 216.293 340.609 218.114 337.52 219.778C330.788 223.501 323.58 226.273 316.293 228.807C299.739 234.431 282.788 238.55 265.68 242.193C261.966 242.997 258.246 243.795 254.524 244.593C244.67 246.706 234.798 248.823 224.967 251.065C220.294 252.094 215.7 253.678 211.106 255.263C209.363 255.896 207.621 256.847 206.116 257.876C203.819 259.54 203.581 261.362 205.561 263.183C207.145 264.767 208.967 266.114 210.868 267.223C216.175 270.312 221.878 272.371 227.66 274.352C243.739 279.658 260.293 283.223 276.927 286.391C308.847 292.49 341.164 296.45 373.56 299.539C386.866 300.807 400.252 302.153 413.638 303.817C419.817 304.609 425.995 305.876 432.094 307.222C434.483 307.7 436.754 308.649 439.06 309.611L439.06 309.611C439.43 309.766 439.801 309.921 440.173 310.074C441.519 310.628 442.707 311.341 443.816 312.292C447.935 315.46 448.173 319.816 444.054 323.143C442.153 324.727 439.935 326.153 437.717 327.103C433.361 328.925 428.846 330.589 424.331 331.935C414.919 334.837 405.253 336.727 395.561 338.622L395.56 338.622L395.551 338.624C394.399 338.849 393.247 339.074 392.094 339.301C389.163 339.856 386.272 340.41 383.381 340.965L383.374 340.966C380.485 341.52 377.597 342.074 374.669 342.628C373.876 342.786 373.005 343.024 372.134 343.262C372.53 343.499 372.53 343.658 372.53 343.816ZM-15.5409 135.26C-17.3598 135.321 -19.1832 135.383 -21.0124 135.426C-21.0916 135.664 -21.0124 135.901 -20.7748 136.139C-20.0619 136.218 -19.2698 136.218 -18.4778 136.218C-17.7279 136.218 -16.973 136.213 -16.2157 136.208C-13.9335 136.193 -11.6289 136.178 -9.36894 136.297C13.5219 137.169 36.1751 139.703 58.7492 142.951C74.9074 145.169 90.9865 147.941 106.828 151.743C109.838 152.535 112.927 153.406 115.778 154.515C117.521 155.149 119.263 156.258 120.848 157.366C123.065 159.109 123.382 161.01 122.036 163.307C121.402 164.416 120.689 165.446 119.818 166.317C116.65 169.802 112.768 172.416 108.729 174.713C100.729 179.386 92.2538 182.792 83.6202 186.198C82.5905 186.594 81.5608 186.99 80.6895 187.544C80.2935 187.782 80.0559 188.495 80.1351 188.891C80.2143 189.287 80.9272 189.841 81.244 189.841C82.3529 189.841 83.4618 189.683 84.4123 189.366C95.6597 185.564 106.59 180.812 116.491 174.079C119.897 171.782 123.145 169.327 125.362 165.683C128.135 161.168 127.263 156.654 122.986 153.644C121.006 152.297 118.709 151.109 116.333 150.317C112.927 149.129 109.521 148.258 105.957 147.545C70.5511 140.337 34.9078 135.901 -1.2106 135.109C-5.97732 134.937 -10.744 135.098 -15.5409 135.26Z" fill="black"/>
</g>
</svg>
