<svg width="298" height="384" viewBox="0 0 298 384" fill="none" xmlns="http://www.w3.org/2000/svg">
<path d="M46.7877 76.9888C57.5764 70.8754 70.574 64.9879 84.4483 61.0189C109.595 53.7749 134.794 52.6208 160.299 58.7959C173.709 62.0231 186.776 66.2566 199.195 72.3659C214.659 79.95 228.001 90.26 238.753 103.682C247.135 114.201 252.596 126.059 254.739 139.371C256.932 152.769 252.728 164.088 244.289 174.271C242.204 176.861 239.56 179.08 237.189 181.373C225.615 192.327 214.752 203.911 205.171 216.717C196.503 228.303 186.552 238.668 175.841 248.316C168.107 255.321 160.697 262.486 152.914 269.405C145.723 275.75 138.246 281.799 130.955 287.971C125.37 292.697 120.034 297.856 114.162 302.285C106.052 308.238 98.9884 315.203 91.0281 321.416C79.9404 330.011 68.0392 336.998 54.3381 340.867C39.5343 345.026 24.526 345.03 9.37025 342.58C-14.811 338.297 -34.8203 326.64 -51.0638 308.305C-59.2789 299.076 -66.7645 289.311 -73.5208 279.009C-77.2672 273.32 -81.0136 267.631 -84.6734 261.892C-87.6332 257.365 -89.9368 252.575 -91.5475 247.385C-94.1289 238.714 -93.8452 230.006 -91.0928 221.373C-90.0277 218.218 -88.8761 215.012 -87.4012 211.967C-82.0909 201.165 -76.7307 190.449 -71.1838 179.856C-61.2954 160.983 -47.4481 145.368 -30.3749 132.739C-22.7843 127.087 -14.9937 121.78 -7.53963 116.091C0.643827 109.865 8.59069 103.43 16.5876 97.0807C25.5236 89.9584 34.9829 83.3424 46.7877 76.9888Z" fill="#FB421F"/>
<path fill-rule="evenodd" clip-rule="evenodd" d="M49.027 118.85L49.0323 118.847C57.1189 114.539 65.1919 110.239 73.3489 105.994C85.9465 99.414 99.1842 94.5424 112.722 90.1905C123.448 86.769 134.428 84.5867 145.638 84.0034C167.439 82.9637 187.373 88.8907 205.401 101.115C213.948 106.919 220.297 114.916 225.224 123.849C227.837 128.576 228.332 133.833 227.984 139.23C227.692 143.324 227.4 147.419 223.48 150.028C216.686 158.416 209.393 166.417 202.1 174.419L202.1 174.419C196.945 180.075 191.791 185.73 186.813 191.521C184.288 194.48 181.768 197.448 179.248 200.417C174.208 206.355 169.169 212.292 164.084 218.153C156.458 226.944 148.695 235.698 139.836 243.353C130.68 251.295 121.225 258.718 111.246 265.634C101.353 272.5 91.2745 279.242 80.9956 285.639C67.3026 294.122 53.0961 301.516 37.4629 306.038C24.035 309.98 10.4061 310.574 -3.33718 307.77C-12.9092 305.791 -21.6089 301.923 -29.3498 296.115C-38.9701 288.852 -46.8986 279.92 -53.5414 270.014C-62.2574 256.917 -64.6907 242.503 -62.0304 227.111C-57.8436 203.562 -46.6927 184.076 -28.9643 168.183C-21.3541 161.364 -13.0572 155.535 -4.66038 149.878C6.06135 142.649 16.9465 135.902 28.2682 129.712C31.1261 128.062 34.084 126.586 37.0918 125.195C41.0812 123.082 45.0557 120.965 49.027 118.85ZM37.6768 131.208L37.5268 130.949L32.3306 133.949C17.4948 142.052 3.20898 151.108 -10.4902 160.981C-18.0077 166.36 -25.0519 172.159 -31.2729 178.984C-44.6542 193.407 -52.8642 210.387 -56.0029 229.75C-58.2606 243.64 -55.6479 256.565 -47.7818 268.19C-42.8622 275.511 -37.0034 282.059 -30.3785 287.933C-21.8108 295.573 -11.7915 300.527 -0.420447 302.622C11.5836 304.814 23.4135 304.104 35.2192 300.752C50.8524 296.229 65.1454 288.785 78.875 280.166C86.729 275.169 94.5697 269.95 102.324 264.78C113.565 257.251 124.22 248.905 134.588 240.264C143.251 233.068 150.804 224.55 158.184 216.133C161.983 211.81 165.725 207.422 169.47 203.032C174.861 196.711 180.259 190.383 185.838 184.232C194.699 174.389 203.875 164.723 213.01 155.1L213.019 155.091C215.486 152.492 217.95 149.896 220.404 147.301C221.033 146.591 221.353 145.945 221.386 145.002C221.451 143.726 221.57 142.464 221.687 141.22C221.756 140.493 221.824 139.772 221.88 139.058C222.086 135.014 221.621 131.01 219.794 127.446C217.404 122.706 214.321 118.366 210.819 114.499C204.1 107.062 195.73 101.964 186.62 97.9858C170.017 90.8285 152.756 89.1316 134.893 91.5926C125.787 92.8161 117.085 95.4533 108.363 98.0964L108.363 98.0964C107.848 98.2525 107.333 98.4086 106.818 98.5644C95.422 102.026 84.5895 106.664 74.1704 112.217C61.9059 118.374 49.7913 124.791 37.6768 131.208ZM63.977 146.162C75.4817 139.289 87.2499 133.072 99.3046 127.151C108.265 122.671 117.462 118.4 126.722 114.439C135.189 110.705 144.07 107.888 153.508 107.635C161.917 107.399 169.617 109.535 176.621 114.267C178.113 115.252 179.529 116.282 180.944 117.312L180.945 117.313C181.653 117.828 182.361 118.343 183.079 118.852C186.688 121.503 189.134 124.94 190.468 129.251C191.639 133.078 192.499 136.969 192.207 141.064C191.912 144.352 190.547 146.988 187.889 148.984C187.246 149.471 186.617 150.18 186.124 150.927C178.266 163.316 169.698 175.075 160.11 186.269C158.444 188.227 156.797 190.195 155.151 192.161L155.151 192.162C149.933 198.395 144.727 204.613 138.983 210.476C120.609 229.051 99.8385 244.276 76.9852 256.893C66.926 262.47 56.6667 267.7 45.944 271.928C38.589 274.789 31.034 277.303 23.1254 278.405C18.7747 279.069 14.3472 279.201 9.9795 278.836C6.55463 278.504 3.28956 277.848 0.280716 276.237C-8.42262 271.562 -15.8305 265.331 -21.3867 257.108C-26.4063 249.613 -27.6949 241.582 -25.2157 232.876C-21.6617 220.431 -15.422 209.439 -7.09307 199.665C1.06264 189.991 10.4648 181.676 20.9767 174.683C31.6731 167.29 42.4907 160.219 53.3324 153.133L53.3326 153.133L53.3343 153.132C56.8804 150.814 60.4291 148.495 63.977 146.162ZM60.0854 155.221C57.9971 156.561 55.1187 158.392 51.764 160.525L51.7614 160.527C46.4536 163.903 39.954 168.036 33.5056 172.184C25.1819 177.567 17.1583 183.47 9.80783 190.138C1.22174 197.867 -6.36794 206.521 -12.0782 216.631C-15.4011 222.475 -17.9045 228.539 -19.5748 235.046C-20.7327 239.641 -21.0343 244.318 -18.9808 248.675C-17.6906 251.51 -16.1406 254.194 -14.2442 256.679C-10.5379 261.698 -5.69608 265.485 -0.557809 268.984C3.27424 271.622 7.60892 272.93 12.2864 273.231C18.2665 273.589 24.1297 272.744 29.816 271.193C42.8744 267.811 54.9791 261.977 66.9704 255.747C79.9644 249.053 92.3584 241.32 104.252 232.721C117.815 222.812 130.518 212.014 141.638 199.474C154.942 184.518 167.86 169.093 179.372 152.631C179.83 151.974 180.307 151.33 180.785 150.684C182.416 148.483 184.054 146.271 184.962 143.515C185.041 143.26 185.121 143.009 185.2 142.761C185.692 141.225 186.153 139.782 185.943 138.214C185.473 135.599 184.916 133.034 184.185 130.569C183.491 127.967 181.895 126.002 179.742 124.474C177.303 122.649 174.864 120.824 172.302 119.186C166.803 115.663 160.743 113.965 154.12 114.094C147.41 114.273 140.904 115.604 134.739 118.125C126.864 121.286 119.089 124.62 111.415 128.127C95.546 135.441 80.2504 143.348 60.0854 155.221ZM132.06 129.486C121.011 132.748 110.938 138.101 101.179 144.198C92.9553 149.754 84.7817 155.397 76.6946 160.99L76.4524 161.157C65.3906 168.805 54.2492 176.507 43.8206 185.05C35.5273 191.686 27.5707 198.704 20.5238 206.699C16.0812 211.804 12.1985 217.279 9.24876 223.37C7.66408 226.825 6.4892 230.39 6.49375 234.198C6.39568 240.028 8.99568 244.531 14.0938 247.362C16.133 248.494 18.332 249.302 20.5677 249.975C28.504 252.321 36.5662 252.285 44.4944 250.017C54.8877 247.019 64.6407 242.312 73.8438 236.652C77.5177 234.415 81.0916 232.005 84.6155 229.509C85.5195 228.873 86.4247 228.24 87.3297 227.607C91.9331 224.386 96.5271 221.172 100.886 217.69C112.603 208.385 122.887 197.598 132.498 186.044C138.346 178.973 144.057 171.865 148.412 163.808C150.676 159.73 152.904 155.788 155.914 152.202C157.789 149.85 159.191 147.077 160.046 144.159C161.254 139.651 160.22 135.86 156.671 132.713C152.936 129.443 148.551 128.048 143.7 127.846C139.706 127.728 135.801 128.365 132.06 129.486ZM76.9564 166.843C85.7728 160.713 94.5527 154.721 99.0292 151.674C113.155 142.941 123.141 137.638 134.218 134.822C137.266 134.102 140.341 133.828 143.465 133.64C146.417 133.552 149.199 134.371 151.588 136.109C154.487 138.131 155.191 140.149 153.816 143.368C152.834 145.667 151.442 147.856 150 149.959C149.187 151.19 148.32 152.328 147.453 153.466C146.875 154.225 146.297 154.984 145.735 155.77C144.699 157.176 143.987 158.743 143.921 160.628C143.924 161.368 143.437 162.099 142.976 162.791C142.934 162.853 142.893 162.915 142.852 162.977C137.441 170.605 131.52 177.949 125.412 185.17C116.417 195.791 106.576 205.745 95.538 214.427C92.0475 217.181 88.429 219.714 84.8105 222.246C83.9058 222.88 83.0012 223.513 82.0985 224.149C79.3907 226.059 76.7194 227.832 73.9615 229.656C65.0084 235.748 55.2553 240.456 45.0255 243.937C37.3839 246.501 29.7083 247.007 21.872 244.834C19.9595 244.321 18.0337 243.586 16.3177 242.614C13.0722 240.792 11.5588 237.971 11.5177 234.3C11.5167 231.298 12.3354 228.516 13.6504 225.794C15.8743 221.046 18.8446 216.79 22.1882 212.782C28.702 204.864 36.2623 197.959 44.1091 191.35C54.6505 182.608 65.7284 174.595 76.9564 166.843Z" fill="#FFDC26"/>
</svg>
