<svg width="246" height="288" viewBox="0 0 246 288" fill="none" xmlns="http://www.w3.org/2000/svg">
<path d="M343.151 180.389C344.426 179.835 345.469 179.392 346.514 178.834C351.858 175.814 355.842 171.507 359.264 166.384C363.986 159.212 366.878 151.318 368.856 143.065C372.073 129.422 372.533 115.504 371.035 101.669C368.841 81.1471 362.83 61.8283 353.348 43.6032C347.993 33.3872 341.703 23.9613 333.55 15.8858C330.606 12.9601 327.426 10.3757 324.13 7.90448C322.196 6.49155 319.793 5.64631 317.508 4.6879C316.708 4.32945 315.908 3.971 315.923 3.05055C316.05 2.36211 316.41 1.44735 316.878 0.994714C318.046 -0.0218177 319.541 0.00285039 320.797 0.599005C323.427 1.67816 326.175 2.52909 328.449 4.17783C332.204 6.77169 335.724 9.70693 339.007 12.9835C345.469 18.9596 350.759 26.1823 355.236 33.8519C370.79 60.6937 378.715 89.5963 377.97 120.773C377.626 134.693 375.1 148.231 369.137 160.908C363.89 171.985 356.833 181.19 344.897 186.173C345.11 187.212 345.44 188.138 345.655 189.062C348.915 200.74 351.134 212.746 351.623 224.953C352.118 236.815 351.119 248.538 347.021 259.749C345.697 263.294 344.029 266.72 342.135 269.911C332.557 285.405 316.811 291.13 299.406 285.779C293.108 283.833 287.404 280.747 281.941 277.089C271.356 269.894 262.413 260.885 254.288 251.084C252.031 248.4 250.005 245.604 247.75 242.805C247.299 242.222 246.846 241.754 246.169 240.937C245.577 241.963 244.986 242.874 244.513 243.672C240.127 251.426 234.603 258.355 227.381 263.645C218.409 270.287 208.342 273.574 197.078 272.697C190.413 272.127 184.345 270.186 178.411 267.096C169.055 262.223 161.343 255.305 154.453 247.366C153.55 246.315 152.647 245.264 151.632 243.982C150.813 244.774 150.11 245.568 149.408 246.247C142.5 253.383 134.363 258.313 124.328 259.644C117.061 260.675 110.059 259.523 103.196 256.993C94.3876 253.741 86.8754 248.668 79.9576 242.454C70.3163 233.894 62.4256 223.866 55.8176 212.824C55.2556 212.009 54.6955 211.079 54.0222 210.032C53.2016 210.939 52.615 211.62 51.9114 212.414C44.9845 220.701 37.7182 228.638 29.3203 235.404C25.4702 238.563 21.3958 241.373 17.2082 244.066C14.1826 246.088 10.7062 247.527 7.01306 248.157C4.2422 248.686 2.52205 248.313 0.586956 247.015C0.70392 246.902 0.822782 246.673 0.822782 246.673C4.38573 246.962 7.51502 245.633 10.535 243.956C15.1809 241.386 19.2629 238.116 23.1186 234.612C33.0483 225.683 41.9596 215.703 50.3032 205.252C50.422 205.024 50.5409 204.796 50.8937 204.341C50.5599 203.645 50.228 202.834 49.7811 202.021C39.643 181.714 33.5529 160.207 31.8539 137.622C30.9007 125.637 31.4432 113.677 34.9715 102.111C36.1904 97.9879 37.8638 94.2176 40.1106 90.5719C41.882 87.839 43.9929 85.457 46.5564 83.5428C52.3794 79.3806 58.6039 78.7927 64.9977 81.8904C69.4507 84.0354 72.7323 87.4271 75.6593 91.3884C81.6244 99.5429 84.9262 108.689 86.6057 118.499C90.1571 140.425 86.2487 161.076 74.8864 180.108C70.3889 187.63 64.9768 194.791 60.023 202.075C59.4344 202.871 58.8458 203.667 58.2573 204.463C58.3666 204.81 58.3628 205.04 58.4741 205.272C66.0797 218.632 75.3169 230.754 87.3554 240.505C94.1695 246.026 101.463 250.405 110.058 252.618C124.27 256.19 138.047 251.238 147.687 238.968C147.238 238.27 146.678 237.34 146.116 236.525C135.104 220.346 127.105 202.951 122.932 183.778C121.223 175.809 120.203 167.851 120.798 159.689C121.106 154.976 121.759 150.268 123.785 146.043C124.86 143.644 126.281 141.251 128.039 139.323C132.027 134.785 137.686 133.613 143.404 135.779C146.605 137.097 149.334 139.099 151.71 141.555C155.784 145.765 158.809 150.764 161.138 156.096C166.686 168.617 168.886 181.774 168.431 195.346C167.951 210.53 164.264 224.74 155.993 237.724C155.875 237.952 155.756 238.18 155.518 238.637C155.969 239.219 156.418 239.917 156.868 240.5C162.283 247.15 168.397 253.235 175.568 258.072C181.145 261.847 187.084 264.592 193.739 265.852C202.802 267.613 211.344 266.027 219.246 261.439C225.403 257.973 230.545 253.224 234.669 247.423C237.025 244.124 238.924 240.588 241.052 237.17C241.998 235.69 241.788 234.42 240.777 232.907C233.811 222.665 227.773 211.977 222.547 200.842C214.425 183.906 207.81 166.303 204.087 147.828C202.279 138.821 201.276 129.828 202.003 120.633C202.425 116.036 203.304 111.562 205.558 107.456C209.235 100.842 215.714 98.7621 222.567 101.982C224.509 102.82 226.331 104.001 227.919 105.408C230.414 107.636 232.678 109.975 234.707 112.541C239.216 118.254 242.677 124.756 245.443 131.477C255.298 155.002 259.152 179.464 256.315 204.967C255.239 214.386 253.014 223.672 249.531 232.476C249.05 233.734 248.803 234.766 249.818 236.049C257.584 246.65 265.82 256.683 275.806 265.249C281.479 270.176 287.507 274.534 294.244 277.753C298.126 279.658 302.245 281.107 306.492 281.752C317.396 283.544 326.428 280.24 333.813 272.075C339.089 266.178 342.083 259.092 344.049 251.528C346.632 241.443 347.031 231.207 346.167 220.835C345.308 210.118 343.177 199.725 340.125 189.431C340.019 188.854 339.797 188.39 339.461 187.809C338.771 187.798 338.197 187.673 337.62 187.779C330.818 188.472 324.392 187.331 318.344 184.238C314.349 182.216 310.358 179.964 306.835 177.259C291.835 165.617 281.38 150.599 275.116 132.657C273.689 128.49 272.725 124.101 272.797 119.729C272.82 118.348 272.843 116.967 272.981 115.589C274.157 107.092 280.438 103.052 288.692 105.029C292.13 105.892 295.21 107.554 298.054 109.557C302.607 112.625 306.571 116.488 310.3 120.693C319.679 131.205 326.962 143.179 332.851 155.936C336.187 163.011 338.827 170.421 341.816 177.605C342.493 178.422 342.823 179.348 343.151 180.389ZM55.5832 199.125C57.5847 196.395 59.3504 194.008 61.118 191.505C66.7755 183.427 72.2047 175.23 75.9233 166.085C83.0039 148.478 84.6825 130.437 79.9218 112.059C78.1929 105.241 75.3058 98.8632 70.7928 93.3797C68.6503 90.6973 66.2721 88.3563 63.0752 86.8075C58.5071 84.6606 54.1312 84.8186 50.1642 88.0907C48.2968 89.6711 46.4255 91.4817 45.2388 93.6488C43.4617 96.7268 41.911 100.039 40.8185 103.473C37.7808 113.206 37.1536 123.323 37.6769 133.459C38.8082 155.575 44.4458 176.614 54.0142 196.567C54.463 197.265 55.0269 197.965 55.5832 199.125ZM245.11 228.375C245.469 227.576 245.705 227.234 245.827 226.776C248.125 220.024 249.735 213.145 250.656 206.14C252.906 188.338 251.586 170.708 247.153 153.372C244.123 141.698 239.933 130.58 233.31 120.459C231.177 117.201 228.58 114.166 225.865 111.359C224.167 109.605 222.002 108.303 219.718 107.229C216.406 105.679 213.511 106.782 211.618 109.858C210.673 111.339 210.071 112.94 209.583 114.658C208.12 119.583 207.922 124.643 208.184 129.712C208.517 137.428 209.657 145.042 211.605 152.555C218.187 179.134 229.405 203.718 243.985 226.861C244.209 227.21 244.547 227.675 245.11 228.375ZM152.035 233.515C152.506 232.833 152.974 232.38 153.214 231.808C154.523 229.183 156.061 226.676 157.142 223.932C163.854 207.7 164.937 190.915 161.536 173.826C159.832 165.512 157.082 157.756 152.366 150.658C150.233 147.4 147.749 144.482 144.448 142.241C138.983 138.698 134.016 139.767 130.587 145.35C128.695 148.426 127.83 151.979 127.311 155.538C126.032 163.343 126.823 171.182 128.307 178.918C132.017 198.198 139.899 215.707 150.796 231.884C151.018 232.348 151.471 232.815 152.035 233.515ZM337.947 181.915C337.73 181.106 337.625 180.528 337.517 180.066C331.579 163.281 323.902 147.272 313.437 132.828C309.049 126.772 304.309 121.054 298.402 116.353C295.79 114.238 292.829 112.348 289.744 111.031C283.116 108.16 279.041 110.97 278.692 118.215C278.501 122.815 279.464 127.204 281.005 131.488C286.728 147.349 295.944 160.736 308.886 171.538C313.654 175.53 318.895 178.723 324.848 180.663C328.969 181.997 333.218 182.527 337.947 181.915Z" fill="#3E89FF"/>
</svg>
