<svg width="88" height="99" viewBox="0 0 88 99" fill="none" xmlns="http://www.w3.org/2000/svg">
<path d="M87.7529 45.1272C87.4771 48.8125 87.2515 52.5481 86.9255 56.2585C86.6247 59.643 86.1233 63.0275 85.0703 66.2867C83.3405 71.6267 80.4573 76.3149 76.8722 80.602C72.7857 85.4908 67.6463 88.8502 61.7046 91.0815C57.3674 92.686 52.9299 93.9145 48.4673 95.0426C44.4811 96.0455 40.4447 96.7725 36.4084 97.5748C33.9765 98.0511 31.5698 98.5275 29.1128 98.703C27.2576 98.8534 25.4024 99.0038 23.5221 98.7782C21.6167 98.5275 19.7866 98.1013 18.0317 97.3241C17.6055 97.1235 17.1542 96.9229 16.728 96.7224C13.7947 95.4688 11.2125 93.739 8.85583 91.608C7.67752 90.5299 6.54934 89.4268 5.59666 88.1482C5.3961 87.8725 5.17046 87.6218 4.99497 87.3209C3.89186 85.3905 2.71355 83.4851 1.81101 81.4544C1.1341 79.9251 0.657764 78.3457 0.48227 76.6659C0.181423 73.8831 -0.0943531 71.1253 0.0309997 68.3174C0.181423 65.3842 0.632693 62.5011 1.33467 59.643C2.162 56.3086 3.08961 53.0244 3.96708 49.7151C4.66905 47.0325 5.37103 44.3249 5.74709 41.5421C5.97272 39.9376 6.12314 38.308 6.17329 36.7035C6.22343 34.5223 6.14822 32.3412 6.09807 30.135C6.04793 27.4524 6.12314 24.7699 6.62456 22.1124C7.7778 15.9701 10.8615 10.956 15.65 6.99486C18.9091 4.28724 22.6446 2.50723 26.7562 1.45427C31.4945 0.225811 36.3081 -0.250529 41.1467 0.125529C44.9574 0.401305 48.6929 1.17849 52.3282 2.38188C58.2699 4.36245 64.0612 6.71908 69.6018 9.62727C72.0838 10.9309 74.4153 12.4602 76.5714 14.2152C81.1844 18.0008 84.1928 22.8144 85.8726 28.5054C87.3517 33.4694 87.9785 38.5336 87.7529 43.7232C87.7278 44.1745 87.7529 44.6508 87.7529 45.1272Z" fill="#27DAB7"/>
<mask id="mask0_54_80" style="mask-type:alpha" maskUnits="userSpaceOnUse" x="0" y="0" width="88" height="99">
<path d="M87.7529 45.1272C87.4771 48.8125 87.2515 52.5481 86.9255 56.2585C86.6247 59.643 86.1233 63.0275 85.0703 66.2867C83.3405 71.6267 80.4573 76.3149 76.8722 80.602C72.7857 85.4908 67.6463 88.8502 61.7046 91.0815C57.3674 92.686 52.9299 93.9145 48.4673 95.0426C44.4811 96.0455 40.4447 96.7725 36.4084 97.5748C33.9765 98.0511 31.5698 98.5275 29.1128 98.703C27.2576 98.8534 25.4024 99.0038 23.5221 98.7782C21.6167 98.5275 19.7866 98.1013 18.0317 97.3241C17.6055 97.1235 17.1542 96.9229 16.728 96.7224C13.7947 95.4688 11.2125 93.739 8.85583 91.608C7.67752 90.5299 6.54934 89.4268 5.59666 88.1482C5.3961 87.8725 5.17046 87.6218 4.99497 87.3209C3.89186 85.3905 2.71355 83.4851 1.81101 81.4544C1.1341 79.9251 0.657764 78.3457 0.48227 76.6659C0.181423 73.8831 -0.0943531 71.1253 0.0309997 68.3174C0.181423 65.3842 0.632693 62.5011 1.33467 59.643C2.162 56.3086 3.08961 53.0244 3.96708 49.7151C4.66905 47.0325 5.37103 44.3249 5.74709 41.5421C5.97272 39.9376 6.12314 38.308 6.17329 36.7035C6.22343 34.5223 6.14822 32.3412 6.09807 30.135C6.04793 27.4524 6.12314 24.7699 6.62456 22.1124C7.7778 15.9701 10.8615 10.956 15.65 6.99486C18.9091 4.28724 22.6446 2.50723 26.7562 1.45427C31.4945 0.225811 36.3081 -0.250529 41.1467 0.125529C44.9574 0.401305 48.6929 1.17849 52.3282 2.38188C58.2699 4.36245 64.0612 6.71908 69.6018 9.62727C72.0838 10.9309 74.4153 12.4602 76.5714 14.2152C81.1844 18.0008 84.1928 22.8144 85.8726 28.5054C87.3517 33.4694 87.9785 38.5336 87.7529 43.7232C87.7278 44.1745 87.7529 44.6508 87.7529 45.1272Z" fill="black"/>
</mask>
<g mask="url(#mask0_54_80)">
<path fill-rule="evenodd" clip-rule="evenodd" d="M30.241 12.4353C29.7396 13.2124 29.539 14.0899 29.539 15.1178C29.539 15.8449 29.7396 16.622 30.1909 17.2989C30.592 17.8756 31.1185 18.2516 31.8205 18.3268C33.0239 18.4522 34.5281 17.4995 34.9543 16.3463C35.4306 15.0677 34.8039 13.1122 33.6506 12.335C33.5695 12.2809 33.4738 12.2414 33.3752 12.2007C33.2911 12.166 33.205 12.1305 33.1241 12.0843C32.9737 12.0091 32.7982 11.9088 32.723 11.7834C32.372 11.2319 31.645 11.1316 31.1436 11.4826C30.7926 11.7333 30.4667 12.0843 30.241 12.4353ZM50.3727 14.9925C49.2946 15.7447 48.9186 16.8478 48.8935 18.1013C48.8935 18.7782 49.0439 19.405 49.3197 20.0317C49.7961 20.9844 50.6735 21.4607 51.7265 21.3354C52.8045 21.21 53.6569 20.6836 54.3338 19.8813C56.1138 17.7252 54.76 15.0427 52.4034 14.5413C51.6513 14.3908 50.9994 14.5413 50.3727 14.9925ZM62.5068 29.0821C61.8048 30.11 61.4539 31.2382 61.4288 32.4667C61.4037 33.3191 61.6293 34.0963 62.1809 34.7732C62.7826 35.5253 63.5598 35.8512 64.5125 35.6757C65.3899 35.5002 66.1671 35.0991 66.819 34.4723C67.8218 33.5196 68.3232 32.3163 68.1978 30.9123C68.0474 29.3078 66.7939 28.1044 65.1894 28.0041C65.064 28.0041 64.9136 27.979 64.7882 27.9289C64.362 27.7283 64.0111 27.8286 63.635 28.0292C63.1587 28.2799 62.8077 28.656 62.5068 29.0821ZM41.6814 79.2477C41.18 80.1753 40.9794 81.1781 41.0045 82.0556C40.9794 82.933 41.0546 83.635 41.3555 84.3621C41.8067 85.2897 42.6341 85.6908 43.6369 85.415C44.2887 85.2395 44.8403 84.9387 45.2915 84.4623C46.4197 83.2589 46.9963 81.855 46.871 80.2003C46.871 80.1425 46.8599 80.0848 46.8491 80.0284C46.8317 79.938 46.815 79.8513 46.8459 79.7741C47.0966 79.0471 46.7206 78.4705 46.3194 77.944C45.442 76.7657 44.1132 76.6905 43.0603 77.7184C42.8096 77.944 42.5589 78.1696 42.3332 78.4203C42.2983 78.4591 42.2622 78.4985 42.2255 78.5385C42.0252 78.757 41.8085 78.9934 41.6814 79.2477ZM68.5488 48.7876C68.5608 48.6074 68.5714 48.4358 68.5816 48.2708V48.2707C68.6139 47.7471 68.6421 47.2896 68.6992 46.8321C68.8998 45.2526 70.1533 44.1746 71.7579 44.1996C73.4877 44.2247 74.7162 45.2777 74.8917 46.9073C75.0421 48.4867 74.5156 49.8154 73.3624 50.8935C72.7356 51.4701 71.9835 51.771 71.106 51.7459C69.8525 51.7208 68.9249 50.9687 68.6742 49.7402C68.612 49.471 68.5841 49.1676 68.5622 48.9289L68.5621 48.9277L68.5618 48.9252L68.5539 48.8402L68.5488 48.7876ZM15.0294 72.7456C15.6561 71.7679 15.9068 70.6898 15.9068 69.5115C15.8818 68.6591 15.7564 67.8067 15.255 67.1047C14.4277 65.9013 13.0237 65.6506 11.8454 66.503C11.0933 67.0295 10.642 67.7816 10.4164 68.6591C10.3544 68.9693 10.2753 69.2624 10.1932 69.5665C10.1758 69.6312 10.1582 69.6963 10.1406 69.7622C9.88991 70.7901 9.96513 71.7929 10.4415 72.7456C11.1685 74.1746 13.124 74.9769 14.6282 73.2721C14.7787 73.0966 14.904 72.9211 15.0294 72.7456ZM19.6863 84.3876C19.7365 83.46 20.0122 82.2316 20.5136 81.1034C20.7643 80.5268 21.0903 80.0504 21.8173 80.0003C21.8884 80.0003 21.972 79.95 22.0504 79.9028C22.0826 79.8834 22.114 79.8645 22.1432 79.8499C22.9204 79.5239 23.7227 79.6744 24.2742 80.3011C26.1294 82.3569 25.8537 84.9392 24.3745 86.644C23.8982 87.1955 23.3215 87.6217 22.5694 87.7471C21.6167 87.9226 20.7643 87.5967 20.2128 86.7944C19.7866 86.1676 19.6612 85.4406 19.6863 84.3876ZM12 48.4159C12 47.739 12.0752 47.0872 12.351 46.4855C12.727 45.5579 13.429 45.0816 14.4318 45.0063C16.964 44.8559 18.2676 47.4131 17.5155 49.3686C17.3902 49.6695 17.2397 49.9452 17.0643 50.1959C16.7133 50.6723 16.3372 51.1486 15.9611 51.5999C15.0837 52.6529 14.1059 52.5526 13.1783 51.5748C12.2758 50.6472 12.0251 49.5943 12 48.4159ZM64.6629 67.6406C64.7381 66.1113 65.415 64.9079 66.7688 64.1558C68.1728 63.3535 69.9277 64.2059 70.4041 65.8606C70.9556 67.7409 69.6018 69.9471 67.6714 70.298C66.9694 70.4234 66.3426 70.2479 65.766 69.7966C65.064 69.2451 64.6378 68.5682 64.6629 67.6406ZM21.366 29.3329C22.7951 29.1824 23.8731 28.0543 23.8731 26.7005C23.823 25.7227 23.4469 24.8703 22.6446 24.2185C22.419 24.043 22.1808 23.8738 21.9427 23.7045C21.7045 23.5353 21.4663 23.3661 21.2407 23.1906C20.8396 22.8897 20.4384 22.8897 20.0624 23.1404C19.7615 23.3661 19.4607 23.6419 19.2601 23.9427C18.6083 24.9706 18.4077 26.1238 18.6334 27.3022C18.8841 28.6058 20.0874 29.4833 21.366 29.3329Z" fill="#3E89FF"/>
</g>
</svg>
