<svg width="105" height="109" viewBox="0 0 105 109" fill="none" xmlns="http://www.w3.org/2000/svg">
<path d="M0 53.4868C0.360707 38.6462 5.82284 25.2486 17.3139 14.4789C21.797 10.305 26.95 7.00708 32.3606 4.17295C37.5651 1.49342 43.1818 0.256705 49.0046 0.0505866C58.1254 -0.31012 66.8339 1.23577 74.9755 5.40966C90.2798 13.2422 99.8128 25.7638 103.574 42.4594C107.748 60.8555 101.874 80.2821 88.3217 93.3707C79.8193 101.564 69.668 106.356 57.9192 107.696C38.0804 109.963 18.7568 100.327 8.09014 83.0132C2.73107 74.2017 0.103059 64.5656 0 53.4868Z" fill="#FF90E7"/>
<mask id="mask0_54_99" style="mask-type:alpha" maskUnits="userSpaceOnUse" x="0" y="0" width="105" height="109">
<path d="M0 53.4868C0.360707 38.6462 5.82284 25.2486 17.3139 14.4789C21.797 10.305 26.95 7.00708 32.3606 4.17295C37.5651 1.49342 43.1818 0.256705 49.0046 0.0505866C58.1254 -0.31012 66.8339 1.23577 74.9755 5.40966C90.2798 13.2422 99.8128 25.7638 103.574 42.4594C107.748 60.8555 101.874 80.2821 88.3217 93.3707C79.8193 101.564 69.668 106.356 57.9192 107.696C38.0804 109.963 18.7568 100.327 8.09014 83.0132C2.73107 74.2017 0.103059 64.5656 0 53.4868Z" fill="black"/>
</mask>
<g mask="url(#mask0_54_99)">
<path d="M4.98863 91.9544C4.62792 92.1605 4.31874 92.3666 3.95804 92.5727C2.41215 93.5518 0.917791 94.5309 -0.628096 95.5099C-1.04033 95.7676 -1.5041 96.0252 -1.96787 96.1283C-2.27704 96.1798 -2.74081 96.0252 -2.94693 95.8191C-3.10152 95.5614 -3.15305 95.0461 -2.99846 94.7885C-2.74081 94.3247 -2.32857 93.964 -1.91634 93.6549C0.247907 92.0059 2.41215 90.357 4.62792 88.8111C14.4185 81.9576 24.4153 75.4134 34.7212 69.3329C46.9337 62.1703 59.1977 55.0077 71.5133 48.0512C84.2927 40.7855 97.6388 34.5504 111.14 28.7276C114.18 27.3878 117.22 25.9965 120.26 24.6567C120.879 24.3991 121.445 24.0899 122.115 23.9353C124.073 23.317 125.568 23.9353 126.444 25.7389C126.908 26.7695 127.268 27.9031 127.474 29.0368C128.557 34.3443 128.763 39.6519 128.505 45.0109C127.835 58.8724 123.197 71.3425 115.468 82.7306C107.378 94.5824 96.7628 103.652 84.2411 110.505C74.3474 115.916 63.8354 119.574 52.705 121.223C46.2638 122.202 39.8226 122.46 33.3814 121.326C28.0223 120.399 23.024 118.595 18.4378 115.71C12.5635 112.051 8.38958 106.846 5.34933 100.766C4.16415 98.3956 4.00957 95.9737 4.73098 93.4487C4.83404 93.088 4.9371 92.7273 4.98863 92.3666C5.09169 92.109 5.04016 92.0574 4.98863 91.9544Z" fill="#FB421F"/>
<mask id="mask1_54_99" style="mask-type:alpha" maskUnits="userSpaceOnUse" x="-4" y="23" width="133" height="100">
<path d="M4.98863 91.9544C4.62792 92.1605 4.31874 92.3666 3.95804 92.5727C2.41215 93.5518 0.917791 94.5309 -0.628096 95.5099C-1.04033 95.7676 -1.5041 96.0252 -1.96787 96.1283C-2.27704 96.1798 -2.74081 96.0252 -2.94693 95.8191C-3.10152 95.5614 -3.15305 95.0461 -2.99846 94.7885C-2.74081 94.3247 -2.32857 93.964 -1.91634 93.6549C0.247907 92.0059 2.41215 90.357 4.62792 88.8111C14.4185 81.9576 24.4153 75.4134 34.7212 69.3329C46.9337 62.1703 59.1977 55.0077 71.5133 48.0512C84.2927 40.7855 97.6388 34.5504 111.14 28.7276C114.18 27.3878 117.22 25.9965 120.26 24.6567C120.879 24.3991 121.445 24.0899 122.115 23.9353C124.073 23.317 125.568 23.9353 126.444 25.7389C126.908 26.7695 127.268 27.9031 127.474 29.0368C128.557 34.3443 128.763 39.6519 128.505 45.0109C127.835 58.8724 123.197 71.3425 115.468 82.7306C107.378 94.5824 96.7628 103.652 84.2411 110.505C74.3474 115.916 63.8354 119.574 52.705 121.223C46.2638 122.202 39.8226 122.46 33.3814 121.326C28.0223 120.399 23.024 118.595 18.4378 115.71C12.5635 112.051 8.38958 106.846 5.34933 100.766C4.16415 98.3956 4.00957 95.9737 4.73098 93.4487C4.83404 93.088 4.9371 92.7273 4.98863 92.3666C5.09169 92.109 5.04016 92.0574 4.98863 91.9544Z" fill="#4CA96D"/>
</mask>
<g mask="url(#mask1_54_99)">
<path d="M103.678 100.533C103.832 100.018 103.987 99.4512 104.09 98.9359C104.502 96.1533 104.193 93.4222 103.935 90.6911C103.265 83.8377 101.668 77.1389 100.225 70.3885C99.1429 65.4416 98.0608 60.4948 97.8032 55.3934C97.6486 51.8378 97.597 48.2308 97.7001 44.6237C97.8547 38.4401 98.473 32.3081 99.6067 26.1761C100.277 22.6721 101.05 19.1681 102.338 15.7671C103.059 13.809 103.987 11.9024 105.326 10.2535C106.099 9.2744 107.027 8.50146 108.264 7.72852C108.161 7.98616 108.161 8.14075 108.058 8.19228C105.636 10.1504 104.296 12.8299 103.368 15.7156C102.183 19.2196 101.462 22.7752 100.946 26.4338C99.5552 35.606 99.0399 44.7783 99.4521 54.0536C99.6582 58.279 100.431 62.4014 101.307 66.5238C102.544 72.5012 103.832 78.4271 104.966 84.4561C105.687 88.3208 106.151 92.1855 106.099 96.1017C106.099 97.1323 105.996 98.1629 105.842 99.1935C105.739 99.8119 105.533 100.482 105.223 101.049C104.605 102.234 103.368 102.491 102.441 101.564C101.719 100.894 101.101 100.07 100.689 99.1935C99.7097 97.1323 98.7822 95.0196 97.9062 92.8554C95.4843 86.6203 93.6293 80.2306 91.7742 73.7894C88.9916 64.308 85.8483 54.9296 82.3443 45.7058C81.6744 43.9538 80.9014 42.3049 80.077 40.6044C79.7678 39.986 79.3556 39.3677 78.9433 38.8524C78.2219 38.0279 77.6036 38.0279 76.8821 38.8524C76.4184 39.4192 76.0061 40.0891 75.7485 40.759C74.8725 42.6656 74.4603 44.7783 74.2541 46.8395C73.6873 51.9924 73.8419 57.1454 74.0995 62.2983C74.5633 71.2645 75.8 80.1791 76.8821 89.0937C77.552 94.5559 78.1704 99.9665 78.2734 105.48C78.325 109.396 78.2734 113.313 77.449 117.177C77.2428 118.105 76.9852 119.032 76.6245 119.908C75.5424 122.433 73.4812 122.794 71.6261 120.681C70.8017 119.754 70.1833 118.672 69.5649 117.59C68.2767 115.219 67.3492 112.643 66.5762 110.015C64.7212 103.831 63.3299 97.5961 62.1447 91.258C60.2896 81.2612 58.4861 71.2645 56.7341 61.2162C56.0642 57.403 55.5489 53.5898 54.9305 49.7251C54.776 48.9007 54.5698 48.0246 54.2607 47.2002C54.1061 46.7364 53.7454 46.2726 53.5392 45.8604C52.7148 45.9635 52.251 46.4788 51.9418 46.9941C51.2719 48.1277 50.5505 49.2098 49.9837 50.395C48.1802 54.2597 47.4072 58.3821 46.995 62.556C46.2736 70.0793 46.6858 77.5511 47.4588 85.0229C48.0771 90.7942 48.747 96.5655 49.1077 102.388C49.4684 107.696 49.4684 113.003 48.2832 118.259C48.0256 119.29 47.6649 120.321 47.2526 121.3C46.9435 122.021 46.4797 122.639 45.9129 123.206C44.7792 124.34 43.3364 124.443 42.1512 123.309C41.3783 122.536 40.6053 121.66 40.1416 120.681C39.111 118.517 38.1319 116.25 37.3074 113.983C35.1947 107.954 33.8549 101.667 32.6182 95.4319C31.2785 88.5269 30.2994 81.6219 29.9387 74.6139C29.6295 69.1002 29.681 63.5866 29.5265 58.0729C29.5265 57.2484 29.4234 56.3724 29.3203 55.2903C28.5474 55.9087 28.1867 56.5786 27.826 57.1969C26.2286 60.1341 24.9403 63.2259 23.8582 66.3692C20.8695 75.1292 19.169 84.0954 19.1175 93.3707C19.066 98.0599 19.0144 102.749 18.8598 107.49C18.7568 111.148 18.3961 114.807 17.1594 118.311C16.8502 119.239 16.3864 120.115 15.9226 120.991C15.7165 121.351 15.3558 121.712 14.9951 121.97C14.3768 122.382 14.0161 122.124 13.8099 121.197C13.913 121.248 14.0676 121.248 14.1191 121.3C14.2222 121.351 14.2737 121.454 14.4283 121.557C15.0982 121.094 15.3558 120.424 15.665 119.754C16.4895 117.847 16.9532 115.838 17.1594 113.776C17.417 111.097 17.6231 108.366 17.6747 105.635C17.7777 100.482 17.7262 95.3288 17.8808 90.1758C18.0869 82.8586 19.5297 75.696 21.7455 68.688C22.9822 64.7718 24.4766 61.0101 26.3832 57.403C26.8985 56.4755 27.4653 55.548 28.1352 54.7235C28.4959 54.2597 28.9596 53.899 29.6295 54.1051C30.2479 54.3113 30.454 54.8266 30.5055 55.3934C30.6601 57.0423 30.7632 58.6913 30.8147 60.3402C30.9693 64.5141 30.9178 68.688 31.1754 72.8104C31.9999 86.4142 34.2672 99.8119 38.2865 112.849C39.0079 115.219 39.987 117.487 41.0176 119.754C41.4298 120.681 42.0481 121.506 42.7696 122.279C43.5425 123.155 44.367 123.103 45.0884 122.227C45.6037 121.557 46.1705 120.784 46.3766 120.011C46.8919 118.105 47.3557 116.198 47.6133 114.24C48.0771 110.375 48.1286 106.511 47.7679 102.646C47.1496 96.0502 46.4282 89.4544 45.8098 82.8586C45.1399 75.7476 44.9338 68.6365 45.7583 61.5254C46.222 57.4546 47.1496 53.4868 48.9016 49.7767C49.3653 48.7976 49.8806 47.8701 50.4475 46.9941C50.7566 46.4788 51.1689 45.9635 51.6326 45.5512C52.9209 44.366 54.2607 44.5206 55.0336 46.1181C55.4974 47.0971 55.8581 48.1792 56.0642 49.2614C56.7856 53.3837 57.404 57.4546 58.0738 61.5769C60.4442 76.0567 62.7115 90.5365 66.267 104.81C67.0915 108.057 68.1221 111.303 69.2558 114.498C69.8226 116.095 70.7501 117.59 71.6261 119.084C71.9868 119.651 72.5021 120.166 73.069 120.578C73.8419 121.197 74.4087 121.042 74.924 120.218C75.2332 119.651 75.5424 119.032 75.6454 118.414C76.0061 115.992 76.4184 113.622 76.573 111.2C76.8821 105.686 76.3668 100.224 75.7485 94.8135C74.7694 86.0019 73.6358 77.2419 72.7598 68.4304C72.0899 61.8861 71.8838 55.3418 72.3991 48.7976C72.6052 46.015 73.0174 43.2839 74.1511 40.759C74.5633 39.8314 75.0786 38.9039 75.7485 38.131C77.0367 36.5851 78.6857 36.6366 79.9739 38.131C80.6438 38.9039 81.2106 39.7799 81.6229 40.759C83.0657 44.1599 84.5085 47.6124 85.7968 51.0649C88.837 59.155 91.0528 67.5544 93.4747 75.8506C95.4328 82.4464 97.494 88.9907 100.174 95.3803C100.74 96.7201 101.359 98.0083 102.08 99.2451C102.389 99.8119 102.905 100.327 103.317 100.842C103.42 100.585 103.574 100.533 103.678 100.533Z" fill="black"/>
</g>
</g>
</svg>
