<svg width="88" height="99" viewBox="0 0 88 99" fill="none" xmlns="http://www.w3.org/2000/svg">
<path d="M87.7529 45.1272C87.4771 48.8125 87.2515 52.5481 86.9255 56.2585C86.6247 59.643 86.1233 63.0275 85.0703 66.2867C83.3405 71.6267 80.4573 76.3149 76.8722 80.602C72.7857 85.4908 67.6463 88.8502 61.7046 91.0815C57.3674 92.686 52.9299 93.9145 48.4673 95.0426C44.4811 96.0455 40.4447 96.7725 36.4084 97.5748C33.9765 98.0511 31.5698 98.5275 29.1128 98.703C27.2576 98.8534 25.4024 99.0038 23.5221 98.7782C21.6167 98.5275 19.7866 98.1013 18.0317 97.3241C17.6055 97.1235 17.1542 96.9229 16.728 96.7224C13.7947 95.4688 11.2125 93.739 8.85583 91.608C7.67752 90.5299 6.54934 89.4268 5.59666 88.1482C5.3961 87.8725 5.17046 87.6218 4.99497 87.3209C3.89186 85.3905 2.71355 83.4851 1.81101 81.4544C1.1341 79.9251 0.657764 78.3457 0.48227 76.6659C0.181423 73.8831 -0.0943531 71.1253 0.0309997 68.3174C0.181423 65.3842 0.632693 62.5011 1.33467 59.643C2.162 56.3086 3.08961 53.0244 3.96708 49.7151C4.66905 47.0325 5.37103 44.3249 5.74709 41.5421C5.97272 39.9376 6.12314 38.308 6.17329 36.7035C6.22343 34.5223 6.14822 32.3412 6.09807 30.135C6.04793 27.4524 6.12314 24.7699 6.62456 22.1124C7.7778 15.9701 10.8615 10.956 15.65 6.99486C18.9091 4.28724 22.6446 2.50723 26.7562 1.45427C31.4945 0.225811 36.3081 -0.250529 41.1467 0.125529C44.9574 0.401305 48.6929 1.17849 52.3282 2.38188C58.2699 4.36245 64.0612 6.71908 69.6018 9.62727C72.0838 10.9309 74.4153 12.4602 76.5714 14.2152C81.1844 18.0008 84.1928 22.8144 85.8726 28.5054C87.3517 33.4694 87.9785 38.5336 87.7529 43.7232C87.7278 44.1745 87.7529 44.6508 87.7529 45.1272Z" fill="#3E89FF"/>
<mask id="mask0_54_106" style="mask-type:alpha" maskUnits="userSpaceOnUse" x="0" y="0" width="88" height="99">
<path d="M87.7529 45.1272C87.4771 48.8125 87.2515 52.5481 86.9255 56.2585C86.6247 59.643 86.1233 63.0275 85.0703 66.2867C83.3405 71.6267 80.4573 76.3149 76.8722 80.602C72.7857 85.4908 67.6463 88.8502 61.7046 91.0815C57.3674 92.686 52.9299 93.9145 48.4673 95.0426C44.4811 96.0455 40.4447 96.7725 36.4084 97.5748C33.9765 98.0511 31.5698 98.5275 29.1128 98.703C27.2576 98.8534 25.4024 99.0038 23.5221 98.7782C21.6167 98.5275 19.7866 98.1013 18.0317 97.3241C17.6055 97.1235 17.1542 96.9229 16.728 96.7224C13.7947 95.4688 11.2125 93.739 8.85583 91.608C7.67752 90.5299 6.54934 89.4268 5.59666 88.1482C5.3961 87.8725 5.17046 87.6218 4.99497 87.3209C3.89186 85.3905 2.71355 83.4851 1.81101 81.4544C1.1341 79.9251 0.657764 78.3457 0.48227 76.6659C0.181423 73.8831 -0.0943531 71.1253 0.0309997 68.3174C0.181423 65.3842 0.632693 62.5011 1.33467 59.643C2.162 56.3086 3.08961 53.0244 3.96708 49.7151C4.66905 47.0325 5.37103 44.3249 5.74709 41.5421C5.97272 39.9376 6.12314 38.308 6.17329 36.7035C6.22343 34.5223 6.14822 32.3412 6.09807 30.135C6.04793 27.4524 6.12314 24.7699 6.62456 22.1124C7.7778 15.9701 10.8615 10.956 15.65 6.99486C18.9091 4.28724 22.6446 2.50723 26.7562 1.45427C31.4945 0.225811 36.3081 -0.250529 41.1467 0.125529C44.9574 0.401305 48.6929 1.17849 52.3282 2.38188C58.2699 4.36245 64.0612 6.71908 69.6018 9.62727C72.0838 10.9309 74.4153 12.4602 76.5714 14.2152C81.1844 18.0008 84.1928 22.8144 85.8726 28.5054C87.3517 33.4694 87.9785 38.5336 87.7529 43.7232C87.7278 44.1745 87.7529 44.6508 87.7529 45.1272Z" fill="#3E89FF"/>
</mask>
<g mask="url(#mask0_54_106)">
<path d="M8.44182 91.008C8.46229 91.3225 8.49437 91.4419 8.47226 91.5502C8.17867 97.415 9.37143 103.047 11.1175 108.594C13.2274 115.401 15.9889 121.917 18.9677 128.337C21.2046 133.138 23.6045 137.831 26.1564 142.471C28.5469 146.795 31.0352 151.055 33.8386 155.154C36.4153 158.98 39.4165 162.386 43.1904 165.046C50.9439 170.464 59.2785 171.375 68.0527 167.917C75.7845 164.867 81.5737 159.447 85.7105 152.306C91.3208 142.645 92.4448 132.295 89.8189 121.518C89.0182 118.251 87.8157 115.156 86.2551 112.158C86.1688 112.027 86.0826 111.897 85.9317 111.668C85.5834 111.992 85.2352 112.316 84.9196 112.619C78.4119 118.796 71.0855 123.593 62.6058 126.574C56.8622 128.591 50.971 129.533 44.8906 128.913C39.3088 128.339 34.1762 126.53 29.7445 122.946C26.2856 120.124 23.7835 116.623 22.8573 112.174C21.7176 106.835 23.1025 101.983 26.3717 97.7126C27.4506 96.2964 28.7782 95.0437 30.0196 93.6606C29.9654 93.6495 29.7813 93.5838 29.6188 93.5506C26.1176 93.2878 23.8368 91.4683 22.7437 88.1137C22.2295 86.4853 22.0624 84.8148 22.1231 83.1344C22.2091 80.5 22.7937 77.9108 23.6382 75.4311C25.579 69.7894 28.6232 64.8243 32.3816 60.2305C37.7633 53.6263 44.2031 48.1971 51.6678 44.1055C55.1666 42.1673 58.8915 40.6419 62.7342 39.5073C63.0383 39.4001 63.3096 39.3144 63.6026 39.2613C63.6573 39.1314 63.701 39.0556 63.6905 38.9689C64.4422 32.3793 64.3047 25.8623 62.5729 19.415C61.4715 15.4098 59.7725 11.7059 57.1936 8.44318C52.3703 2.3527 46.0714 -0.653252 38.3078 -0.62886C35.879 -0.616504 33.4922 -0.257019 31.1801 0.428037C30.9739 0.470616 30.7567 0.567368 30.5395 0.664118C30.5605 0.837683 30.5273 1.0002 30.581 1.1522C32.1553 9.06263 32.157 17.0755 31.2373 25.0414C30.2734 33.2239 28.2913 41.1424 25.0743 48.7525C23.3456 52.8011 21.2272 56.6855 18.4167 60.0902C16.6629 62.1869 14.6825 64.0117 12.2809 65.4121C11.0964 66.1015 9.78252 66.5952 8.43711 66.8286C4.96527 67.3899 2.17262 66.1431 -0.0181811 63.4674C-1.64788 61.4986 -2.56067 59.1964 -3.24518 56.7433C-4.3881 52.25 -4.44651 47.6958 -3.85431 43.1333C-2.83786 35.3846 -0.110555 28.2388 3.77536 21.4987C6.78804 16.2732 10.5359 11.5927 15.0511 7.57653C18.761 4.3271 22.8263 1.68624 27.4196 -0.0851732C27.7236 -0.192433 27.9735 -0.310743 28.3101 -0.439563C28.2786 -0.699911 28.236 -0.906091 28.1934 -1.11227C27.1893 -5.04121 25.6965 -8.7877 23.3238 -12.093C17.9957 -19.4432 10.7764 -22.778 1.74103 -21.9127C-3.06408 -21.4541 -7.35445 -19.508 -11.2899 -16.8125C-14.3774 -14.6775 -17.0653 -12.1506 -19.4834 -9.28653C-19.6686 -9.07038 -19.8537 -8.85424 -19.9847 -8.62705C-19.2738 -7.40992 -18.5518 -6.24697 -17.8624 -5.06246C-15.0943 -0.237637 -13.0973 4.90951 -11.7736 10.3143C-9.8416 18.2695 -9.22186 26.2955 -10.4025 34.4339C-10.9925 38.4326 -12.0374 42.3103 -13.8839 45.9681C-15.0854 48.2621 -16.5357 50.3926 -18.6018 51.946C-19.4066 52.5718 -20.3086 53.1213 -21.2643 53.5188C-24.3702 54.7755 -27.5221 53.9068 -29.9191 51.2736C-31.7223 49.3259 -32.7976 46.9905 -33.6447 44.5043C-33.8592 43.8963 -34.1826 43.4071 -34.658 42.9716C-38.5906 39.2916 -41.7511 35.0074 -44.3025 30.2268C-48.6302 22.1215 -50.8955 13.4494 -51.0554 4.27578C-51.1254 -0.0832877 -50.6537 -4.33184 -49.3473 -8.52298C-48.425 -11.5229 -47.113 -14.3587 -44.9679 -16.7141C-41.8429 -20.1393 -38.0544 -21.2849 -33.5813 -19.9774C-30.6245 -19.1203 -28.1265 -17.3976 -25.8357 -15.3504C-24.2906 -13.9349 -22.8544 -12.4005 -21.6139 -10.7368C-21.3872 -10.4649 -21.1821 -10.2255 -20.9123 -9.88837C-20.6294 -10.1692 -20.4116 -10.4069 -20.1612 -10.6662C-17.4712 -13.7569 -14.4461 -16.5535 -11.0004 -18.7847C-6.57634 -21.6628 -1.76581 -23.5309 3.56942 -23.6839C13.4373 -23.9279 20.8805 -19.6164 26.0313 -11.2586C27.7661 -8.42194 28.9686 -5.32713 29.8345 -2.1035C29.9091 -1.77793 30.0379 -1.4413 30.1557 -1.05051C30.5139 -1.14672 30.8395 -1.22137 31.165 -1.29602C36.3421 -2.60979 41.5037 -2.74176 46.5937 -1.13917C52.6692 0.749128 57.1867 4.60481 60.4949 9.96301C63.7925 15.2344 65.2882 21.0411 65.8392 27.191C66.1402 30.6944 66.0725 34.2072 65.7555 37.6973C65.7434 38.0334 65.6986 38.3911 65.6754 38.7813C66.0878 38.6962 66.4349 38.6541 66.7605 38.5795C71.1549 37.7831 75.5797 37.5291 80.0112 38.3485C91.8648 40.5409 99.656 47.4343 103.201 58.9629C104.946 64.6512 105.086 70.4635 104.337 76.3482C103.209 85.0615 99.9255 92.9966 95.1591 100.319C92.9887 103.628 90.5805 106.72 87.9021 109.616C87.7495 109.81 87.5754 109.972 87.3577 110.21C87.8956 111.307 88.4661 112.383 88.9499 113.469C95.7677 128.176 94.5371 146.518 82.7428 159.939C78.3322 164.964 72.9939 168.728 66.5566 170.687C56.689 173.696 47.7838 171.71 39.8833 165.076C37.2785 162.909 35.0656 160.341 33.1572 157.526C30.4943 153.569 28.038 149.428 25.7338 145.234C22.3095 139.062 19.1787 132.696 16.4387 126.213C13.6019 119.512 11.0581 112.758 9.37219 105.671C8.31605 101.167 7.748 96.6219 8.15612 91.9936C8.16771 91.7984 8.19035 91.5491 8.20194 91.354C8.24561 91.2783 8.27822 91.2567 8.44182 91.008ZM41.8924 88.0137C42.359 87.9396 42.6409 87.9407 42.8796 87.8766C46.4388 87.1638 49.9958 87.0148 53.6159 87.3865C61.0616 88.2283 67.7519 90.9756 73.8398 95.2927C78.5977 98.6614 82.5503 102.797 85.7412 107.623C85.9137 107.884 86.1403 108.156 86.3559 108.482C86.6063 108.223 86.813 108.039 86.9871 107.877C88.349 106.18 89.8408 104.538 91.1269 102.797C96.5113 95.4882 100.305 87.4032 101.89 78.3881C102.898 72.7537 102.985 67.0725 101.706 61.451C100.607 56.6001 98.5641 52.2334 95.2279 48.5341C91.5677 44.4865 87.0343 41.9535 81.7698 40.6539C76.451 39.3432 71.1047 39.5503 65.7983 40.6684C65.6789 40.7005 65.5811 40.7652 65.4832 40.8299C65.4396 40.9056 65.3959 40.9813 65.3849 41.0355C65.3517 41.198 65.3075 41.4147 65.2743 41.5772C63.6285 52.2727 60.0121 62.2558 54.7063 71.6687C51.8241 76.8079 48.4228 81.5874 44.2647 85.7892C43.5357 86.4587 42.774 87.1497 41.8924 88.0137ZM85.0056 109.984C84.7795 109.571 84.5965 109.224 84.3699 108.952C83.2267 107.364 82.0945 105.723 80.8534 104.2C75.5 97.8037 68.8383 93.2567 60.9109 90.765C52.2689 88.0427 43.779 88.0318 35.5007 92.2396C31.7851 94.1336 28.7501 96.7025 26.5355 100.229C22.8043 106.21 23.2117 113.065 27.5817 118.611C29.8693 121.504 32.7454 123.586 36.0793 125.085C40.0626 126.856 44.2559 127.599 48.5824 127.551C55.6848 127.448 62.2851 125.38 68.6079 122.184C73.5184 119.688 77.9651 116.56 82.0237 112.846C83.0031 111.917 83.961 110.956 85.0056 109.984ZM28.7591 1.23195C28.4009 1.32816 28.2273 1.34917 28.0427 1.42436C24.6765 2.71257 21.5685 4.53306 18.6976 6.71227C14.9241 9.58195 11.6366 12.974 8.82445 16.8015C2.85142 24.9215 -1.03211 33.8627 -2.31758 43.8982C-2.80923 47.6912 -2.76968 51.508 -2.01431 55.2734C-1.51387 57.6607 -0.730975 59.9082 0.659934 61.9411C2.88118 65.1591 6.10828 66.2124 9.76745 64.8711C12.0912 63.991 14.0053 62.4912 15.6927 60.7194C18.4905 57.7918 20.5421 54.3733 22.2692 50.7476C25.0784 44.86 26.9346 38.665 28.1734 32.3159C29.8548 23.659 30.4306 14.8894 29.4344 6.08126C29.3104 4.47605 29.0129 2.89187 28.7591 1.23195ZM63.2805 41.2551C62.9549 41.3298 62.662 41.3828 62.4232 41.447C58.9387 42.4853 55.583 43.8603 52.3777 45.6046C44.9892 49.5988 38.7341 54.9528 33.4828 61.4709C29.9964 65.8379 27.0831 70.5759 25.2412 75.8709C24.3421 78.4806 23.7354 81.1781 23.7356 83.943C23.7086 85.3199 23.9094 86.6869 24.4031 88.0008C25.401 90.7153 27.5641 92.144 30.4274 91.9381C31.3494 91.8441 32.315 91.6743 33.1729 91.3415C35.5182 90.4939 37.6374 89.2335 39.5625 87.6795C42.2924 85.4998 44.6658 82.9933 46.7799 80.2366C55.4545 68.8308 60.8059 56.0135 63.2236 41.9488C63.2568 41.7863 63.2468 41.5586 63.2805 41.2551ZM-31.4595 45.8247C-30.5036 48.1921 -29.2542 50.3654 -26.9607 51.7079C-25.1757 52.7773 -23.2997 52.7086 -21.4856 51.8373C-20.9207 51.5576 -20.3121 51.2021 -19.8119 50.8245C-18.1808 49.6056 -16.982 48.0163 -15.9778 46.2745C-14.3512 43.4182 -13.3311 40.3536 -12.6465 37.136C-11.4093 31.2097 -11.2887 25.225 -11.9813 19.2154C-12.9255 10.9821 -15.1725 3.18838 -19.2215 -4.07015C-19.8247 -5.12421 -20.4604 -6.15672 -21.0962 -7.18923C-21.2266 -7.10298 -21.3134 -7.09248 -21.346 -7.07092C-21.6075 -6.75748 -21.8689 -6.44404 -22.0762 -6.11956C-30.0566 5.20217 -34.0951 17.8076 -34.1592 31.6753C-34.1738 35.4811 -33.6788 39.2779 -32.5979 42.9686C-32.4265 43.5114 -32.1572 43.9895 -31.6923 44.3383C-30.7194 45.101 -29.7576 45.9179 -28.7957 46.7348C-28.6011 46.8874 -28.4933 47.0504 -28.2987 47.203C-29.5673 47.1981 -30.3772 46.3276 -31.4595 45.8247ZM-22.0454 -8.48316C-22.1532 -8.64622 -22.2068 -8.79822 -22.2931 -8.92867C-24.5043 -11.9189 -26.9986 -14.6284 -30.081 -16.6678C-31.7465 -17.7693 -33.5326 -18.5569 -35.4938 -18.9005C-38.387 -19.3779 -40.9163 -18.5961 -43.125 -16.6203C-44.7135 -15.1952 -45.8587 -13.4539 -46.7551 -11.549C-48.034 -8.87575 -48.7822 -6.03781 -49.1838 -3.10096C-50.1639 3.63948 -49.604 10.2991 -47.9595 16.8978C-45.7704 25.6672 -41.843 33.5216 -35.8295 40.2781C-35.484 40.6589 -35.1385 41.0397 -34.7604 41.399C-36.4719 32.5013 -35.853 23.797 -33.5862 15.1748C-31.3411 6.52006 -27.5265 -1.39136 -22.0454 -8.48316Z" fill="black"/>
</g>
</svg>
