<svg width="209" height="320" viewBox="0 0 209 320" fill="none" xmlns="http://www.w3.org/2000/svg">
<path d="M-19.2826 103.143C-18.8717 101.709 -18.4607 100.275 -18.1295 99.0559C-15.1115 86.9979 -10.6722 75.7124 -5.08095 64.611C-0.102716 54.5021 7.18493 46.7161 17.8968 42.5217C21.1999 41.1869 24.8521 40.2259 28.3449 39.6937C36.8562 38.4644 42.2104 42.7735 42.5696 51.3275C42.7155 55.5309 42.2058 59.8568 41.4142 63.9558C39.739 72.7298 36.8446 81.1726 33.3068 89.3763C31.4183 93.7998 29.677 98.1559 28.2847 102.886C29.1796 102.12 30.2888 101.434 31.1836 100.669C40.2665 93.3059 49.5514 86.3844 59.7368 80.6519C72.8761 73.2107 86.9145 71.2292 101.632 72.6732C103.869 72.8944 105.946 73.5445 107.943 74.409C114.86 77.4684 117.395 83.7804 114.336 90.6974C113.085 93.4054 111.405 95.954 109.591 98.2084C105.656 103.213 100.526 107.164 95.4086 110.753C87.325 116.413 79.174 121.926 70.355 127.922C71.9481 127.904 72.6712 127.929 73.3269 127.806C82.8004 125.958 92.1145 124.539 101.796 125.087C109.24 125.414 116.526 126.17 123.443 129.229C127.37 130.811 131.138 132.822 134.599 135.329C146.809 144.505 145.45 160.963 132.096 168.325C126.041 171.809 119.393 173.609 112.689 174.9C107.511 176.026 102.345 176.791 96.2298 177.812C98.2271 178.677 99.3667 179.223 100.586 179.554C114.23 184.87 125.22 193.715 134.022 205.163C136.307 208.209 137.709 211.659 138.229 215.514C139.146 222.567 136.044 228.614 129.371 231.136C125.853 232.391 122.213 232.991 118.439 233.296C115.681 233.492 112.722 233.246 109.989 232.718C92.9925 230.183 76.0878 227.071 59.7781 221.375C59.3492 221.215 58.7733 221.123 57.554 220.792C58.6688 222.061 59.4345 222.955 60.1328 223.703C66.3627 229.924 72.0717 236.562 76.8858 243.965C80.0462 248.923 82.7654 254.083 83.7994 259.837C84.0318 261.51 84.2642 263.183 84.135 264.843C83.7162 272.864 78.0408 277.954 70.0201 277.535C64.7444 277.283 59.8921 275.235 55.4933 272.623C46.9775 267.627 38.7682 262.135 31.3864 255.73C22.1117 247.522 13.8913 238.121 6.11206 228.517C1.04641 222.118 -3.72508 215.585 -8.79072 209.187C-11.4246 205.767 -13.9114 202.28 -16.772 199.142C-20.8149 194.588 -24.1897 189.55 -26.6024 183.894C-27.9373 180.591 -28.5009 180.137 -31.8589 180.964C-36.6754 182.102 -41.3572 183.535 -45.8368 185.408C-50.2368 187.068 -54.5144 189.383 -58.9267 191.404C-65.8393 194.57 -69.2153 193.803 -74.2259 187.913C-75.6226 186.417 -76.9395 184.708 -78.1891 183.145C-82.489 177.641 -81.8198 172.886 -75.8997 169.107C-71.2359 166.082 -66.5047 163.203 -61.5715 160.766C-56.6382 158.328 -51.4232 156.118 -46.2879 154.122C-44.1614 153.326 -43.3216 152.051 -43.2475 149.882C-42.8286 141.862 -44.0826 134.073 -45.9923 126.407C-48.7159 115.022 -51.8807 103.838 -54.537 92.5999C-55.8651 86.9807 -56.6049 81.092 -57.0629 75.4301C-57.3133 72.1641 -56.9753 68.6287 -56.0737 65.5469C-53.7923 58.0965 -45.6728 55.6232 -39.4608 60.2512C-37.4882 61.8387 -35.528 63.7878 -34.3705 65.9265C-27.8723 77.0067 -22.1095 88.4237 -20.4525 101.365C-20.3974 101.874 -20.1954 102.315 -19.9933 102.756C-19.9933 102.756 -19.8462 102.689 -19.2826 103.143Z" fill="#27DAB7"/>
<path d="M190.333 81.8677C195.722 83.0053 199.759 85.3326 202.699 89.4365C205.948 93.9339 206.261 98.5742 203.831 103.409C201.35 108.437 197.954 113.013 193.914 116.897C185.862 124.57 177.738 132.121 169.614 139.671C166.831 142.34 163.977 144.887 161.123 147.433C150.468 157.099 139.433 166.248 127.754 174.707C119.535 180.678 110.936 186.133 101.796 190.511C95.1237 193.792 88.2904 196.511 81.0841 198.302C76.9689 199.371 72.7638 200.001 68.5721 199.806C57.3297 199.27 50.5928 190.004 53.3866 179.158C54.6062 174.204 57.2228 169.834 60.2706 165.786C64.2592 160.542 68.9879 156.014 73.9547 151.757C89.7376 138.395 106.164 125.725 123.517 114.235C134.719 106.787 145.875 99.1199 157.244 91.8205C161.753 88.8903 166.448 86.4245 171.17 83.8621C177.456 80.4777 183.966 79.7422 190.333 81.8677Z" fill="#FB421F"/>
<mask id="mask0_45_41" style="mask-type:alpha" maskUnits="userSpaceOnUse" x="52" y="80" width="154" height="120">
<path d="M190.333 81.8677C195.722 83.0053 199.759 85.3326 202.699 89.4365C205.948 93.9339 206.261 98.5742 203.831 103.409C201.35 108.437 197.954 113.013 193.914 116.897C185.862 124.57 177.738 132.121 169.614 139.671C166.831 142.34 163.977 144.887 161.123 147.433C150.468 157.099 139.433 166.248 127.754 174.707C119.535 180.678 110.936 186.133 101.796 190.511C95.1237 193.792 88.2904 196.511 81.0841 198.302C76.9689 199.371 72.7638 200.001 68.5721 199.806C57.3297 199.27 50.5928 190.004 53.3866 179.158C54.6062 174.204 57.2228 169.834 60.2706 165.786C64.2592 160.542 68.9879 156.014 73.9547 151.757C89.7376 138.395 106.164 125.725 123.517 114.235C134.719 106.787 145.875 99.1199 157.244 91.8205C161.753 88.8903 166.448 86.4245 171.17 83.8621C177.456 80.4777 183.966 79.7422 190.333 81.8677Z" fill="#4CA96D"/>
</mask>
<g mask="url(#mask0_45_41)">
<path d="M172.697 165.805C171.211 165.771 169.653 165.923 168.274 165.609C161.754 164.179 155.068 162.901 148.655 161.191C130.737 156.248 112.762 151.175 94.4 147.668C80.6198 145.061 66.8473 142.993 52.8178 142.432C51.0157 142.384 49.2711 142.465 47.5266 142.545C46.543 142.597 45.5454 142.964 45.3383 144.062C45.0596 145.348 45.8859 145.986 46.9129 146.38C50.8345 147.884 54.8494 149.423 58.8783 150.647C71.6764 154.698 84.4744 158.749 96.7213 164.517C105.528 168.643 114.226 173.05 122.201 178.786C123.796 179.933 125.32 181.267 126.75 182.565C126.678 182.752 126.607 182.938 126.571 183.032C126.032 183.04 125.401 183.011 124.898 182.926C119.045 181.431 113.286 179.972 107.504 178.291C86.7495 172.367 65.7018 168.044 44.0623 167.778C36.6888 167.735 29.2795 167.785 22.1159 169.429C10.1574 172.126 -0.103655 177.938 -8.53807 186.806C-13.8814 192.361 -14.6214 199.038 -11.9938 206.151C-12.0591 205.483 -12.1244 204.816 -12.0963 204.184C-12.1271 202.03 -12.3805 199.898 -12.1889 197.722C-11.8975 194.728 -10.5432 192.034 -8.51355 189.814C-6.35475 187.536 -4.19595 185.258 -1.67772 183.439C7.95013 176.207 18.5643 171.709 30.8338 171.273C46.0539 170.684 61.0388 171.825 75.896 174.416C86.6385 176.287 97.1163 179.127 107.63 181.873C112.571 183.232 117.583 184.405 122.502 185.542C123.881 185.856 125.332 185.984 126.818 186.018C127.988 186.039 129.137 185.837 129.602 184.623C130.161 183.445 129.571 182.469 128.723 181.608C127.782 180.712 126.84 179.815 125.827 179.105C119.296 174.352 112.257 170.367 105.145 166.569C95.3756 161.323 85.2123 157.104 74.8342 153.446C67.8532 150.983 60.8581 148.836 53.9347 146.502C53.0944 146.18 52.3474 145.894 51.1336 145.428C52.4611 144.759 53.5598 144.966 54.5651 145.137C63.6052 146.141 72.6811 147.051 81.7072 148.37C99.8168 151.138 117.634 155.507 135.236 160.436C143.552 162.769 151.94 164.914 160.328 167.06C162.769 167.675 165.319 168.01 167.868 168.345C169.095 168.494 170.266 168.515 171.436 168.535C172.958 168.476 174.587 168.137 175.29 166.585C175.992 165.034 175.172 163.541 174.208 162.422C173.094 161.138 171.887 159.818 170.514 158.65C167.885 156.57 165.255 154.491 162.46 152.562C152.725 145.83 142.374 140.147 131.714 134.988C120.25 129.414 108.428 124.773 96.5698 120.226C92.1814 118.543 87.8288 116.767 83.347 115.048C81.9465 114.511 80.6175 113.787 79.2886 113.063C79.3602 112.877 79.396 112.783 79.4676 112.596C80.5445 112.581 81.7148 112.601 82.7201 112.773C90.1666 114.022 97.5913 115.048 104.895 116.671C115.365 118.972 125.727 121.554 136.148 124.265C141.591 125.71 147.021 127.47 152.414 129.325C163.855 133.283 175.225 137.429 186.644 141.166C192.074 142.926 197.589 144.185 203.104 145.443C204.856 145.901 206.787 145.891 208.604 145.624C212.2 145.182 213.554 142.489 211.857 139.375C210.829 137.588 209.506 136.01 208.054 134.489C203.476 129.949 198.189 126.422 192.772 122.952C180.796 115.361 167.953 109.472 154.623 104.574C147.771 102.054 140.919 99.5334 134.196 96.9554C132.329 96.2393 130.627 95.3723 128.831 94.4694C128.809 94.2469 128.881 94.0601 128.859 93.8376C129.878 93.693 130.804 93.5126 131.788 93.4614C137.302 93.3267 142.773 94.1397 148.173 95.1395C166.104 98.3741 183.018 104.539 199.775 111.393C211.432 116.185 223.218 120.919 235.019 125.337C243.551 128.502 252.406 130.827 261.639 131.047C265.337 131.18 268.955 130.961 272.58 129.888C274.762 129.225 276.735 128.268 278.061 126.206C278.95 124.726 278.921 123.965 277.526 122.574C277.523 126.214 275.068 127.308 272.255 127.942C267.424 129.089 262.592 128.842 257.68 128.244C251.634 127.532 245.724 125.908 239.979 124.133C226.807 119.939 214.266 114.38 201.524 109.065C184.372 101.845 166.991 95.5014 148.472 92.6838C143.317 91.8848 138.169 91.6242 132.963 91.2345C131.29 91.1285 129.567 91.4317 128.031 91.8066C125.885 92.3759 125.578 94.2932 127.36 95.5119C128.898 96.5299 130.507 97.3611 132.281 98.0414C139.693 100.777 147.14 103.419 154.517 106.247C167.531 111.131 180.13 116.819 191.897 124.116C196.825 127.184 201.682 130.439 205.864 134.613C207.352 136.04 208.639 137.712 209.667 139.499C211.055 141.745 210.202 143.131 207.582 142.983C204.738 142.856 201.78 142.472 199.094 141.656C190.72 139.194 182.454 136.453 174.187 133.711C164.427 130.397 154.774 126.802 144.942 123.674C132.833 119.781 120.496 116.763 107.944 114.306C100.289 112.763 92.5262 111.499 84.7638 110.236C83.0691 109.908 81.2312 109.953 79.5224 109.94C78.6681 109.934 77.7779 110.021 76.9094 110.33C75.3018 110.892 75.0448 112.4 76.2305 113.497C77.021 114.229 78.0698 114.845 79.0969 115.239C85.2235 117.695 91.1852 120.303 97.3834 122.573C112.897 128.201 127.995 134.633 142.627 142.279C151.103 146.708 159.436 151.51 166.952 157.605C168.662 159.01 170.265 160.696 171.81 162.252C172.507 162.948 172.781 163.91 173.278 164.85C172.969 165.374 172.898 165.561 172.697 165.805Z" fill="black"/>
</g>
</svg>
