<svg width="194" height="251" viewBox="0 0 194 251" fill="none" xmlns="http://www.w3.org/2000/svg">
<path d="M63.6961 129.104C64.3667 117.537 64.9534 105.97 65.7916 94.403C66.6298 83.5067 68.809 72.9457 73.419 62.8876C78.1128 52.6618 84.9858 44.1124 93.5352 36.8203C110.55 22.236 129.996 12.1779 151.705 6.56208C165.535 3.04174 179.532 0.694845 193.781 0.275757C213.897 -0.394785 233.259 3.20938 251.448 12.1779C269.636 21.1464 282.209 35.2277 289.166 54.1705C293.189 65.1506 296.458 76.2984 298.386 87.8652C300.23 98.8454 299.727 109.825 297.296 120.638C293.524 137.234 287.238 152.992 279.191 167.995C274.162 177.383 268.63 186.519 261.757 194.733C256.561 200.935 250.777 206.467 244.407 211.413C234.349 219.291 223.201 225.494 211.97 231.445C201.325 237.061 190.345 241.838 178.694 244.856C171.15 246.784 163.607 248.46 155.979 249.969C148.352 251.477 140.892 250.974 133.265 249.214C123.458 246.951 114.406 243.179 106.024 237.731C94.9601 230.439 86.4107 220.716 79.9568 209.233C76.1012 202.276 72.9999 195.068 70.7368 187.441C70.3177 186.183 69.9825 184.842 69.3957 183.669C64.1152 172.605 62.3551 160.787 62.7741 148.633C62.9418 142.095 63.2771 135.641 63.6961 129.104C63.6123 129.104 63.6123 129.104 63.6961 129.104Z" fill="#FF90E7"/>
<mask id="mask0_45_31" style="mask-type:alpha" maskUnits="userSpaceOnUse" x="62" y="0" width="238" height="251">
<path d="M63.6961 129.104C64.3667 117.537 64.9534 105.97 65.7916 94.403C66.6298 83.5067 68.809 72.9457 73.419 62.8876C78.1128 52.6618 84.9858 44.1124 93.5352 36.8203C110.55 22.236 129.996 12.1779 151.705 6.56208C165.535 3.04174 179.532 0.694845 193.781 0.275757C213.897 -0.394785 233.259 3.20938 251.448 12.1779C269.636 21.1464 282.209 35.2277 289.166 54.1705C293.189 65.1506 296.458 76.2984 298.386 87.8652C300.23 98.8454 299.727 109.825 297.296 120.638C293.524 137.234 287.238 152.992 279.191 167.995C274.162 177.383 268.63 186.519 261.757 194.733C256.561 200.935 250.777 206.467 244.407 211.413C234.349 219.291 223.201 225.494 211.97 231.445C201.325 237.061 190.345 241.838 178.694 244.856C171.15 246.784 163.607 248.46 155.979 249.969C148.352 251.477 140.892 250.974 133.265 249.214C123.458 246.951 114.406 243.179 106.024 237.731C94.9601 230.439 86.4107 220.716 79.9568 209.233C76.1012 202.276 72.9999 195.068 70.7368 187.441C70.3177 186.183 69.9825 184.842 69.3957 183.669C64.1152 172.605 62.3551 160.787 62.7741 148.633C62.9418 142.095 63.2771 135.641 63.6961 129.104C63.6123 129.104 63.6123 129.104 63.6961 129.104Z" fill="black"/>
</mask>
<g mask="url(#mask0_45_31)">
<path fill-rule="evenodd" clip-rule="evenodd" d="M154.194 39.8669L154.194 39.8682C154.12 40.4154 154.046 40.9647 153.968 41.514C154.01 41.8984 154.042 42.2936 154.074 42.6914C154.168 43.8551 154.263 45.0408 154.638 46.0402C155.393 48.4709 157.656 49.3091 159.919 48.0518C160.925 47.5489 161.847 46.7946 162.601 45.9564C165.87 42.5199 168.217 38.4966 169.642 33.9705C170.396 31.7074 170.647 29.3605 170.312 27.0136C170.228 26.343 170.061 25.5887 169.809 24.9181C168.72 22.236 166.205 21.2302 163.607 22.6551C162.685 23.0742 161.93 23.7447 161.176 24.4152C158.159 27.265 156.063 30.6177 155.057 34.641C154.672 36.3097 154.435 38.0768 154.194 39.8669ZM206.857 62.3008C207.443 56.3498 209.371 50.9854 212.808 46.2078C213.814 44.8668 214.819 43.5257 215.993 42.3522C216.999 41.3464 218.172 40.2568 219.429 39.6701C222.028 38.329 224.71 39.5024 225.548 42.1846C225.967 43.4419 226.135 44.8668 225.967 46.124C225.045 53.7514 221.86 60.373 216.663 65.9888C216.077 66.5755 215.406 67.1623 214.652 67.5813C211.467 69.5092 208.03 68.0843 207.192 64.4801C207.11 64.1134 207.069 63.7467 207.028 63.3896C206.985 63.0121 206.943 62.6454 206.857 62.3008ZM188.584 201.606C188.501 198.337 189.171 195.32 190.847 192.554C192.021 190.542 193.362 188.614 194.871 186.77C195.625 185.848 196.631 185.094 197.637 184.423C199.984 183.082 202.247 183.669 203.839 185.764C205.013 187.441 205.599 189.368 205.767 191.38C206.27 198.253 204.342 204.372 200.151 209.736C199.313 210.826 198.056 211.832 196.799 212.502C194.2 213.927 191.686 213.005 190.596 210.239C190.009 208.647 189.506 207.054 189.171 205.461C188.739 204.453 188.678 203.321 188.616 202.171L188.616 202.171C188.606 201.983 188.596 201.794 188.584 201.606ZM236.696 78.9806C232.337 85.0154 229.655 91.7208 229.487 99.2644C229.487 99.5997 229.487 99.8512 229.404 100.019C229.32 102.533 230.493 103.707 233.008 103.539C234.684 103.455 236.109 102.869 237.45 101.863C243.066 97.5881 246.502 91.9723 247.76 85.0154C248.179 82.92 248.179 80.7407 247.173 78.7291C245.58 75.544 242.228 74.5382 239.294 76.5498C238.288 77.1366 237.366 78.0586 236.696 78.9806ZM174.95 68.3742L174.949 68.3747L174.949 68.3748C174.774 69.3114 174.608 70.2001 174.335 71.0179C172.827 75.7117 170.48 79.9026 167.295 83.5905C166.121 85.0154 164.696 86.1051 162.936 86.7756C158.829 88.3681 155.309 85.9374 155.309 81.4951C155.309 79.4835 155.979 77.7233 156.818 75.8793C157.404 74.622 157.907 73.4486 158.41 72.1913C159.835 68.671 161.679 65.4021 164.529 62.8876C165.618 61.8818 167.043 61.0436 168.384 60.5407C170.983 59.6187 173.413 60.876 174.419 63.4743C174.724 64.2661 174.896 65.1022 175.063 65.9183L175.063 65.9183L175.063 65.9189L175.063 65.9193L175.064 65.92C175.126 66.2263 175.189 66.5298 175.257 66.827C175.14 67.3542 175.044 67.8711 174.95 68.3742ZM268.798 64.3124C270.558 60.6245 271.312 56.6012 271.48 52.578C271.48 50.1473 271.312 47.8004 270.307 45.4535C268.714 42.1846 265.781 41.5978 263.098 43.9447C262.176 44.6991 261.422 45.6211 260.835 46.5431C257.483 51.656 256.141 57.4394 255.974 63.4743C255.974 64.061 256.058 65.0668 256.477 65.3182C257.42 65.9709 257.609 66.8746 257.806 67.8121L257.806 67.8128C257.837 67.9586 257.868 68.1052 257.902 68.2519C258.237 69.5091 258.991 70.5988 260.332 70.5988C262.512 70.6826 264.691 70.3473 266.116 68.5033C267.122 67.2461 268.127 65.8212 268.798 64.3124ZM160.254 166.402C160.254 161.541 161.511 157.015 163.858 152.74C164.78 150.98 166.121 149.387 167.462 147.962C168.72 146.621 170.312 145.867 172.156 146.538C174.084 147.124 174.754 148.717 175.09 150.477C175.593 152.908 175.425 155.255 175.09 157.685C174.503 162.211 173.162 166.57 170.48 170.426C169.642 171.683 168.552 172.856 167.295 173.695C164.529 175.622 161.679 174.449 160.757 171.264C160.589 170.677 160.505 170.09 160.422 169.504C160.381 168.97 160.36 168.457 160.339 167.954C160.318 167.429 160.297 166.916 160.254 166.402ZM131.756 122.314C129.744 126.17 128.822 130.193 128.822 135.138C128.899 135.753 128.958 136.509 129.024 137.349L129.024 137.349C129.102 138.342 129.189 139.452 129.325 140.587C129.409 141.341 129.661 142.179 129.996 142.85C131.002 145.029 133.265 145.783 135.36 144.61C136.366 144.023 137.372 143.185 138.042 142.263C141.563 137.485 143.49 132.121 143.574 126.17C143.658 123.823 143.071 121.56 141.646 119.548C139.719 116.866 136.701 116.531 134.354 118.794C133.348 119.8 132.427 121.057 131.756 122.314ZM123.039 178.221C123.018 178.455 123.002 178.694 122.986 178.935C122.939 179.643 122.891 180.361 122.704 180.987C122.508 181.665 122.314 182.347 122.121 183.029L122.121 183.029C121.239 186.138 120.352 189.263 119.183 192.218C118.657 193.622 117.804 194.903 116.938 196.204C116.563 196.768 116.185 197.335 115.831 197.918C115.495 198.505 114.992 198.924 114.49 199.343C113.065 200.6 111.472 201.522 109.544 200.684C107.617 199.93 107.114 198.086 107.03 196.242C106.862 193.559 107.449 190.961 108.203 188.363C108.622 187.022 108.958 185.681 109.209 184.256C110.131 180.232 111.807 176.712 114.909 173.862C116.417 172.521 118.01 171.348 120.105 172.27C122.201 173.192 122.788 175.12 122.871 177.215C122.91 177.407 122.931 177.564 122.95 177.709L122.95 177.71L122.95 177.71C122.973 177.882 122.994 178.039 123.039 178.221ZM107.03 94.2354C107.081 93.9594 107.13 93.687 107.177 93.4181C107.361 92.3804 107.535 91.3956 107.868 90.4636C108.538 88.4519 109.293 86.4403 110.131 84.4287C111.458 81.0727 113.875 78.5888 116.299 76.0973C116.478 75.9131 116.657 75.7287 116.836 75.544C118.177 74.2029 119.938 73.6162 121.782 74.2868C123.709 74.9573 124.464 76.6336 124.715 78.4776C124.799 79.232 124.799 80.0702 124.715 80.9083C124.212 85.0992 122.871 88.9548 120.776 92.6428C119.602 94.7383 118.177 96.5823 116.25 97.9233C115.328 98.5939 114.238 99.2644 113.065 99.5997C110.802 100.354 108.538 99.2644 107.616 97.0852C107.371 96.4101 107.26 95.6901 107.153 94.991C107.114 94.7353 107.075 94.4823 107.03 94.2354ZM185.651 118.542C190.847 114.268 193.697 108.652 194.116 101.276C194.064 101.017 194.021 100.709 193.972 100.371C193.865 99.6161 193.735 98.7078 193.446 97.8395C192.524 95.1573 189.925 94.2353 187.411 95.5764C186.657 95.9955 185.902 96.5822 185.315 97.169C180.957 101.695 178.107 107.059 177.185 113.262C176.934 115.106 177.018 116.782 178.862 118.207C181.376 120.219 183.136 120.554 185.651 118.542ZM253.124 171.096C253.07 171.353 253.016 171.616 252.961 171.884C252.674 173.281 252.359 174.816 251.867 176.293C250.61 179.897 248.682 182.998 245.916 185.764C244.658 187.022 243.15 187.944 241.39 188.53C239.629 189.117 237.953 188.614 236.277 188.111C235.271 187.86 235.103 186.854 235.271 185.932C235.363 185.437 235.45 184.937 235.538 184.436L235.539 184.435L235.539 184.434L235.539 184.43C235.853 182.642 236.173 180.825 236.696 179.059C237.953 175.119 240.132 171.515 242.395 168.079C243.066 167.073 243.988 166.067 244.994 165.397C247.927 163.301 251.196 164.475 252.37 167.827C252.818 168.723 252.933 169.619 253.071 170.693L253.089 170.831L253.102 170.926L253.124 171.096ZM99.7376 148.717C102.923 144.358 104.515 139.413 104.851 133.881C104.799 133.596 104.749 133.308 104.699 133.016L104.698 133.015L104.698 133.015L104.698 133.014L104.698 133.014C104.423 131.419 104.134 129.74 103.426 128.182C102.252 125.164 99.3186 124.577 97.0555 126.924C95.7982 128.265 94.7086 129.858 93.8704 131.534C92.1941 135.055 91.1044 138.743 90.4339 142.598C90.1824 144.023 90.0986 145.532 90.1824 146.957C90.1824 147.879 90.4339 148.801 90.853 149.639C92.0264 152.237 94.7086 152.992 97.0555 151.399C98.0613 150.729 98.9833 149.723 99.7376 148.717ZM270.81 117.621C270.474 121.644 269.385 125.332 267.205 128.684C266.2 130.193 264.942 131.534 263.015 131.87C262.627 131.947 262.24 132.239 261.918 132.482L261.841 132.54C261.673 132.666 261.548 132.812 261.422 132.959L261.422 132.959C261.296 133.106 261.171 133.253 261.003 133.378C259.997 134.216 258.824 134.468 257.65 133.881C256.561 133.378 255.89 132.372 255.974 131.115C256.044 130.249 256.102 129.381 256.16 128.512C256.451 124.17 256.742 119.828 258.488 115.777C259.159 114.184 259.997 112.591 261.003 111.25C263.769 107.646 267.96 108.317 269.636 112.591C270.133 113.709 270.353 115.01 270.571 116.291L270.571 116.291L270.571 116.291C270.647 116.74 270.723 117.186 270.81 117.621ZM117.842 57.5232C121.53 53.7514 123.29 49.0576 123.709 43.1904C123.673 43.0073 123.636 42.7963 123.596 42.5652L123.596 42.5652C123.453 41.7378 123.264 40.6527 122.871 39.67C121.698 37.0717 119.1 36.4011 116.669 37.9099C116.166 38.2451 115.663 38.6642 115.244 39.0833C112.143 42.6036 109.628 46.4593 108.203 50.9016C107.7 52.5779 107.533 54.2543 107.952 56.0145C108.706 59.2834 111.807 60.8759 114.909 59.5348C115.998 59.1157 117.004 58.3614 117.842 57.5232ZM233.092 138.575C232.756 145.197 230.577 150.142 226.135 153.997C223.704 156.177 221.189 156.009 219.094 153.495C218.507 152.824 218.256 151.734 218.256 150.896C218.424 144.694 220.184 139.078 224.123 134.133C224.385 133.739 224.75 133.448 225.137 133.14L225.138 133.14C225.245 133.054 225.355 132.967 225.464 132.875C227.811 131.199 230.493 131.702 231.751 134.216C232.378 135.54 232.715 136.98 232.956 138.006L232.956 138.007C233.005 138.215 233.049 138.406 233.092 138.575ZM141.395 210.491C137.288 214.681 135.612 219.878 134.857 225.494V226.081C134.941 229.014 136.953 230.271 139.635 229.098C145.083 226.667 147.933 222.309 148.939 216.609C149.19 215.017 149.274 213.34 149.022 211.832C148.352 208.06 145.502 207.054 142.569 209.401C142.149 209.736 141.814 210.071 141.395 210.491Z" fill="#FFDC26"/>
</g>
<path fill-rule="evenodd" clip-rule="evenodd" d="M87.1132 56.0429L87.1128 56.0434C86.6896 56.5527 86.2787 57.0473 85.826 57.5C84.8049 58.4076 83.7918 59.3233 82.78 60.2379L82.7799 60.238L82.7798 60.2381L82.7796 60.2382C80.2242 62.5481 77.6764 64.851 75.026 67C61.626 77.5 48.226 88 34.926 98.5L9.12598 118.9L9.12586 118.9C8.7259 119.2 8.32595 119.5 8.02598 119.8C7.32598 120.4 6.52598 120.8 5.62598 120C4.82598 119.3 5.02598 118.3 5.52598 117.6C6.12598 116.6 6.92598 115.6 7.72598 114.8C8.20935 114.361 8.69271 113.919 9.17671 113.477L9.17678 113.477L9.17686 113.477L9.17698 113.477C11.9972 110.9 14.8387 108.304 17.826 106C39.426 89.4 61.126 72.9 83.626 57.5C84.826 56.6 86.126 55.8 87.426 55C87.426 55 87.526 55.1 87.826 55.2C87.5789 55.4824 87.3442 55.7648 87.1132 56.0429ZM166.026 76.9C165.676 77.1 165.326 77.325 164.976 77.55C164.626 77.775 164.276 78 163.926 78.2C149.326 86.8 134.926 95.7 120.826 105.2C99.226 119.6 77.826 134.4 57.426 150.4C53.626 153.4 49.926 156.4 46.226 159.4C45.626 159.9 45.126 160.3 44.526 160.7C43.726 161.3 42.926 161.6 42.126 160.9C41.326 160.2 41.526 159.2 42.026 158.5C42.626 157.5 43.326 156.5 44.226 155.7L44.3458 155.59C46.8091 153.323 49.3691 150.968 52.026 149C82.426 126 113.626 104.5 146.926 86C150.726 83.8667 154.615 81.9111 158.504 79.9556C160.448 78.9778 162.393 78 164.326 77C164.826 76.8 165.326 76.6 165.726 76.4C165.826 76.5 165.926 76.7 166.026 76.9ZM99.926 63.5C100.626 63 101.226 62.4 101.826 61.8C101.726 61.7 101.626 61.6 101.326 61.5C100.626 62 99.926 62.525 99.226 63.05C98.526 63.575 97.826 64.1 97.126 64.6C93.0918 67.5088 89.0545 70.4176 85.0158 73.3275L85.0151 73.328C65.7284 87.224 46.4088 101.144 27.226 115.2C21.8311 119.104 16.7385 123.311 11.6263 127.534L11.6262 127.534C9.53676 129.26 7.44401 130.988 5.32601 132.7C3.82601 133.9 2.52601 135.3 1.22601 136.7C0.726013 137.2 0.226013 137.8 0.026013 138.5C-0.073987 139 0.126013 139.7 0.426013 140C0.726013 140.3 1.52601 140.4 1.92601 140.2C2.72601 139.8 3.42601 139.3 4.12601 138.7C6.54336 136.716 8.93467 134.705 11.3234 132.697C15.5554 129.139 19.7794 125.588 24.126 122.2C34.7347 113.955 45.3766 105.81 56.0135 97.669L56.0143 97.6684L56.015 97.6678C63.8265 91.6891 71.6352 85.7125 79.426 79.7C86.3253 74.3005 93.1247 68.9011 99.924 63.5016L99.926 63.5ZM100.426 77C99.326 78 98.226 79 97.026 79.9C93.6956 82.4851 90.3598 85.0703 87.0224 87.6567L87.015 87.6624C76.0246 96.1795 65.0165 104.71 54.126 113.3C47.6804 118.392 41.3179 123.567 34.9849 128.718C31.4926 131.559 28.0093 134.392 24.526 137.2L24.526 137.2C23.726 137.9 22.926 138.6 22.026 139.1C21.526 139.4 20.426 139.4 20.126 139.1C19.726 138.7 19.626 137.7 19.926 137.2C20.326 136.4 20.926 135.6 21.626 134.9C22.3148 134.269 22.9953 133.629 23.6771 132.988L23.6772 132.988C25.3709 131.396 27.0722 129.797 28.926 128.3C48.926 112.5 69.126 97 90.226 82.7C92.5211 81.1427 94.9505 79.5853 97.2941 78.083L97.2943 78.0828C97.8098 77.7524 98.3212 77.4246 98.826 77.1C99.226 76.9 99.626 76.7 100.026 76.4C100.102 76.5146 100.164 76.6 100.217 76.6729L100.217 76.673C100.302 76.791 100.364 76.8764 100.426 77ZM107.355 90.4442C107.542 90.2315 107.732 90.0157 107.926 89.8C107.626 89.6 107.526 89.5 107.526 89.5L107.526 89.5001C106.026 90.6001 104.526 91.7 103.026 92.7C86.326 103.8 70.226 115.7 54.326 127.8C49.6261 131.3 45.0262 134.9 40.4262 138.5L40.426 138.5C39.526 139.2 38.726 140 38.026 140.8C37.426 141.5 37.126 142.4 37.826 143.2C38.526 144.1 39.426 144 40.226 143.5C41.326 142.9 42.426 142.2 43.426 141.4C45.176 140 46.901 138.575 48.626 137.15C50.351 135.725 52.076 134.3 53.826 132.9C65.926 123.4 78.126 113.9 90.326 104.5L105.326 92.5C106.032 91.951 106.676 91.2175 107.355 90.4442Z" fill="black"/>
</svg>
