<svg width="15" height="150" viewBox="0 0 15 150" fill="none" xmlns="http://www.w3.org/2000/svg">
<path d="M2.65211 0.249945C2.64853 1.05616 2.73154 1.91238 2.72795 2.71859C2.87577 19.6626 3.38339 36.5833 4.56064 53.5443C6.23141 79.4504 8.34858 105.383 12.005 131.05C12.7031 135.841 13.4511 140.545 14.1992 145.25C14.3322 146.019 14.4286 146.652 14.475 147.372C14.5947 148.365 14.4545 149.208 13.4483 149.55C12.442 149.893 11.676 149.22 11.3198 148.437C10.7538 147.417 10.2377 146.311 9.99492 145.132C9.25306 141.817 8.47461 138.365 8.09255 135.027C3.37397 97.1997 0.354425 59.4297 0.982951 21.341C1.06167 14.8047 1.58679 8.29514 1.88872 1.77219C1.96551 1.23917 2.04231 0.706154 2.06911 0.259742C2.20571 0.223141 2.42891 0.236547 2.65211 0.249945Z" fill="black"/>
</svg>
