<svg width="181" height="290" viewBox="0 0 181 290" fill="none" xmlns="http://www.w3.org/2000/svg">
<path d="M30.1934 290C23.8706 289.649 18.2504 287.541 13.684 282.975C10.8738 280.165 8.23936 277.003 5.95615 273.491C-1.9473 261.372 -10.202 249.605 -20.213 239.067C-20.3887 238.891 -20.3887 238.891 -20.5643 238.715C-39.0056 215.356 -58.1495 192.524 -75.1858 168.111C-81.1573 159.505 -85.1969 150.197 -88.7095 140.186C-90.9927 133.512 -90.2902 127.013 -86.2507 121.218C-83.7918 117.705 -80.8061 114.368 -77.4691 111.733C-54.4613 93.2921 -33.2098 72.9188 -11.4314 52.8968C3.4973 39.3731 18.7773 26.3763 34.0573 13.3796C37.7455 10.2182 41.7851 7.23244 46.0002 4.7736C57.5919 -2.25168 69.1837 -1.54916 79.546 7.05681C84.1124 10.7451 88.1519 15.1359 91.6646 19.8779C105.715 38.3193 118.361 57.6388 130.128 77.6609C137.153 89.6039 144.53 101.547 151.906 113.139C159.985 125.784 167.362 138.956 173.685 152.48C176.495 158.452 178.954 164.599 180.183 171.097C181.588 178.649 180.183 185.675 175.441 191.822C172.28 195.686 168.767 199.549 164.903 202.535C155.595 209.912 145.759 216.761 136.099 223.962C125.21 231.866 114.145 239.594 103.432 247.673C87.625 259.791 70.7644 270.505 53.9037 281.218C49.1616 284.204 43.8927 286.136 38.6237 288.244C36.1648 289.297 33.0035 289.473 30.1934 290Z" fill="#FF90E7"/>
<mask id="mask0_14_90" style="mask-type:alpha" maskUnits="userSpaceOnUse" x="-90" y="0" width="271" height="290">
<path d="M30.1934 290C23.8706 289.649 18.2504 287.541 13.684 282.975C10.8738 280.165 8.23936 277.003 5.95615 273.491C-1.9473 261.372 -10.202 249.605 -20.213 239.067C-20.3887 238.891 -20.3887 238.891 -20.5643 238.715C-39.0056 215.356 -58.1495 192.524 -75.1858 168.111C-81.1573 159.505 -85.1969 150.197 -88.7095 140.186C-90.9927 133.512 -90.2902 127.013 -86.2507 121.218C-83.7918 117.705 -80.8061 114.368 -77.4691 111.733C-54.4613 93.2921 -33.2098 72.9188 -11.4314 52.8968C3.4973 39.3731 18.7773 26.3763 34.0573 13.3796C37.7455 10.2182 41.7851 7.23244 46.0002 4.7736C57.5919 -2.25168 69.1837 -1.54916 79.546 7.05681C84.1124 10.7451 88.1519 15.1359 91.6646 19.8779C105.715 38.3193 118.361 57.6388 130.128 77.6609C137.153 89.6039 144.53 101.547 151.906 113.139C159.985 125.784 167.362 138.956 173.685 152.48C176.495 158.452 178.954 164.599 180.183 171.097C181.588 178.649 180.183 185.675 175.441 191.822C172.28 195.686 168.767 199.549 164.903 202.535C155.595 209.912 145.759 216.761 136.099 223.962C125.21 231.866 114.145 239.594 103.432 247.673C87.625 259.791 70.7644 270.505 53.9037 281.218C49.1616 284.204 43.8927 286.136 38.6237 288.244C36.1648 289.297 33.0035 289.473 30.1934 290Z" fill="#55BBDA"/>
</mask>
<g mask="url(#mask0_14_90)">
<path d="M196.693 301.592C194.409 300.889 192.653 299.133 191.072 297.201C187.911 293.337 185.979 288.771 184.398 284.204C180.534 272.788 178.427 260.845 177.022 248.902C175.968 239.594 175.265 230.11 174.212 220.801C174.212 220.098 174.036 219.572 173.685 217.991C172.28 220.098 171.577 221.328 170.699 222.557C160.688 238.189 149.799 253.117 136.275 266.114C131.357 270.856 125.913 275.247 120.293 279.111C116.956 281.394 112.916 283.15 108.877 284.204C99.9193 286.663 92.3672 282.975 88.3276 274.72C85.5175 269.1 84.4637 262.953 84.4637 256.806C84.4637 249.605 84.9906 242.579 85.3419 235.378C85.3419 234.5 85.5175 233.622 85.6931 231.69C84.2881 233.447 83.4099 234.5 82.5318 235.554C75.3308 245.214 67.603 254.522 58.9971 262.953C53.2012 268.573 47.2297 273.842 40.2044 277.881C36.1649 280.34 31.9497 282.097 27.3833 282.975C19.6555 284.204 13.1571 281.043 9.64446 274.018C7.18562 269.1 6.30746 263.655 5.95619 258.211C5.07803 244.511 6.83435 230.988 8.7663 217.464C9.46883 213.073 10.1714 208.682 10.347 203.94C9.46883 205.17 8.59068 206.399 7.88815 207.629C-0.190926 220.625 -8.44563 233.095 -18.6323 244.511C-23.0231 249.429 -27.7652 253.995 -32.8585 258.211C-35.8442 260.669 -39.5325 262.601 -43.0451 263.831C-50.5973 266.465 -57.2713 264.007 -61.6621 257.332C-64.4722 253.117 -65.7017 248.375 -66.5798 243.633C-68.3362 233.095 -68.5118 222.557 -67.458 212.195C-66.4042 200.252 -64.8235 188.133 -63.5941 176.191C-63.4185 174.785 -63.2428 173.38 -63.7697 171.624C-64.6479 172.678 -65.526 173.732 -66.4042 174.961C-75.5371 187.431 -85.5481 199.198 -97.3154 209.385C-101.706 213.073 -106.448 216.41 -111.19 219.572C-112.595 220.45 -114.352 221.679 -116.284 219.572C-115.757 218.869 -115.406 218.167 -114.703 217.815C-106.8 212.722 -99.9499 206.048 -93.4515 199.374C-81.8598 187.431 -71.6732 174.434 -62.5403 160.559C-61.3109 158.627 -60.4327 156.344 -59.9058 154.061C-52.3536 116.124 -42.3426 78.8904 -27.0626 43.2371C-22.4962 32.6991 -17.5785 22.5125 -11.0801 13.204C-8.44563 9.34007 -5.45988 5.82743 -2.29851 2.49042C-0.366554 0.0315733 2.26792 -1.90038 5.25366 -0.495323C8.41504 1.08537 8.59068 4.42237 8.06379 7.23249C6.4831 15.3116 5.07803 23.5663 2.61919 31.4697C-10.202 74.4995 -28.4677 115.071 -52.178 153.183C-54.6369 157.047 -56.2175 161.086 -56.9201 165.653C-59.7302 182.338 -62.3647 199.198 -63.0672 216.235C-63.4185 225.543 -63.5941 234.852 -61.4865 243.984C-60.784 246.97 -59.7302 249.956 -58.3251 252.59C-54.9881 258.913 -49.5435 261.021 -43.2208 257.684C-39.5325 255.927 -35.8442 253.469 -32.8585 250.483C-26.7114 244.336 -20.9155 237.837 -15.4709 230.988C-3.70356 215.883 5.95619 199.374 14.9134 182.513C15.616 181.108 16.3185 179.352 16.6697 177.771C24.2219 144.577 34.7599 112.085 44.9465 79.5929C52.4987 55.7069 60.2265 31.6453 69.8863 8.46191C71.8182 3.71985 74.1014 -1.02222 76.5603 -5.58865C77.2628 -6.99371 78.3166 -8.39876 79.7216 -9.45256C81.8292 -11.2089 84.6393 -10.3307 85.1662 -7.5206C85.5175 -5.58865 85.5175 -3.6567 85.5175 -1.72475C84.6393 10.3939 81.6536 22.1612 78.8435 33.9286C66.5492 86.0913 46.7028 135.619 21.9387 183.04C20.358 186.026 19.1286 189.187 18.6017 192.524C15.9672 206.399 13.5084 220.098 11.4008 233.973C10.1714 242.579 9.64447 251.361 10.8739 259.967C11.4008 263.304 12.1033 266.641 13.3327 269.802C15.9672 276.476 21.0605 278.935 27.9102 277.179C31.4228 276.301 34.9355 274.72 37.9212 272.788C43.0146 269.275 47.9323 265.587 52.4987 261.548C65.8467 249.429 76.7359 235.378 86.7469 220.625C87.6251 219.396 88.152 217.815 88.5033 216.41C96.9336 173.205 109.228 131.053 123.63 89.4283C131.357 66.9474 139.612 44.8177 149.272 23.0394C151.204 18.8242 153.311 14.609 155.595 10.5695C156.824 8.28628 158.405 6.00306 161.566 6.88122C164.728 7.75938 164.903 10.5695 164.728 13.0283C164.201 20.9318 163.849 28.8352 162.62 36.563C154.717 88.9014 138.558 138.605 113.97 185.499C108.35 196.388 101.676 206.575 95.7042 217.288C94.826 219.045 93.7722 220.801 93.4209 222.557C91.489 233.973 89.7327 245.39 90.6108 256.981C90.9621 261.196 91.6646 265.587 93.0697 269.802C95.8798 277.881 101.676 280.516 109.755 277.53C113.267 276.301 116.78 274.544 119.766 272.261C125.386 267.87 130.831 263.304 135.924 258.211C150.326 243.458 162.093 226.773 172.455 208.858C173.509 206.926 173.86 204.994 173.86 202.887C173.685 180.757 178.602 159.681 186.682 139.308C188.438 135.093 190.721 130.877 193.18 127.014C194.409 124.906 196.341 123.15 198.449 121.745C201.962 119.461 205.825 120.866 206.704 124.906C207.406 128.243 207.582 131.931 207.23 135.268C206.352 144.752 203.718 154.061 200.556 163.018C195.463 178.122 188.613 192.349 181.061 206.399C180.183 207.98 179.305 210.087 179.305 211.844C180.183 236.081 181.764 260.143 187.735 283.677C188.438 286.839 189.492 290 190.897 292.81C192.126 295.62 194.409 298.43 196.693 301.592ZM159.107 15.3116C144.706 36.2118 96.7579 183.04 97.2849 202.711C108.701 187.782 131.533 135.268 142.598 98.0342C150.677 70.9869 156.648 43.5883 159.107 15.3116ZM4.19987 4.24674C3.84861 4.07111 3.32172 3.89548 2.97046 3.71985C1.91666 4.77364 0.511604 5.47617 -0.366554 6.70559C-3.00104 10.0426 -5.81115 13.204 -7.91873 16.8922C-12.1339 24.0932 -16.1734 31.2941 -19.5105 38.8463C-31.9803 66.0692 -40.9376 94.8729 -48.1385 124.203C-49.7192 130.351 -50.9486 136.322 -52.3536 142.469C-52.178 142.645 -51.8267 142.645 -51.6511 142.82C-50.7729 141.415 -49.8948 140.01 -49.0166 138.605C-32.8585 111.031 -19.5104 82.2274 -8.62126 52.1943C-3.70357 38.6706 1.0385 25.3226 3.49734 11.0964C4.02424 8.98881 4.02424 6.52996 4.19987 4.24674ZM27.5589 157.398C30.0178 152.305 32.301 147.211 34.7598 142.294C54.255 100.142 69.1837 56.4095 78.6679 10.9208C79.546 7.05685 80.0729 3.19295 80.7754 -0.670955C72.3451 9.34007 32.6523 127.892 27.5589 157.398ZM201.61 126.838C192.126 131.931 179.305 176.542 179.832 192.876C180.183 192.524 180.534 192.349 180.71 191.997C189.14 174.961 196.166 157.574 200.03 138.956C200.908 135.093 201.083 131.404 201.61 126.838Z" fill="black"/>
</g>
</svg>
