<svg width="358" height="318" viewBox="0 0 358 318" fill="none" xmlns="http://www.w3.org/2000/svg">
<path d="M250.193 98.7728C272.509 91.5942 294.679 84.346 317.109 77.4904C335.692 71.7554 354.504 66.6665 373.551 62.5848C386.621 59.7724 399.737 57.4288 413.145 57.2839C418.82 57.2128 424.646 57.5725 430.372 58.3315C439.795 59.5988 448.288 63.3769 455.699 69.2351C462.412 74.4922 466.768 81.3114 468.082 89.8141C469.02 95.5416 467.89 100.911 465.493 106.123C462.19 113.232 457.752 119.53 452.401 125.305C441.59 136.891 429.63 146.945 416.414 155.506C398.553 167.045 380.172 177.798 361.269 187.767C342.798 197.583 324.289 207.291 305.519 216.607C292.408 223.07 278.846 228.602 265.545 234.526C261.349 236.376 257.154 238.226 253.067 240.037C248.225 242.116 243.422 244.303 238.472 246.42C224.987 252.167 211.393 257.952 197.869 263.591C184.2 269.161 170.332 273.832 156.09 277.786C142.533 281.62 128.931 284.984 114.985 287.38C101.401 289.768 87.6578 291.365 73.8045 290.94C67.0395 290.67 60.3374 289.894 53.7229 287.995C48.5987 286.538 43.7529 284.498 39.3562 281.329C30.8925 275.238 26.5478 267.081 26.4612 256.568C26.4865 250.136 27.8562 244.076 30.2404 238.141C33.8639 228.858 39.1685 220.556 45.4247 212.885C53.764 202.538 63.4298 193.539 73.7554 185.033C87.9958 173.201 103.538 163.332 119.562 154.141C139.737 142.63 160.776 132.874 182.304 124.157C204.84 115.203 227.574 107.15 250.193 98.7728Z" fill="#FFDC26"/>
<mask id="mask0_51_84" style="mask-type:alpha" maskUnits="userSpaceOnUse" x="26" y="57" width="443" height="235">
<path d="M250.193 98.7728C272.509 91.5942 294.679 84.346 317.109 77.4904C335.692 71.7554 354.504 66.6665 373.551 62.5848C386.621 59.7724 399.737 57.4288 413.145 57.2839C418.82 57.2128 424.646 57.5725 430.372 58.3315C439.795 59.5988 448.288 63.3769 455.699 69.2351C462.412 74.4922 466.768 81.3114 468.082 89.8141C469.02 95.5416 467.89 100.911 465.493 106.123C462.19 113.232 457.752 119.53 452.401 125.305C441.59 136.891 429.63 146.945 416.414 155.506C398.553 167.045 380.172 177.798 361.269 187.767C342.798 197.583 324.289 207.291 305.519 216.607C292.408 223.07 278.846 228.602 265.545 234.526C261.349 236.376 257.154 238.226 253.067 240.037C248.225 242.116 243.422 244.303 238.472 246.42C224.987 252.167 211.393 257.952 197.869 263.591C184.2 269.161 170.332 273.832 156.09 277.786C142.533 281.62 128.931 284.984 114.985 287.38C101.401 289.768 87.6578 291.365 73.8045 290.94C67.0395 290.67 60.3374 289.894 53.7229 287.995C48.5987 286.538 43.7529 284.498 39.3562 281.329C30.8925 275.238 26.5478 267.081 26.4612 256.568C26.4865 250.136 27.8562 244.076 30.2404 238.141C33.8639 228.858 39.1685 220.556 45.4247 212.885C53.764 202.538 63.4298 193.539 73.7554 185.033C87.9958 173.201 103.538 163.332 119.562 154.141C139.737 142.63 160.776 132.874 182.304 124.157C204.84 115.203 227.574 107.15 250.193 98.7728Z" fill="black"/>
</mask>
<g mask="url(#mask0_51_84)">
<path fill-rule="evenodd" clip-rule="evenodd" d="M348.119 28.1701C346.917 30.5291 345.707 32.8648 344.497 35.2006C343.287 37.5357 342.077 39.8708 340.876 42.2291C331.022 61.601 320.414 80.6133 307.662 98.2952C303.194 104.526 298.436 110.517 293.689 116.495L293.683 116.503C292.563 117.913 291.443 119.323 290.328 120.735C288.108 123.611 285.538 126.089 282.333 127.956C277.033 130.983 271.569 130.306 267.314 125.963C264.995 123.546 263.352 120.68 261.989 117.715C258.872 110.983 256.996 103.916 255.802 96.7121C255.075 92.3881 254.457 88.0622 253.839 83.7298L253.838 83.7294C253.413 80.7507 252.987 77.7689 252.525 74.7826C252.135 72.2046 251.465 69.7253 250.67 67.186C249.716 64.4939 248.399 64.0202 245.997 65.498C244.551 66.4284 243.137 67.4516 242.041 68.7804C241.665 69.2166 241.289 69.6514 240.913 70.0857C238.179 73.2443 235.474 76.371 233.182 79.7548C226.06 90.3229 219.097 101.044 212.352 111.792C202.074 128.217 191.883 144.726 181.701 161.219C178.071 167.101 174.441 172.98 170.809 178.853C168.056 183.172 165.143 187.338 162.138 191.537C160.589 193.653 158.882 195.616 157.142 197.487C155.919 198.756 154.446 199.905 152.873 200.775C148.342 203.321 144.364 202.118 141.633 197.653C139.64 194.388 138.795 190.822 138.228 187.157C136.744 178.515 136.645 169.847 136.547 161.205C136.541 160.688 136.535 160.171 136.529 159.654C136.514 158.822 136.499 157.993 136.484 157.165L136.484 157.165C136.411 153.035 136.339 148.941 136.157 144.741C136.146 144.563 136.137 144.383 136.128 144.202L136.128 144.202C136.066 142.921 136.001 141.571 135.081 140.524C133.59 140.739 132.673 141.691 131.849 142.61C129.624 145.174 127.398 147.739 125.582 150.576C120.135 159.088 114.78 167.568 109.617 176.292C104.048 185.788 98.5268 195.345 93.0055 204.902C87.4843 214.459 81.9631 224.016 76.394 233.511C72.6813 239.842 68.6243 246.085 64.4416 252.268C62.7722 254.747 60.7196 257.105 58.6982 259.428L58.6982 259.428C58.4811 259.677 58.2643 259.926 58.0485 260.175C57.1647 261.22 55.9038 262.084 54.67 262.73C52.6336 263.765 50.8735 262.926 50.21 260.758C49.8424 259.425 49.6276 257.934 49.757 256.53C49.9173 253.444 50.1375 250.231 50.7019 247.106C50.874 246.18 51.0445 245.254 51.2149 244.329L51.2149 244.329C52.3614 238.106 53.5019 231.916 55.0689 225.812C57.8541 215.202 60.7217 204.601 63.5919 193.991L63.5924 193.99L63.5932 193.987C65.3967 187.32 67.2013 180.649 68.9872 173.969C69.2752 172.718 69.689 171.527 70.1356 170.428C70.325 170.031 70.6017 169.645 70.8637 169.279C71.0162 169.066 71.1638 168.86 71.2862 168.662C71.4119 168.722 71.5377 168.782 71.6963 168.935C71.6528 169.107 71.6407 169.294 71.6286 169.481C71.6165 169.668 71.6045 169.856 71.561 170.028C65.7066 190.072 60.5736 210.384 56.1292 230.869C54.8219 236.94 53.8163 243.154 52.8191 249.318L52.8188 249.319C52.7013 250.046 52.5839 250.771 52.4661 251.496C52.189 253.144 52.2086 254.828 52.2286 256.538C52.2328 256.903 52.2371 257.269 52.2385 257.636C52.2051 258.153 52.3203 258.668 52.4745 259.356C52.5435 259.664 52.6204 260.006 52.6951 260.4C52.9895 260.181 53.275 259.981 53.5461 259.791L53.5464 259.791C54.2655 259.288 54.8841 258.854 55.3039 258.326C55.7905 257.757 56.2911 257.189 56.794 256.619C58.2758 254.938 59.7775 253.235 60.999 251.398C61.7123 250.301 62.4262 249.206 63.1396 248.111L63.1418 248.108C67.6359 241.213 72.1093 234.35 76.2774 227.284C83.0317 215.831 89.702 204.338 96.379 192.833L96.3797 192.832C101.252 184.436 106.128 176.035 111.044 167.638C114.296 162.071 117.854 156.708 121.432 151.313L121.432 151.313C122.004 150.45 122.577 149.587 123.149 148.722C124.692 146.295 126.612 144.047 128.532 141.8L128.532 141.8L128.532 141.8C129.569 140.597 130.764 139.546 131.992 138.589C134.727 136.575 137.235 137.463 138.26 140.652C138.754 142.044 138.969 143.535 139.09 145.059C139.228 148.431 139.332 151.815 139.436 155.176L139.436 155.18C139.507 157.465 139.577 159.739 139.657 161.994C139.692 163 139.724 164.007 139.757 165.015L139.757 165.019L139.757 165.019C139.965 171.557 140.175 178.126 141.295 184.608C141.85 187.65 142.657 190.812 143.769 193.657C145.671 198.729 148.769 199.512 152.813 195.886C155.356 193.627 157.768 190.996 159.709 188.219C164.263 181.904 168.658 175.436 172.802 168.848C179.82 157.691 186.829 146.51 193.838 135.329L193.842 135.323C200.85 124.144 207.858 112.964 214.875 101.808C220.109 93.5803 225.47 85.4125 230.989 77.3974C233.535 73.6742 236.399 70.2566 239.389 66.8988C240.884 65.22 242.663 63.7539 244.634 62.5333C248.482 60.1251 251.772 61.1537 253.749 65.2594C255.388 68.8038 255.955 72.5521 256.531 76.3635C256.582 76.703 256.633 77.043 256.686 77.3835C256.946 78.9769 257.203 80.5767 257.461 82.1792L257.463 82.1949L257.463 82.1965C258.354 87.74 259.251 93.3161 260.295 98.7772C261.635 105.511 263.659 112.108 266.857 118.184C267.568 119.604 268.433 120.865 269.483 122.06C272.799 126.109 276.957 126.935 281.389 124.111C283.791 122.633 286.061 120.784 287.829 118.695C292.221 113.691 296.579 108.595 300.654 103.286C312.904 87.1393 323.76 69.711 333.955 51.8901L346.712 29.5047C346.811 29.3438 346.92 29.1798 347.03 29.0122L347.031 29.0118L347.031 29.0114C347.289 28.6213 347.56 28.2112 347.769 27.7717C347.812 27.8127 347.852 27.8469 347.889 27.8787C347.991 27.9656 348.071 28.0342 348.119 28.1701ZM121.586 236.621C121.405 236.894 121.219 237.157 121.034 237.42L121.034 237.42C120.663 237.946 120.292 238.473 119.95 239.081L119.949 239.083C115.79 246.511 111.631 253.94 107.598 261.428C105.132 266.012 102.686 270.606 100.239 275.204C96.6212 281.999 92.9992 288.803 89.2995 295.598C83.7285 305.825 77.4961 315.66 70.2251 324.923C69.1701 326.304 68.0114 327.635 66.7519 329.082L66.7506 329.083C66.0504 329.888 65.319 330.728 64.5571 331.632C64.5081 331.292 64.4566 331.014 64.4135 330.781L64.4135 330.781C64.3308 330.335 64.2792 330.056 64.3364 329.83C64.4834 329.36 64.816 328.824 65.1815 328.381C78.2229 311.223 88.5527 292.31 98.5382 273.309C103.875 263.215 109.392 253.351 114.969 243.379L114.969 243.379L115.497 242.435C117.094 239.571 118.942 236.826 120.791 234.082L120.791 234.082C121.975 232.409 123.116 231.795 124.029 232.308C125.35 233.164 125.141 234.462 124.949 235.656L124.934 235.748C124.532 237.89 124.047 240.021 123.559 242.162L123.559 242.162C123.257 243.491 122.953 244.822 122.668 246.163C121.918 249.354 121.144 252.543 120.369 255.731L120.369 255.732C118.82 262.108 117.272 268.484 115.917 274.884C114.744 280.419 114.04 286.101 113.397 291.658C113.21 293.418 113.32 295.28 113.428 297.131C113.474 297.906 113.519 298.679 113.543 299.442C113.553 299.515 113.563 299.585 113.572 299.654C113.628 300.058 113.677 300.411 113.817 300.808C114.574 302.943 115.705 303.482 117.649 302.48C118.976 301.801 120.236 300.937 121.213 299.859C124.083 296.753 126.92 293.554 129.472 290.142C136.007 281.321 141.588 271.909 147.143 262.541C147.476 261.979 147.809 261.417 148.142 260.856C162.46 236.977 177.247 213.245 193.456 190.577C203.927 175.897 214.841 161.583 227.303 148.391C231.395 144.016 235.678 139.887 240.471 136.308C242.714 134.678 244.99 133.14 247.622 132.312C251.308 131.215 253.915 132.381 254.92 136.1C255.452 137.897 255.705 139.792 255.554 141.726C255.54 141.887 255.525 142.049 255.51 142.21L255.463 142.724C255.107 146.616 254.745 150.571 253.985 154.402C251.986 163.798 249.796 173.198 247.609 182.582C247.008 185.16 246.408 187.738 245.811 190.313C242.214 206.111 238.867 222.028 237.176 238.194C236.539 244.062 236.12 249.957 236.542 255.867C236.67 257.703 236.923 259.598 237.362 261.428C237.631 262.482 238.086 263.47 238.633 264.425C239.181 265.381 240.028 265.707 241.016 265.253C241.232 265.137 241.449 265.024 241.666 264.912C242.59 264.432 243.493 263.963 244.188 263.293C246.479 260.914 248.771 258.535 250.745 255.851C255.551 249.656 259.41 242.855 263.177 236.088C271.132 221.968 278.375 207.375 285.595 192.824L285.596 192.824C286.119 191.77 286.641 190.717 287.164 189.664C288.438 187.095 289.706 184.523 290.974 181.951L290.981 181.936L290.982 181.935C297.655 168.397 304.324 154.866 311.904 141.824C314.499 137.352 317.312 132.907 320.159 128.556C321.675 126.347 323.442 124.258 325.15 122.295C325.974 121.376 327.049 120.577 328.097 119.997C330.439 118.645 332.445 119.292 333.458 121.859C334.077 123.311 334.325 124.895 334.447 126.419C334.772 131.038 334.992 135.644 335.21 140.234L335.211 140.255C335.306 142.243 335.4 144.228 335.503 146.21C335.844 152.776 336.371 159.276 337.706 165.699C339.184 173.115 342.426 179.907 346.099 186.442C350.128 193.686 354.987 200.324 361.167 205.97C365.066 209.604 369.484 212.636 374.566 214.597C381.939 217.418 388.963 216.601 395.75 213.048C397.286 212.253 398.787 211.357 400.287 210.462L400.289 210.461C401.289 209.865 402.289 209.268 403.3 208.701C403.425 208.761 403.528 208.829 403.63 208.897C403.733 208.966 403.835 209.034 403.961 209.094C403.848 209.182 403.729 209.25 403.618 209.313C403.486 209.388 403.367 209.457 403.284 209.542C402.239 210.235 401.216 210.957 400.197 211.677L400.197 211.677C398.245 213.055 396.305 214.424 394.239 215.568C385.608 220.402 376.965 219.598 368.503 215.177C361.993 211.842 356.607 206.959 351.984 201.283C344.462 192.142 338.664 181.971 335.149 170.574C333.428 165.125 332.793 159.499 332.562 153.834C332.413 150.021 332.318 146.215 332.223 142.409C332.129 138.603 332.034 134.797 331.885 130.984C331.844 128.804 331.651 126.783 331.424 124.669C331.377 124.175 331.213 123.683 331.017 123.093C330.892 122.717 330.753 122.301 330.623 121.818C330.307 122.044 330.006 122.248 329.72 122.442L329.72 122.443C328.951 122.965 328.293 123.413 327.736 123.991C327.309 124.514 326.868 125.036 326.425 125.561L326.424 125.562C325.128 127.097 323.813 128.654 322.778 130.344C322.432 130.907 322.085 131.47 321.738 132.034C318.627 137.088 315.488 142.185 312.757 147.477C307.587 157.51 302.489 167.596 297.39 177.683C292.292 187.769 287.193 197.855 282.023 207.888C275.2 221.067 268.217 234.093 261.109 247.06C259.376 250.203 257.303 253.229 255.241 256.237L255.239 256.239C254.577 257.206 253.916 258.17 253.267 259.136C251.811 261.219 250.071 263.09 248.39 264.834C247.321 265.945 246.033 267.028 244.739 267.8C240.367 270.498 236.792 269.257 234.93 264.588C233.817 261.743 233.421 258.854 233.269 255.773C232.863 249.021 233.39 242.252 234.136 235.51C235.937 220.245 239.082 205.235 242.665 190.279C243.432 187.028 244.207 183.775 244.982 180.519L244.982 180.518L244.982 180.518C247.034 171.899 249.089 163.263 251.03 154.613C251.981 150.515 252.462 146.269 252.943 142.024C253.1 140.402 253.005 138.659 252.757 137.075C252.307 134.623 250.951 133.745 248.756 134.627C246.899 135.285 245.141 136.221 243.542 137.31C239.082 140.353 235.29 144.099 231.531 147.939C221.235 158.691 212.142 170.479 203.334 182.481C186.415 205.505 171.044 229.652 156.334 254.192C150.293 264.273 144.16 274.386 137.774 284.38C134.808 288.983 131.465 293.406 128.088 297.737C126.805 299.452 125.193 300.896 123.557 302.361C123.294 302.596 123.031 302.832 122.768 303.07C121.819 303.928 120.803 304.601 119.63 305.122C115.557 307.192 112.01 305.732 110.928 301.204C110.39 299.096 110.098 296.797 110.183 294.677C110.386 290.531 110.774 286.318 111.414 282.226C112.673 273.658 114.83 265.272 116.994 256.863C117.252 255.861 117.51 254.858 117.766 253.855C118.435 251.32 119.089 248.816 119.743 246.311L119.744 246.309C120.397 243.806 121.051 241.302 121.72 238.768C121.894 238.079 122.035 237.298 122.176 236.516C121.838 236.741 121.712 236.681 121.586 236.621ZM433.938 7.5682C434.578 6.10138 435.219 4.63106 435.877 3.16278C435.718 3.01001 435.5 2.98296 435.221 3.08161C434.889 3.61737 434.589 4.24595 434.289 4.87452C434.005 5.46973 433.724 6.07071 433.441 6.67364C432.589 8.49033 431.729 10.3248 430.78 12.0732C421.426 29.9095 410.843 46.9278 399.724 63.6136C391.85 75.5974 383.566 87.3086 374.554 98.4416C372.787 100.53 370.926 102.652 368.967 104.496C367.805 105.639 366.266 106.602 364.786 107.439C362.564 108.54 360.936 108.072 359.622 106.134C358.982 105.212 358.435 104.257 358.073 103.236C356.506 99.4025 355.9 95.3334 355.606 91.2584C354.924 83.1415 355.429 75.1269 355.992 66.9866C356.068 66.0196 356.143 65.0525 356.033 64.1513C355.994 63.7471 355.518 63.2888 355.174 63.2018C354.83 63.1148 354.12 63.4707 354 63.7221C353.581 64.6021 353.287 65.5421 353.178 66.4163C351.94 76.7808 351.575 87.2535 353.172 97.6583C353.706 101.23 354.426 104.737 356.478 107.875C359.012 111.784 362.924 112.801 366.931 110.545C368.749 109.483 370.561 108.11 372.089 106.524C374.321 104.271 376.301 101.897 378.215 99.3386C397.333 73.9685 414.34 47.3607 428.635 18.9972C430.576 15.2797 432.252 11.4361 433.938 7.5682Z" fill="black"/>
</g>
<path d="M143.52 64.6985C142.122 64.6985 140.646 64.6209 139.248 64.6985C136.53 64.8539 134.588 66.1742 133.656 68.8148C132.181 72.8534 132.103 77.125 132.569 81.3189C132.724 82.9499 133.113 84.5032 133.346 86.0565C133.423 86.6779 133.579 87.2992 133.579 87.9205C133.579 89.0078 133.035 89.7068 132.258 89.9398C131.249 90.1728 130.55 89.7068 130.006 88.9302C129.695 88.5418 129.462 88.0758 129.307 87.6098C126.822 80.6199 126.511 73.4747 129.074 66.4848C130.627 62.2132 133.967 59.9609 138.394 59.4949C139.947 59.3396 141.656 59.3396 143.209 59.4173C150.044 59.7279 156.49 58.0193 162.703 55.2233C166.353 53.5924 169.149 50.8741 171.169 47.3791C173.343 43.5735 174.974 39.5349 176.372 35.4963C179.557 26.6424 182.741 17.7109 186.081 8.93468C187.013 6.52705 188.333 4.19708 189.498 1.94478C189.808 1.32346 190.352 0.702137 190.896 0.236143C191.129 0.00314688 191.75 -0.0745186 192.061 0.0808124C192.371 0.236143 192.604 0.779802 192.604 1.16813C192.527 2.02245 192.449 2.87677 192.138 3.73109C190.663 8.85702 189.109 13.9829 187.556 19.0312C185.615 25.1668 183.595 31.3023 181.576 37.4379C180.256 41.4765 178.625 45.3598 176.605 49.0878C173.732 54.5243 169.46 58.4853 163.791 60.8152C157.267 63.3782 150.587 65.0869 143.52 64.6985Z" fill="black"/>
<path d="M119.91 74.795C119.91 76.9696 119.91 79.1442 119.91 81.3189C119.91 82.8722 119.366 83.8042 118.201 84.0372C117.114 84.2702 116.026 83.6488 115.483 82.3285C115.25 81.7072 115.017 81.0082 114.939 80.3869C114.085 72.6203 114.24 64.9315 116.725 57.3979C118.201 53.0486 120.376 49.0877 123.638 45.9034C127.598 42.0201 132.336 40.5445 137.773 41.4765C140.103 41.8648 142.433 42.4085 144.763 42.5638C146.937 42.7191 149.112 42.7191 151.209 42.4085C155.48 41.7871 158.587 39.3018 160.373 35.3409C161.228 33.3216 161.849 31.3023 162.548 29.2053C165.033 21.0504 167.286 12.8956 170.392 5.05134C170.625 4.50768 170.78 3.96403 171.091 3.49803C171.324 3.18737 171.79 2.87671 172.101 2.87671C172.411 2.87671 172.877 3.3427 172.955 3.65336C173.188 4.58535 173.343 5.51734 173.266 6.37166C172.955 9.24528 172.722 12.0412 172.101 14.6819C170.625 20.6621 168.994 26.5647 167.363 32.4673C167.053 33.7099 166.587 34.9526 166.121 36.1952C163.014 44.0394 156.956 47.7674 148.723 48.2334C145.151 48.3887 141.656 47.612 138.239 46.9907C137.54 46.8354 136.763 46.7577 136.064 46.6024C133.035 46.1364 130.394 47.0684 128.142 49.0877C125.657 51.2623 123.948 53.9806 122.706 57.0096C120.919 61.5918 119.987 66.3294 119.832 71.1447C119.832 72.3873 119.832 73.5523 119.91 74.795C119.832 74.795 119.832 74.795 119.91 74.795Z" fill="black"/>
</svg>
