<svg width="114" height="115" viewBox="0 0 114 115" fill="none" xmlns="http://www.w3.org/2000/svg">
<path d="M102.988 77.4458C105.611 92.7353 92.6248 104.187 78.3588 99.3885C78.2308 99.9003 78.1029 100.348 77.9749 100.86C75.0961 112.375 63.1332 118.133 52.4497 113.079C46.2443 110.136 42.278 105.338 40.4227 98.7488C40.2308 98.1731 40.1029 97.5973 39.911 96.9576C39.6551 96.9576 39.4632 96.8936 39.2712 96.9576C30.0591 98.6848 23.214 94.9744 18.0322 87.6175C16.4968 85.4424 15.4733 82.9475 14.9615 80.3246C14.7696 79.301 14.2578 78.7892 13.2982 78.3414C5.49346 74.6949 1.07932 68.5535 0.183696 59.9811C-0.711927 51.2808 4.15003 43.0283 12.3386 40.2774C12.5945 40.2135 12.9143 40.0215 13.2982 39.8936C13.2342 39.3178 13.1063 38.7421 13.0423 38.2303C12.2106 33.7522 12.7864 29.466 14.8335 25.3717C19.0557 16.9912 28.7157 13.3448 37.7359 16.8633C39.0793 17.3751 40.2948 18.0788 41.7662 18.7825C41.8302 18.2067 41.8302 17.631 41.9581 17.1192C42.3419 15.3919 42.5339 13.5367 43.1096 11.8734C46.4362 2.66128 56.0961 -2.07273 65.5002 0.870034C72.7931 3.17306 77.3992 8.29091 79.7662 15.5199C79.9581 16.1596 80.15 16.7993 80.3419 17.4391C80.7258 17.3751 81.0456 17.3751 81.3655 17.3111C88.6584 16.2236 94.7359 18.5906 99.5978 23.9003C103.948 28.6343 105.931 34.3279 105.291 40.8532C105.163 41.9407 105.547 42.5805 106.315 43.2842C112.584 49.0417 115.207 56.0788 113.48 64.4593C112.328 70.0249 109.13 74.1832 104.076 76.87C103.692 77.0619 103.372 77.2539 102.988 77.4458ZM64.6046 75.5266C65.1803 72.264 66.3318 69.4492 68.1871 66.9542C70.1062 64.3953 72.5372 62.5401 75.416 61.2606C75.416 60.8128 75.352 60.4929 75.352 60.237C75.2881 58.3818 75.1601 56.5906 75.2881 54.7353C75.352 53.8397 75.1601 53.3279 74.5204 52.7522C70.8739 49.7454 68.5069 45.8431 67.2275 41.301C67.0995 40.9172 66.9716 40.5333 66.8436 40.1495C64.1568 40.5973 61.5978 40.7892 58.9749 40.2774C56.416 39.7657 54.113 38.5502 51.682 37.2707C51.1062 46.2909 46.948 52.5603 38.3116 55.567C38.6315 56.6545 38.3756 57.6781 39.719 58.2539C46.6921 61.1327 50.9143 66.3784 52.8335 73.6714C52.9615 74.0552 53.0894 74.439 53.2813 74.8869C57.0557 73.9912 60.7022 74.1832 64.6046 75.5266Z" fill="#27DAB7"/>
<path d="M83.2207 59.0855C82.9008 67.0182 79.2544 74.6949 72.0254 80.3885C67.2274 84.1629 61.5338 85.6983 55.4564 85.2505C51.7459 84.9946 48.2914 83.5872 45.2207 81.4761C37.5439 76.2943 33.1298 69.1293 31.7863 60.0451C31.2106 56.3347 31.2746 52.6882 32.0422 49.0417C33.1298 43.7959 35.6247 39.3818 39.719 35.9272C44.0052 32.2808 48.9951 30.1057 54.5608 29.5299C58.2712 29.1461 61.7897 29.9138 65.1803 31.4491C68.8267 33.1124 72.1533 35.2875 75.0321 38.1023C80.5338 43.4761 83.0927 50.1293 83.2207 59.0855Z" fill="#FFDC26"/>
</svg>
