<svg width="96" height="97" viewBox="0 0 96 97" fill="none" xmlns="http://www.w3.org/2000/svg">
<path d="M95.3753 46.3716C94.9576 71.292 76.9286 92.2446 52.6347 95.7947C27.7143 99.4144 4.67336 82.2904 0.635974 57.4396C-2.49648 38.3664 6.20478 19.0148 20.9621 8.92136C29.5938 2.86528 39.2696 -0.127951 49.8503 0.15049C51.0337 0.2201 52.1474 -0.0583405 53.3308 0.0112695C54.7926 0.0808796 56.324 0.0808796 57.7858 0.35932C76.3021 3.97904 90.6418 18.3187 94.1223 36.9046C94.7488 40.0371 94.9576 43.2391 95.3753 46.3716Z" fill="#FB421F"/>
<mask id="mask0_54_59" style="mask-type:alpha" maskUnits="userSpaceOnUse" x="0" y="0" width="96" height="97">
<path d="M95.3753 46.3716C94.9576 71.292 76.9286 92.2446 52.6347 95.7947C27.7143 99.4144 4.67336 82.2904 0.635974 57.4396C-2.49648 38.3664 6.20478 19.0148 20.9621 8.92136C29.5938 2.86528 39.2696 -0.127951 49.8503 0.15049C51.0337 0.2201 52.1474 -0.0583405 53.3308 0.0112695C54.7926 0.0808796 56.324 0.0808796 57.7858 0.35932C76.3021 3.97904 90.6418 18.3187 94.1223 36.9046C94.7488 40.0371 94.9576 43.2391 95.3753 46.3716Z" fill="#FB421F"/>
</mask>
<g mask="url(#mask0_54_59)">
<path d="M-10.7815 47.7629C-15.328 47.8308 -19.8406 47.6611 -24.3872 47.3558C-27.7801 47.1522 -31.207 46.8468 -34.6 46.4397C-37.7215 46.1004 -40.8091 45.4218 -43.6252 43.895C-46.136 42.5378 -48.036 40.6038 -49.2914 38.0252C-49.6986 37.2109 -50.0379 36.3966 -50.4111 35.5823C-51.0218 34.1911 -51.1575 32.7661 -50.8182 31.2732C-50.5129 29.95 -50.1057 28.6606 -49.3253 27.507C-48.6807 26.5909 -47.8325 26.0481 -46.7128 25.9124C-46.4413 25.8784 -46.136 25.7766 -45.8645 25.6409C-41.4537 23.3337 -36.9411 21.3319 -32.2249 19.6693C-28.798 18.4479 -25.439 17.1246 -21.9103 16.1407C-13.3601 13.7995 -4.67416 12.8495 4.18143 13.0192C8.08332 13.087 11.9852 13.2906 15.8532 13.8674C18.4997 14.2746 21.1462 14.8174 23.6569 15.8353C25.048 16.3782 26.3713 17.0907 27.5928 17.9389C28.5428 18.6175 29.391 19.364 30.0018 20.3479C31.7661 23.198 32.8858 26.2856 33.1233 29.6446C33.3268 32.6983 32.3429 35.2769 30.1375 37.4144C26.982 40.4681 23.2837 42.6396 19.1782 44.0986C15.1406 45.5575 10.9673 46.4058 6.6922 46.6772C0.856336 47.1522 -4.9456 47.4236 -10.7815 47.7629ZM-8.10104 45.7611C-5.92955 45.6593 -1.65444 45.4897 2.58674 45.2861C5.94576 45.1164 9.30477 44.7432 12.5959 44.0307C16.43 43.2164 20.1283 41.961 23.5212 39.9592C25.4891 38.8056 27.2535 37.4484 28.8481 35.8198C29.9678 34.6662 30.85 33.3429 30.9857 31.7143C31.0875 30.6625 31.0875 29.6107 30.9518 28.5589C30.7143 26.4552 29.9339 24.5213 29.0178 22.6212C28.3392 21.1962 27.2874 20.0765 25.9641 19.1943C24.2677 18.0747 22.4016 17.3282 20.4676 16.8193C16.0567 15.5978 11.5102 15.2585 6.92971 15.0549C1.97601 14.8174 -2.97769 14.9871 -7.93139 15.496C-13.5976 16.1067 -19.162 17.1246 -24.5568 18.9229C-31.0034 21.0604 -37.4161 23.4016 -43.5913 26.2856C-44.677 26.7945 -45.8306 27.1677 -46.7806 28.016C-47.2556 28.4571 -47.7307 28.8303 -47.9682 29.4071C-48.2735 30.2553 -48.545 31.1036 -48.7485 31.9518C-48.9861 32.834 -48.8503 33.6822 -48.4771 34.4965C-48.07 35.4465 -47.6628 36.3966 -47.1878 37.3127C-46.1699 39.2806 -44.677 40.8074 -42.7091 41.8931C-40.7073 42.9789 -38.5697 43.6914 -36.3304 43.9968C-33.4803 44.4039 -30.6302 44.7432 -27.7801 45.0146C-21.8764 45.5575 -16.0405 45.829 -8.10104 45.7611Z" fill="black"/>
<path d="M-10.7815 47.7629C-15.328 47.8308 -19.8406 47.6611 -24.3872 47.3558C-27.7801 47.1522 -31.207 46.8468 -34.6 46.4397C-37.7215 46.1004 -40.8091 45.4218 -43.6252 43.895C-46.136 42.5378 -48.036 40.6038 -49.2914 38.0252C-49.6986 37.2109 -50.0379 36.3966 -50.4111 35.5823C-51.0218 34.1911 -51.1575 32.7661 -50.8182 31.2732C-50.5129 29.95 -50.1057 28.6606 -49.3253 27.507C-48.6807 26.5909 -47.8325 26.0481 -46.7128 25.9124C-46.4413 25.8784 -46.136 25.7766 -45.8645 25.6409C-41.4537 23.3337 -36.9411 21.3319 -32.2249 19.6693C-28.798 18.4479 -25.439 17.1246 -21.9103 16.1407C-13.3601 13.7995 -4.67416 12.8495 4.18143 13.0192C8.08332 13.087 11.9852 13.2906 15.8532 13.8674C18.4997 14.2746 21.1462 14.8174 23.6569 15.8353C25.048 16.3782 26.3713 17.0907 27.5928 17.9389C28.5428 18.6175 29.391 19.364 30.0018 20.3479C31.7661 23.198 32.8858 26.2856 33.1233 29.6446C33.3268 32.6983 32.3429 35.2769 30.1375 37.4144C26.982 40.4681 23.2837 42.6396 19.1782 44.0986C15.1406 45.5575 10.9673 46.4058 6.6922 46.6772C0.856336 47.1522 -4.9456 47.4236 -10.7815 47.7629ZM-8.10104 45.7611C-5.92955 45.6593 -1.65444 45.4897 2.58674 45.2861C5.94576 45.1164 9.30477 44.7432 12.5959 44.0307C16.43 43.2164 20.1283 41.961 23.5212 39.9592C25.4891 38.8056 27.2535 37.4484 28.8481 35.8198C29.9678 34.6662 30.85 33.3429 30.9857 31.7143C31.0875 30.6625 31.0875 29.6107 30.9518 28.5589C30.7143 26.4552 29.9339 24.5213 29.0178 22.6212C28.3392 21.1962 27.2874 20.0765 25.9641 19.1943C24.2677 18.0747 22.4016 17.3282 20.4676 16.8193C16.0567 15.5978 11.5102 15.2585 6.92971 15.0549C1.97601 14.8174 -2.97769 14.9871 -7.93139 15.496C-13.5976 16.1067 -19.162 17.1246 -24.5568 18.9229C-31.0034 21.0604 -37.4161 23.4016 -43.5913 26.2856C-44.677 26.7945 -45.8306 27.1677 -46.7806 28.016C-47.2556 28.4571 -47.7307 28.8303 -47.9682 29.4071C-48.2735 30.2553 -48.545 31.1036 -48.7485 31.9518C-48.9861 32.834 -48.8503 33.6822 -48.4771 34.4965C-48.07 35.4465 -47.6628 36.3966 -47.1878 37.3127C-46.1699 39.2806 -44.677 40.8074 -42.7091 41.8931C-40.7073 42.9789 -38.5697 43.6914 -36.3304 43.9968C-33.4803 44.4039 -30.6302 44.7432 -27.7801 45.0146C-21.8764 45.5575 -16.0405 45.829 -8.10104 45.7611Z" fill="black"/>
<path d="M-10.7815 47.7629C-15.328 47.8308 -19.8406 47.6611 -24.3872 47.3558C-27.7801 47.1522 -31.207 46.8468 -34.6 46.4397C-37.7215 46.1004 -40.8091 45.4218 -43.6252 43.895C-46.136 42.5378 -48.036 40.6038 -49.2914 38.0252C-49.6986 37.2109 -50.0379 36.3966 -50.4111 35.5823C-51.0218 34.1911 -51.1575 32.7661 -50.8182 31.2732C-50.5129 29.95 -50.1057 28.6606 -49.3253 27.507C-48.6807 26.5909 -47.8325 26.0481 -46.7128 25.9124C-46.4413 25.8784 -46.136 25.7766 -45.8645 25.6409C-41.4537 23.3337 -36.9411 21.3319 -32.2249 19.6693C-28.798 18.4479 -25.439 17.1246 -21.9103 16.1407C-13.3601 13.7995 -4.67416 12.8495 4.18143 13.0192C8.08332 13.087 11.9852 13.2906 15.8532 13.8674C18.4997 14.2746 21.1462 14.8174 23.6569 15.8353C25.048 16.3782 26.3713 17.0907 27.5928 17.9389C28.5428 18.6175 29.391 19.364 30.0018 20.3479C31.7661 23.198 32.8858 26.2856 33.1233 29.6446C33.3268 32.6983 32.3429 35.2769 30.1375 37.4144C26.982 40.4681 23.2837 42.6396 19.1782 44.0986C15.1406 45.5575 10.9673 46.4058 6.6922 46.6772C0.856336 47.1522 -4.9456 47.4236 -10.7815 47.7629ZM-8.10104 45.7611C-5.92955 45.6593 -1.65444 45.4897 2.58674 45.2861C5.94576 45.1164 9.30477 44.7432 12.5959 44.0307C16.43 43.2164 20.1283 41.961 23.5212 39.9592C25.4891 38.8056 27.2535 37.4484 28.8481 35.8198C29.9678 34.6662 30.85 33.3429 30.9857 31.7143C31.0875 30.6625 31.0875 29.6107 30.9518 28.5589C30.7143 26.4552 29.9339 24.5213 29.0178 22.6212C28.3392 21.1962 27.2874 20.0765 25.9641 19.1943C24.2677 18.0747 22.4016 17.3282 20.4676 16.8193C16.0567 15.5978 11.5102 15.2585 6.92971 15.0549C1.97601 14.8174 -2.97769 14.9871 -7.93139 15.496C-13.5976 16.1067 -19.162 17.1246 -24.5568 18.9229C-31.0034 21.0604 -37.4161 23.4016 -43.5913 26.2856C-44.677 26.7945 -45.8306 27.1677 -46.7806 28.016C-47.2556 28.4571 -47.7307 28.8303 -47.9682 29.4071C-48.2735 30.2553 -48.545 31.1036 -48.7485 31.9518C-48.9861 32.834 -48.8503 33.6822 -48.4771 34.4965C-48.07 35.4465 -47.6628 36.3966 -47.1878 37.3127C-46.1699 39.2806 -44.677 40.8074 -42.7091 41.8931C-40.7073 42.9789 -38.5697 43.6914 -36.3304 43.9968C-33.4803 44.4039 -30.6302 44.7432 -27.7801 45.0146C-21.8764 45.5575 -16.0405 45.829 -8.10104 45.7611Z" fill="black"/>
<path d="M93.2185 95.7629C88.672 95.8308 84.1594 95.6611 79.6128 95.3558C76.2199 95.1522 72.793 94.8468 69.4 94.4397C66.2785 94.1004 63.1909 93.4218 60.3748 91.895C57.864 90.5378 55.964 88.6038 54.7086 86.0252C54.3014 85.2109 53.9621 84.3966 53.5889 83.5823C52.9782 82.1911 52.8425 80.7661 53.1818 79.2732C53.4871 77.95 53.8943 76.6606 54.6747 75.507C55.3193 74.5909 56.1675 74.0481 57.2872 73.9124C57.5587 73.8784 57.864 73.7766 58.1355 73.6409C62.5463 71.3337 67.0589 69.3319 71.7751 67.6693C75.202 66.4479 78.561 65.1246 82.0897 64.1407C90.6399 61.7995 99.3258 60.8495 108.181 61.0192C112.083 61.087 115.985 61.2906 119.853 61.8674C122.5 62.2746 125.146 62.8174 127.657 63.8353C129.048 64.3782 130.371 65.0907 131.593 65.9389C132.543 66.6175 133.391 67.364 134.002 68.3479C135.766 71.198 136.886 74.2856 137.123 77.6446C137.327 80.6983 136.343 83.2769 134.137 85.4144C130.982 88.4681 127.284 90.6396 123.178 92.0986C119.141 93.5575 114.967 94.4058 110.692 94.6772C104.856 95.1522 99.0544 95.4236 93.2185 95.7629ZM95.899 93.7611C98.0704 93.6593 102.346 93.4897 106.587 93.2861C109.946 93.1164 113.305 92.7432 116.596 92.0307C120.43 91.2164 124.128 89.961 127.521 87.9592C129.489 86.8056 131.253 85.4484 132.848 83.8198C133.968 82.6662 134.85 81.3429 134.986 79.7143C135.087 78.6625 135.087 77.6107 134.952 76.5589C134.714 74.4552 133.934 72.5213 133.018 70.6212C132.339 69.1962 131.287 68.0765 129.964 67.1943C128.268 66.0747 126.402 65.3282 124.468 64.8193C120.057 63.5978 115.51 63.2585 110.93 63.0549C105.976 62.8174 101.022 62.9871 96.0686 63.496C90.4024 64.1067 84.838 65.1246 79.4432 66.9229C72.9966 69.0604 66.5839 71.4016 60.4087 74.2856C59.323 74.7945 58.1694 75.1677 57.2194 76.016C56.7444 76.4571 56.2693 76.8303 56.0318 77.4071C55.7265 78.2553 55.455 79.1036 55.2515 79.9518C55.0139 80.834 55.1497 81.6822 55.5229 82.4965C55.93 83.4465 56.3372 84.3966 56.8122 85.3127C57.8301 87.2806 59.323 88.8074 61.2909 89.8931C63.2927 90.9789 65.4303 91.6914 67.6696 91.9968C70.5197 92.4039 73.3698 92.7432 76.2199 93.0146C82.1236 93.5575 87.9595 93.829 95.899 93.7611Z" fill="black"/>
<path d="M93.2185 95.7629C88.672 95.8308 84.1594 95.6611 79.6128 95.3558C76.2199 95.1522 72.793 94.8468 69.4 94.4397C66.2785 94.1004 63.1909 93.4218 60.3748 91.895C57.864 90.5378 55.964 88.6038 54.7086 86.0252C54.3014 85.2109 53.9621 84.3966 53.5889 83.5823C52.9782 82.1911 52.8425 80.7661 53.1818 79.2732C53.4871 77.95 53.8943 76.6606 54.6747 75.507C55.3193 74.5909 56.1675 74.0481 57.2872 73.9124C57.5587 73.8784 57.864 73.7766 58.1355 73.6409C62.5463 71.3337 67.0589 69.3319 71.7751 67.6693C75.202 66.4479 78.561 65.1246 82.0897 64.1407C90.6399 61.7995 99.3258 60.8495 108.181 61.0192C112.083 61.087 115.985 61.2906 119.853 61.8674C122.5 62.2746 125.146 62.8174 127.657 63.8353C129.048 64.3782 130.371 65.0907 131.593 65.9389C132.543 66.6175 133.391 67.364 134.002 68.3479C135.766 71.198 136.886 74.2856 137.123 77.6446C137.327 80.6983 136.343 83.2769 134.137 85.4144C130.982 88.4681 127.284 90.6396 123.178 92.0986C119.141 93.5575 114.967 94.4058 110.692 94.6772C104.856 95.1522 99.0544 95.4236 93.2185 95.7629ZM95.899 93.7611C98.0704 93.6593 102.346 93.4897 106.587 93.2861C109.946 93.1164 113.305 92.7432 116.596 92.0307C120.43 91.2164 124.128 89.961 127.521 87.9592C129.489 86.8056 131.253 85.4484 132.848 83.8198C133.968 82.6662 134.85 81.3429 134.986 79.7143C135.087 78.6625 135.087 77.6107 134.952 76.5589C134.714 74.4552 133.934 72.5213 133.018 70.6212C132.339 69.1962 131.287 68.0765 129.964 67.1943C128.268 66.0747 126.402 65.3282 124.468 64.8193C120.057 63.5978 115.51 63.2585 110.93 63.0549C105.976 62.8174 101.022 62.9871 96.0686 63.496C90.4024 64.1067 84.838 65.1246 79.4432 66.9229C72.9966 69.0604 66.5839 71.4016 60.4087 74.2856C59.323 74.7945 58.1694 75.1677 57.2194 76.016C56.7444 76.4571 56.2693 76.8303 56.0318 77.4071C55.7265 78.2553 55.455 79.1036 55.2515 79.9518C55.0139 80.834 55.1497 81.6822 55.5229 82.4965C55.93 83.4465 56.3372 84.3966 56.8122 85.3127C57.8301 87.2806 59.323 88.8074 61.2909 89.8931C63.2927 90.9789 65.4303 91.6914 67.6696 91.9968C70.5197 92.4039 73.3698 92.7432 76.2199 93.0146C82.1236 93.5575 87.9595 93.829 95.899 93.7611Z" fill="black"/>
<path d="M93.2185 95.7629C88.672 95.8308 84.1594 95.6611 79.6128 95.3558C76.2199 95.1522 72.793 94.8468 69.4 94.4397C66.2785 94.1004 63.1909 93.4218 60.3748 91.895C57.864 90.5378 55.964 88.6038 54.7086 86.0252C54.3014 85.2109 53.9621 84.3966 53.5889 83.5823C52.9782 82.1911 52.8425 80.7661 53.1818 79.2732C53.4871 77.95 53.8943 76.6606 54.6747 75.507C55.3193 74.5909 56.1675 74.0481 57.2872 73.9124C57.5587 73.8784 57.864 73.7766 58.1355 73.6409C62.5463 71.3337 67.0589 69.3319 71.7751 67.6693C75.202 66.4479 78.561 65.1246 82.0897 64.1407C90.6399 61.7995 99.3258 60.8495 108.181 61.0192C112.083 61.087 115.985 61.2906 119.853 61.8674C122.5 62.2746 125.146 62.8174 127.657 63.8353C129.048 64.3782 130.371 65.0907 131.593 65.9389C132.543 66.6175 133.391 67.364 134.002 68.3479C135.766 71.198 136.886 74.2856 137.123 77.6446C137.327 80.6983 136.343 83.2769 134.137 85.4144C130.982 88.4681 127.284 90.6396 123.178 92.0986C119.141 93.5575 114.967 94.4058 110.692 94.6772C104.856 95.1522 99.0544 95.4236 93.2185 95.7629ZM95.899 93.7611C98.0704 93.6593 102.346 93.4897 106.587 93.2861C109.946 93.1164 113.305 92.7432 116.596 92.0307C120.43 91.2164 124.128 89.961 127.521 87.9592C129.489 86.8056 131.253 85.4484 132.848 83.8198C133.968 82.6662 134.85 81.3429 134.986 79.7143C135.087 78.6625 135.087 77.6107 134.952 76.5589C134.714 74.4552 133.934 72.5213 133.018 70.6212C132.339 69.1962 131.287 68.0765 129.964 67.1943C128.268 66.0747 126.402 65.3282 124.468 64.8193C120.057 63.5978 115.51 63.2585 110.93 63.0549C105.976 62.8174 101.022 62.9871 96.0686 63.496C90.4024 64.1067 84.838 65.1246 79.4432 66.9229C72.9966 69.0604 66.5839 71.4016 60.4087 74.2856C59.323 74.7945 58.1694 75.1677 57.2194 76.016C56.7444 76.4571 56.2693 76.8303 56.0318 77.4071C55.7265 78.2553 55.455 79.1036 55.2515 79.9518C55.0139 80.834 55.1497 81.6822 55.5229 82.4965C55.93 83.4465 56.3372 84.3966 56.8122 85.3127C57.8301 87.2806 59.323 88.8074 61.2909 89.8931C63.2927 90.9789 65.4303 91.6914 67.6696 91.9968C70.5197 92.4039 73.3698 92.7432 76.2199 93.0146C82.1236 93.5575 87.9595 93.829 95.899 93.7611Z" fill="black"/>
</g>
</svg>
