<svg width="114" height="122" viewBox="0 0 114 122" fill="none" xmlns="http://www.w3.org/2000/svg">
<path d="M50.1802 121.074C47.5405 120.927 45.194 120.047 43.2876 118.141C42.1144 116.967 41.0145 115.648 40.0612 114.181C36.7616 109.122 33.3153 104.209 29.1357 99.8092C29.0624 99.7359 29.0624 99.7359 28.9891 99.6626C21.2899 89.9103 13.2974 80.378 6.18484 70.1857C3.69177 66.5928 2.00529 62.7065 0.538774 58.527C-0.414458 55.7406 -0.121156 53.0275 1.56533 50.6078C2.59189 49.1413 3.83842 47.7481 5.23161 46.6482C14.8373 38.949 23.7097 30.4433 32.802 22.0842C39.0347 16.4381 45.414 11.012 51.7933 5.58591C53.3332 4.26605 55.0197 3.01951 56.7795 1.99295C61.619 -0.940068 66.4584 -0.646766 70.7847 2.94619C72.6911 4.48602 74.3776 6.31916 75.8441 8.29895C81.7102 15.9981 86.9896 24.0639 91.9024 32.4231C94.8354 37.4092 97.9151 42.3953 100.995 47.2348C104.368 52.5143 107.447 58.0137 110.087 63.6597C111.26 66.1528 112.287 68.7192 112.8 71.4323C113.387 74.5853 112.8 77.5183 110.82 80.0847C109.501 81.6978 108.034 83.311 106.421 84.5575C102.535 87.6372 98.4284 90.4969 94.3955 93.5032C89.8493 96.8029 85.2298 100.029 80.7569 103.402C74.1576 108.462 67.1184 112.935 60.0791 117.407C58.0993 118.654 55.8996 119.46 53.6998 120.34C52.6732 120.78 51.3534 120.854 50.1802 121.074Z" fill="#3E89FF"/>
<mask id="mask0_14_3" style="mask-type:alpha" maskUnits="userSpaceOnUse" x="0" y="0" width="114" height="122">
<path d="M50.1802 121.074C47.5405 120.927 45.194 120.047 43.2876 118.141C42.1144 116.967 41.0145 115.648 40.0612 114.181C36.7616 109.122 33.3153 104.209 29.1357 99.8092C29.0624 99.7359 29.0624 99.7359 28.9891 99.6626C21.2899 89.9103 13.2974 80.378 6.18484 70.1857C3.69177 66.5928 2.00529 62.7065 0.538774 58.527C-0.414458 55.7406 -0.121156 53.0275 1.56533 50.6078C2.59189 49.1413 3.83842 47.7481 5.23161 46.6482C14.8373 38.949 23.7097 30.4433 32.802 22.0842C39.0347 16.4381 45.414 11.012 51.7933 5.58591C53.3332 4.26605 55.0197 3.01951 56.7795 1.99295C61.619 -0.940068 66.4584 -0.646766 70.7847 2.94619C72.6911 4.48602 74.3776 6.31916 75.8441 8.29895C81.7102 15.9981 86.9896 24.0639 91.9024 32.4231C94.8354 37.4092 97.9151 42.3953 100.995 47.2348C104.368 52.5143 107.447 58.0137 110.087 63.6597C111.26 66.1528 112.287 68.7192 112.8 71.4323C113.387 74.5853 112.8 77.5183 110.82 80.0847C109.501 81.6978 108.034 83.311 106.421 84.5575C102.535 87.6372 98.4284 90.4969 94.3955 93.5032C89.8493 96.8029 85.2298 100.029 80.7569 103.402C74.1576 108.462 67.1184 112.935 60.0791 117.407C58.0993 118.654 55.8996 119.46 53.6998 120.34C52.6732 120.78 51.3534 120.854 50.1802 121.074Z" fill="#FB421F"/>
</mask>
<g mask="url(#mask0_14_3)">
<path d="M119.693 125.913C118.74 125.62 118.006 124.887 117.346 124.08C116.027 122.467 115.22 120.56 114.56 118.654C112.947 113.888 112.067 108.902 111.48 103.916C111.04 100.029 110.747 96.0698 110.307 92.1835C110.307 91.8902 110.234 91.6702 110.087 91.0103C109.501 91.8902 109.207 92.4035 108.841 92.9168C104.661 99.4427 100.115 105.675 94.4688 111.101C92.4157 113.081 90.1426 114.914 87.7962 116.528C86.403 117.481 84.7165 118.214 83.03 118.654C79.2904 119.681 76.1374 118.141 74.4509 114.694C73.2777 112.348 72.8378 109.782 72.8378 107.215C72.8378 104.209 73.0577 101.276 73.2044 98.2695C73.2044 97.9029 73.2777 97.5363 73.3511 96.7297C72.7644 97.4629 72.3978 97.9029 72.0312 98.3428C69.0248 102.376 65.7985 106.262 62.2056 109.782C59.7858 112.128 57.2928 114.328 54.3597 116.014C52.6732 117.041 50.9134 117.774 49.007 118.141C45.7806 118.654 43.0676 117.334 41.6011 114.401C40.5745 112.348 40.2079 110.075 40.0612 107.802C39.6946 102.082 40.4279 96.4364 41.2345 90.7903C41.5278 88.9572 41.8211 87.124 41.8944 85.1442C41.5278 85.6575 41.1611 86.1708 40.8678 86.6841C37.4949 92.1102 34.0486 97.3163 29.7957 102.082C27.9625 104.136 25.9827 106.042 23.8563 107.802C22.6098 108.828 21.0699 109.635 19.6034 110.148C16.4504 111.248 13.6641 110.222 11.8309 107.435C10.6577 105.675 10.1444 103.696 9.7778 101.716C9.04455 97.3163 8.97122 92.9168 9.41117 88.5906C9.85113 83.6044 10.5111 78.545 11.0243 73.5588C11.0977 72.9722 11.171 72.3856 10.951 71.6524C10.5844 72.0923 10.2178 72.5323 9.85113 73.0455C6.0382 78.2516 1.85864 83.1645 -3.05417 87.4173C-4.88731 88.9572 -6.8671 90.3504 -8.84689 91.6702C-9.43349 92.0368 -10.1667 92.5501 -10.9733 91.6702C-10.7534 91.3769 -10.6067 91.0836 -10.3134 90.937C-7.01375 88.8105 -4.15405 86.0242 -1.44101 83.2378C3.39848 78.2516 7.65136 72.8256 11.4643 67.0328C11.9776 66.2263 12.3442 65.273 12.5642 64.3198C15.7172 48.4815 19.8967 32.9365 26.276 18.0514C28.1825 13.6518 30.2356 9.39895 32.9487 5.5127C34.0486 3.89954 35.2951 2.43303 36.615 1.03984C37.4215 0.0132823 38.5214 -0.793299 39.7679 -0.206695C41.0878 0.453235 41.1611 1.84642 40.9412 3.01963C40.2812 6.39261 39.6946 9.83891 38.6681 13.1386C33.3153 31.1033 25.6894 48.0415 15.7905 63.9532C14.7639 65.5663 14.104 67.2528 13.8107 69.1593C12.6375 76.1252 11.5376 83.1645 11.2443 90.277C11.0977 94.1633 11.0243 98.0495 11.9042 101.862C12.1975 103.109 12.6375 104.356 13.2241 105.455C14.6173 108.095 16.8904 108.975 19.5301 107.582C21.0699 106.849 22.6098 105.822 23.8563 104.576C26.4227 102.009 28.8424 99.2961 31.1155 96.4364C36.0283 90.1304 40.0612 83.2378 43.8009 76.1985C44.0942 75.6119 44.3875 74.8787 44.5341 74.2187C47.6871 60.3602 52.0866 46.795 56.3395 33.2298C59.4925 23.2575 62.7188 13.2119 66.7517 3.53291C67.5583 1.55312 68.5116 -0.426672 69.5381 -2.33314C69.8314 -2.91974 70.2714 -3.50634 70.858 -3.9463C71.7379 -4.67955 72.9111 -4.31293 73.1311 -3.13972C73.2777 -2.33314 73.2777 -1.52655 73.2777 -0.719973C72.9111 4.33949 71.6646 9.2523 70.4913 14.1651C65.3586 35.9428 57.0728 56.6206 46.7339 76.4185C46.0739 77.665 45.5607 78.9849 45.3407 80.3781C44.2408 86.1708 43.2142 91.8902 42.3343 97.6829C41.8211 101.276 41.6011 104.942 42.1144 108.535C42.3343 109.928 42.6276 111.321 43.1409 112.641C44.2408 115.428 46.3672 116.454 49.2269 115.721C50.6935 115.354 52.16 114.694 53.4065 113.888C55.5329 112.421 57.5861 110.882 59.4925 109.195C65.0653 104.136 69.6114 98.2695 73.791 92.1102C74.1576 91.5969 74.3776 90.937 74.5243 90.3504C78.0439 72.3123 83.1767 54.7141 89.1894 37.336C92.4157 27.9503 95.862 18.7113 99.8949 9.61893C100.701 7.85912 101.581 6.0993 102.535 4.41282C103.048 3.45958 103.708 2.50635 105.028 2.87298C106.348 3.23961 106.421 4.41282 106.348 5.43937C106.128 8.73902 105.981 12.0387 105.468 15.265C102.168 37.116 95.422 57.8671 85.1565 77.4451C82.8101 81.9913 80.0237 86.2441 77.5306 90.717C77.164 91.4502 76.724 92.1835 76.5774 92.9168C75.7708 97.6829 75.0375 102.449 75.4042 107.289C75.5508 109.048 75.8441 110.882 76.4307 112.641C77.6039 116.014 80.0237 117.114 83.3966 115.868C84.8632 115.354 86.3297 114.621 87.5762 113.668C89.9226 111.835 92.1957 109.928 94.3222 107.802C100.335 101.643 105.248 94.6766 109.574 87.1974C110.014 86.3908 110.16 85.5842 110.16 84.7043C110.087 75.4653 112.14 66.6662 115.513 58.1604C116.246 56.4006 117.2 54.6408 118.226 53.0277C118.74 52.1478 119.546 51.4145 120.426 50.8279C121.893 49.8747 123.506 50.4613 123.872 52.1478C124.166 53.5409 124.239 55.0808 124.092 56.474C123.726 60.4335 122.626 64.3198 121.306 68.0594C119.18 74.3654 116.32 80.3048 113.167 86.1708C112.8 86.8307 112.434 87.7106 112.434 88.4439C112.8 98.5628 113.46 108.608 115.953 118.434C116.246 119.754 116.686 121.074 117.273 122.247C117.786 123.42 118.74 124.593 119.693 125.913ZM104.001 6.3926C97.9884 15.1183 77.9706 76.4185 78.1905 84.631C82.9567 78.3983 92.489 56.474 97.1085 40.9289C100.481 29.6368 102.975 18.198 104.001 6.3926ZM39.328 1.77309C39.1813 1.69977 38.9614 1.62644 38.8147 1.55312C38.3748 1.99307 37.7882 2.28637 37.4215 2.79965C36.3216 4.19284 35.1484 5.5127 34.2685 7.05254C32.5087 10.0589 30.8222 13.0652 29.429 16.2182C24.2229 27.5837 20.4833 39.6091 17.477 51.8545C16.8171 54.4208 16.3038 56.9139 15.7172 59.4803C15.7905 59.5536 15.9371 59.5536 16.0105 59.627C16.3771 59.0404 16.7437 58.4538 17.1104 57.8671C23.8563 46.355 29.429 34.3296 33.9752 21.791C36.0283 16.1449 38.0081 10.5722 39.0347 4.63279C39.2547 3.75288 39.2547 2.72633 39.328 1.77309ZM49.0803 65.713C50.1069 63.5865 51.0601 61.4601 52.0866 59.407C60.2258 41.8088 66.4585 23.5508 70.418 4.55947C70.7847 2.9463 71.0046 1.33314 71.2979 -0.28002C67.7783 3.89954 51.2067 53.3943 49.0803 65.713ZM121.746 52.9543C117.786 55.0808 112.434 73.7055 112.654 80.5247C112.8 80.3781 112.947 80.3048 113.02 80.1581C116.54 73.0455 119.473 65.7863 121.086 58.0138C121.453 56.4006 121.526 54.8608 121.746 52.9543Z" fill="black"/>
</g>
</svg>
