<svg width="88" height="99" viewBox="0 0 88 99" fill="none" xmlns="http://www.w3.org/2000/svg">
<path d="M87.7529 45.1272C87.4771 48.8125 87.2515 52.5481 86.9255 56.2585C86.6247 59.643 86.1233 63.0275 85.0703 66.2867C83.3405 71.6267 80.4573 76.3149 76.8722 80.602C72.7857 85.4908 67.6463 88.8502 61.7046 91.0815C57.3674 92.686 52.9299 93.9145 48.4673 95.0426C44.4811 96.0455 40.4447 96.7725 36.4084 97.5748C33.9765 98.0511 31.5698 98.5275 29.1128 98.703C27.2576 98.8534 25.4024 99.0038 23.5221 98.7782C21.6167 98.5275 19.7866 98.1013 18.0317 97.3241C17.6055 97.1235 17.1542 96.9229 16.728 96.7224C13.7947 95.4688 11.2125 93.739 8.85583 91.608C7.67752 90.5299 6.54934 89.4268 5.59666 88.1482C5.3961 87.8725 5.17046 87.6218 4.99497 87.3209C3.89186 85.3905 2.71355 83.4851 1.81101 81.4544C1.1341 79.9251 0.657764 78.3457 0.48227 76.6659C0.181423 73.8831 -0.0943531 71.1253 0.0309997 68.3174C0.181423 65.3842 0.632693 62.5011 1.33467 59.643C2.162 56.3086 3.08961 53.0244 3.96708 49.7151C4.66905 47.0325 5.37103 44.3249 5.74709 41.5421C5.97272 39.9376 6.12314 38.308 6.17329 36.7035C6.22343 34.5223 6.14822 32.3412 6.09807 30.135C6.04793 27.4524 6.12314 24.7699 6.62456 22.1124C7.7778 15.9701 10.8615 10.956 15.65 6.99486C18.9091 4.28724 22.6446 2.50723 26.7562 1.45427C31.4945 0.225811 36.3081 -0.250529 41.1467 0.125529C44.9574 0.401305 48.6929 1.17849 52.3282 2.38188C58.2699 4.36245 64.0612 6.71908 69.6018 9.62727C72.0838 10.9309 74.4153 12.4602 76.5714 14.2152C81.1844 18.0008 84.1928 22.8144 85.8726 28.5054C87.3517 33.4694 87.9785 38.5336 87.7529 43.7232C87.7278 44.1745 87.7529 44.6508 87.7529 45.1272Z" fill="#9F26FF"/>
<mask id="mask0_54_35" style="mask-type:alpha" maskUnits="userSpaceOnUse" x="0" y="0" width="88" height="99">
<path d="M87.7529 45.1272C87.4771 48.8125 87.2515 52.5481 86.9255 56.2585C86.6247 59.643 86.1233 63.0275 85.0703 66.2867C83.3405 71.6267 80.4573 76.3149 76.8722 80.602C72.7857 85.4908 67.6463 88.8502 61.7046 91.0815C57.3674 92.686 52.9299 93.9145 48.4673 95.0426C44.4811 96.0455 40.4447 96.7725 36.4084 97.5748C33.9765 98.0511 31.5698 98.5275 29.1128 98.703C27.2576 98.8534 25.4024 99.0038 23.5221 98.7782C21.6167 98.5275 19.7866 98.1013 18.0317 97.3241C17.6055 97.1235 17.1542 96.9229 16.728 96.7224C13.7947 95.4688 11.2125 93.739 8.85583 91.608C7.67752 90.5299 6.54934 89.4268 5.59666 88.1482C5.3961 87.8725 5.17046 87.6218 4.99497 87.3209C3.89186 85.3905 2.71355 83.4851 1.81101 81.4544C1.1341 79.9251 0.657764 78.3457 0.48227 76.6659C0.181423 73.8831 -0.0943531 71.1253 0.0309997 68.3174C0.181423 65.3842 0.632693 62.5011 1.33467 59.643C2.162 56.3086 3.08961 53.0244 3.96708 49.7151C4.66905 47.0325 5.37103 44.3249 5.74709 41.5421C5.97272 39.9376 6.12314 38.308 6.17329 36.7035C6.22343 34.5223 6.14822 32.3412 6.09807 30.135C6.04793 27.4524 6.12314 24.7699 6.62456 22.1124C7.7778 15.9701 10.8615 10.956 15.65 6.99486C18.9091 4.28724 22.6446 2.50723 26.7562 1.45427C31.4945 0.225811 36.3081 -0.250529 41.1467 0.125529C44.9574 0.401305 48.6929 1.17849 52.3282 2.38188C58.2699 4.36245 64.0612 6.71908 69.6018 9.62727C72.0838 10.9309 74.4153 12.4602 76.5714 14.2152C81.1844 18.0008 84.1928 22.8144 85.8726 28.5054C87.3517 33.4694 87.9785 38.5336 87.7529 43.7232C87.7278 44.1745 87.7529 44.6508 87.7529 45.1272Z" fill="black"/>
</mask>
<g mask="url(#mask0_54_35)">
<path d="M54.4849 22.5494C50.583 22.6851 46.7151 22.5494 42.915 21.6333C41.6256 21.328 40.3702 20.8529 39.2166 20.1404C37.8255 19.2583 36.7737 18.1047 36.2309 16.51C35.7219 14.9831 36.0612 13.6938 37.1809 12.5742C37.9273 11.8616 38.8095 11.2848 39.7595 10.9116C41.2524 10.3687 42.5757 9.58836 43.9328 8.77405C46.5793 7.14544 49.4633 6.02577 52.3813 4.94003C57.1653 3.17569 62.0173 1.75065 67.0388 1.00421C69.2782 0.664912 71.5514 0.495265 73.8247 0.291689C75.2837 0.155971 76.7426 0.0541828 78.2016 0.0202534C81.866 -0.0815349 85.5304 0.189901 89.093 1.07207C91.8073 1.75066 94.1824 3.10784 96.1164 5.1436C96.6592 5.7204 97.1682 6.33114 97.5753 7.00972C98.5932 8.7062 98.5932 10.4705 97.5753 12.167C96.9307 13.2867 95.9806 14.1349 94.9288 14.8814C93.0288 16.1707 90.9591 17.1207 88.7876 17.8672C85.3607 19.0208 81.8321 19.7333 78.2695 20.2761C73.7229 21.0226 69.1085 21.3958 64.528 21.769C61.2029 22.0405 57.8439 22.3119 54.4849 22.5494ZM56.385 20.7172C58.2172 20.5815 61.8137 20.3101 65.4441 20.0047C70.0585 19.6315 74.6729 19.1565 79.2534 18.3761C82.6803 17.7654 86.0732 17.0189 89.3305 15.7975C90.993 15.1867 92.5877 14.4403 94.0467 13.4224C94.8949 12.8456 95.6074 12.167 96.1164 11.2848C96.7271 10.1991 96.761 9.11335 96.1164 8.02761C95.7771 7.45081 95.336 6.90793 94.861 6.43292C92.927 4.46501 90.5859 3.31141 87.9054 2.76854C84.3089 2.05602 80.6445 1.78459 76.9801 2.05602C75.8605 2.12388 74.7747 2.19174 73.6551 2.29353C71.7889 2.46318 69.9228 2.59889 68.0567 2.87033C63.3405 3.54892 58.76 4.80431 54.3153 6.39899C51.2955 7.48473 48.3097 8.63834 45.4257 9.96159C45.1543 10.0973 44.8489 10.233 44.7132 10.4705C44.3739 11.0134 43.8989 11.3527 43.356 11.5902C42.6096 11.9295 41.8631 12.2009 41.1167 12.5742C40.3363 12.9474 39.5559 13.3545 38.8774 13.8635C37.9273 14.576 37.7916 15.2885 38.3006 16.3743C38.7077 17.2904 39.3863 18.0029 40.2685 18.4779C41.2185 18.9529 42.1685 19.394 43.1864 19.6993C46.9186 20.7512 50.7527 20.8869 56.385 20.7172Z" fill="#161616"/>
<path d="M16.4553 16.0009C18.5238 19.3122 20.3402 22.7298 21.4469 26.4789C21.8271 27.7481 22.0434 29.0728 22.0032 30.4281C21.9347 32.074 21.4616 33.5617 20.352 34.8291C19.2842 36.0333 17.998 36.3841 16.4685 35.9743C15.4782 35.6841 14.5376 35.2085 13.7393 34.5724C12.5228 33.551 11.1853 32.7952 9.80151 32.027C7.06784 30.5494 4.65617 28.6116 2.25692 26.6274C-1.66306 23.3665 -5.32314 19.8771 -8.48036 15.9016C-9.89387 14.1319 -11.1774 12.248 -12.4904 10.3811C-13.3374 9.18541 -14.155 7.9728 -14.9139 6.72627C-16.8342 3.60371 -18.4314 0.294546 -19.4487 -3.23183C-20.2182 -5.92183 -20.2304 -8.65728 -19.4343 -11.35C-19.2062 -12.1086 -18.9318 -12.8547 -18.5477 -13.5466C-17.5874 -15.2764 -16.0595 -16.1585 -14.0814 -16.1252C-12.7894 -16.1268 -11.5798 -15.7282 -10.4074 -15.1905C-8.3408 -14.1897 -6.4832 -12.8723 -4.75102 -11.3649C-2.03853 -8.97396 0.342861 -6.27431 2.5943 -3.46045C5.51402 0.103754 8.14444 3.91333 10.7579 7.69353C12.6555 10.4374 14.5701 13.2107 16.4553 16.0009ZM13.9185 15.2715C12.8849 13.7527 10.8516 10.7737 8.7719 7.78234C6.14147 3.97276 3.4229 0.214068 0.456829 -3.36255C-1.78552 -6.02495 -4.12843 -8.5901 -6.81487 -10.8002C-8.17505 -11.9347 -9.61883 -12.9425 -11.2298 -13.697C-12.1535 -14.1432 -13.0974 -14.421 -14.1159 -14.4207C-15.3615 -14.4067 -16.3187 -13.8932 -16.9367 -12.792C-17.2666 -12.2098 -17.5162 -11.5564 -17.69 -10.9075C-18.4273 -8.24867 -18.2558 -5.64439 -17.3857 -3.05164C-16.2045 0.419301 -14.6074 3.72847 -12.5401 6.7662C-11.9215 7.70193 -11.3199 8.60828 -10.6719 9.52705C-9.59192 11.0583 -8.54133 12.6066 -7.3732 14.087C-4.42742 17.832 -1.04999 21.1711 2.55343 24.2231C5.00357 26.2954 7.49552 28.3043 10.0835 30.1403C10.3367 30.3075 10.607 30.5041 10.8805 30.5029C11.5203 30.5253 12.0516 30.767 12.5288 31.1184C13.1958 31.5952 13.8041 32.106 14.5006 32.5658C15.214 33.055 15.9568 33.5273 16.7368 33.8605C17.8289 34.3269 18.5138 34.0882 19.1996 33.1046C19.7894 32.2939 20.0672 31.35 20.0375 30.3485C19.9738 29.2883 19.8808 28.245 19.6363 27.2108C18.6811 23.4527 16.8816 20.0644 13.9185 15.2715Z" fill="#161616"/>
<path d="M49.5145 131.641C44.8661 131.471 40.2517 131.335 35.6034 131.132C30.7854 130.928 26.0692 130.114 21.353 129.096C17.6208 128.282 14.0242 127.06 10.6313 125.33C4.04898 121.937 -0.802926 116.813 -4.02622 110.163C-5.55305 107.008 -6.062 103.581 -5.99414 100.12C-5.96021 98.2879 -5.21376 96.6593 -4.19587 95.1325C-3.41549 93.9789 -2.63512 92.8253 -1.04044 92.7235C4.79543 90.4841 10.8688 88.8216 16.7725 86.7519C20.5048 85.4287 24.237 84.0715 27.9693 82.7822C31.7015 81.4928 35.4677 80.2374 39.3696 79.491C43.4072 78.7106 47.4448 78.1338 51.5502 77.7945C55.6218 77.4552 59.7272 77.1838 63.8327 77.0481C69.2954 76.8784 74.7241 77.1159 80.0849 78.4392C84.6993 79.5589 88.8048 81.6964 92.3674 84.8519C94.8442 87.0573 96.7443 89.6698 98.0336 92.6896C99.6283 96.4557 100.443 100.425 100.714 104.463C101.053 109.79 99.3229 114.438 95.93 118.51C90.7048 124.719 84.1225 128.553 76.217 130.216C72.824 130.928 69.3971 131.233 65.9703 131.471C61.5934 131.776 57.2504 131.912 52.8735 131.81C51.7538 131.81 50.6341 131.742 49.5145 131.641C49.5145 131.675 49.5145 131.675 49.5145 131.641ZM50.3627 129.774C50.3627 129.808 50.3627 129.842 50.3627 129.876C51.0413 129.876 51.7199 129.876 52.3985 129.876C58.1326 130.012 63.8666 129.774 69.5668 129.198C72.6883 128.892 75.7419 128.383 78.7277 127.433C85.1065 125.465 90.3995 121.869 94.6067 116.712C97.6265 113.013 99.0515 108.772 98.7122 104.022C98.5086 101.036 97.8979 98.1183 96.9479 95.2682C95.7264 91.5699 93.6228 88.4144 90.637 85.8697C87.4815 83.1893 83.885 81.391 79.8474 80.3732C74.4866 79.0499 69.0239 78.8124 63.5273 79.016C60.3719 79.1517 57.1825 79.3553 54.0271 79.5589C49.4466 79.8642 44.9001 80.5089 40.3874 81.2893C36.6213 81.9339 32.9569 83.1554 29.3604 84.3768C24.8478 85.9037 20.3691 87.6001 15.8225 89.0591C10.3938 90.8234 4.86329 92.4181 -0.599356 94.0467C-0.904722 94.1485 -1.1083 94.2842 -1.27795 94.5557C-1.65117 95.1325 -2.05832 95.6754 -2.43155 96.2182C-3.17799 97.3718 -3.72087 98.6272 -3.78872 99.9844C-3.89051 101.783 -3.72086 103.581 -3.34764 105.311C-2.63512 108.636 -1.04044 111.554 0.9614 114.269C4.62578 119.188 9.40984 122.615 15.0761 124.923C18.1297 126.178 21.3191 126.89 24.5085 127.637C28.4443 128.553 32.414 129.028 36.4177 129.164C41.066 129.435 45.7144 129.605 50.3627 129.774Z" fill="black"/>
</g>
</svg>
