<svg width="123" height="80" viewBox="0 0 123 80" fill="none" xmlns="http://www.w3.org/2000/svg">
<path d="M52.1922 79.7714C47.9849 79.7375 43.1669 79.2625 38.4168 78.0749C29.7987 75.9374 22.1985 72.0016 15.7519 65.8603C12.359 62.637 9.23748 59.1762 6.62491 55.2743C3.36768 50.4224 1.19619 45.1294 0.314029 39.3614C-0.364561 34.8488 0.0425931 30.438 1.67121 26.1628C3.29982 21.8538 6.45526 19.2412 10.6625 17.6805C11.7143 17.2733 12.8679 17.0698 13.9537 16.7983C19.2127 15.5429 24.37 13.9822 29.3577 11.8446C33.8703 9.91064 38.5525 8.55346 43.3366 7.53557C46.7974 6.78913 50.1904 5.94089 53.6512 5.22837C56.8405 4.58371 60.0638 4.07477 63.2532 3.49797C65.6961 3.05688 68.139 2.44615 70.6159 2.14079C74.0088 1.76757 77.2661 0.919329 80.659 0.444316C85.3752 -0.200343 90.0575 -0.234273 94.7397 0.953259C99.7952 2.24258 104.206 4.78729 108.244 8.07845C114.622 13.4393 118.524 20.2591 120.187 28.4022C121.035 32.5077 121.578 36.6471 121.815 40.8204C121.951 43.1276 122.087 45.4348 122.189 47.742C122.29 49.5742 122.155 51.3724 121.748 53.1707C121.035 56.1565 119.474 58.6673 117.201 60.737C116.353 61.4834 115.471 62.2299 114.521 62.8745C111.128 65.1478 107.735 67.3872 104.308 69.5586C98.2005 73.4266 91.4825 75.6659 84.3234 76.4803C81.134 76.8535 77.9447 77.091 74.7892 77.4981C71.3284 77.9392 67.9015 78.4821 64.4747 78.991C60.6406 79.5678 56.7387 79.9071 52.1922 79.7714Z" fill="#FFDC26"/>
<path fill-rule="evenodd" clip-rule="evenodd" d="M58.635 67.0912L58.6338 67.0912L58.6334 67.0912C55.5266 66.985 52.425 66.879 49.3082 66.7425C44.4902 66.5389 39.774 65.7246 35.0578 64.7067C31.3256 63.8924 27.7291 62.6709 24.3361 60.9405C17.7538 57.5476 12.9019 52.4243 9.67861 45.7741C8.15179 42.6186 7.64284 39.1918 7.71069 35.731C7.74462 33.8988 8.49108 32.2701 9.50896 30.7433C10.2893 29.5897 11.0697 28.4361 12.6644 28.3343C16.0835 27.0224 19.5841 25.9084 23.0843 24.7945C25.5585 24.0071 28.0325 23.2199 30.4774 22.3627C31.7208 21.9219 32.9643 21.4772 34.2078 21.0326L34.2095 21.032L34.2096 21.0319C36.6978 20.1422 39.1859 19.2525 41.6741 18.393C45.4063 17.1037 49.1725 15.8483 53.0744 15.1018C57.112 14.3215 61.1496 13.7447 65.2551 13.4054C69.3266 13.0661 73.4321 12.7946 77.5375 12.6589C83.0002 12.4893 88.4289 12.7268 93.7898 14.05C98.4042 15.1697 102.51 17.3073 106.072 20.4627C108.549 22.6681 110.449 25.2807 111.738 28.3004C113.333 32.0666 114.147 36.0363 114.419 40.0739C114.758 45.4009 113.028 50.0492 109.635 54.1207C104.41 60.3298 97.8274 64.1638 89.9218 65.8264C86.5288 66.5389 83.102 66.8443 79.6751 67.0818C75.2982 67.3871 70.9552 67.5229 66.5783 67.4211C65.4586 67.4211 64.339 67.3532 63.2193 67.2514C61.6883 67.1956 60.161 67.1434 58.635 67.0912ZM64.0675 65.3853L64.0675 65.4871L66.1033 65.4871C71.8374 65.6228 77.5715 65.3853 83.2716 64.8085C86.3931 64.5031 89.4468 63.9942 92.4326 63.0442C98.8113 61.0763 104.104 57.4797 108.312 52.3225C111.331 48.6242 112.756 44.383 112.417 39.6328C112.213 36.6471 111.603 33.7291 110.653 30.879C109.431 27.1807 107.328 24.0253 104.342 21.4806C101.186 18.8002 97.5899 17.0019 93.5522 15.984C88.1914 14.6608 82.7288 14.4232 77.2322 14.6268C74.0767 14.7625 70.8874 14.9661 67.7319 15.1697C63.1514 15.4751 58.6049 16.1197 54.0923 16.9001C50.3261 17.5448 46.6617 18.7662 43.0652 19.9877C41.2156 20.6135 39.3717 21.2678 37.5264 21.9226C34.8698 22.8653 32.2104 23.809 29.5273 24.6699C25.2541 26.0587 20.9178 27.3424 16.6012 28.6203L16.601 28.6203C15.4338 28.9659 14.2681 29.311 13.1055 29.6576C12.8001 29.7594 12.5965 29.8951 12.4269 30.1665C12.1914 30.5305 11.9423 30.881 11.6968 31.2265L11.6963 31.2272C11.553 31.4289 11.4108 31.629 11.2733 31.8291C10.5268 32.9827 9.98397 34.2381 9.91611 35.5952C9.81432 37.3935 9.98398 39.1918 10.3572 40.9222C11.0697 44.2472 12.6644 47.1652 14.6662 49.8795C18.3306 54.7993 23.1147 58.2262 28.7809 60.5334C31.6643 61.7188 34.6686 62.4201 37.6798 63.1231L38.2133 63.2477C42.1491 64.1638 46.1188 64.6389 50.1225 64.7746C54.7709 65.046 59.4192 65.2157 64.0675 65.3853ZM58.8763 56.5298C54.3298 56.5976 49.8172 56.428 45.2706 56.1226C41.8777 55.919 38.4508 55.6137 35.0579 55.2065C31.9363 54.8672 28.8488 54.1886 26.0326 52.6618C23.5218 51.3046 21.6218 49.3707 20.3664 46.792C20.095 46.2492 19.8537 45.7063 19.6124 45.1635L19.6124 45.1634L19.6116 45.1617C19.4913 44.8908 19.3709 44.62 19.2467 44.3491C18.636 42.958 18.5003 41.533 18.8396 40.0401C19.1449 38.7168 19.5521 37.4275 20.3325 36.2739C20.9771 35.3578 21.8254 34.8149 22.945 34.6792C23.2165 34.6453 23.5218 34.5435 23.7933 34.4078C28.2041 32.1006 32.7167 30.0987 37.4329 28.4362C38.2545 28.1433 39.0722 27.8446 39.8893 27.5461L39.8898 27.546C42.4805 26.5996 45.065 25.6555 47.7475 24.9075C56.2977 22.5664 64.9836 21.6164 73.8392 21.786C77.7411 21.8539 81.643 22.0574 85.511 22.6342C88.1575 23.0414 90.804 23.5843 93.3147 24.6022C94.7059 25.145 96.0291 25.8575 97.2506 26.7058C98.2006 27.3844 99.0488 28.1308 99.6596 29.1148C101.424 31.9648 102.544 35.0524 102.781 38.4114C102.985 41.4651 102.001 44.0437 99.7953 46.1813C96.6398 49.2349 92.9415 51.4064 88.8361 52.8654C84.7984 54.3244 80.6251 55.1726 76.35 55.444C71.9527 55.802 67.5747 56.0443 63.1868 56.2872L63.1867 56.2872L63.186 56.2872C61.7508 56.3667 60.3146 56.4462 58.8763 56.5298ZM61.5568 54.5279C62.3976 54.4885 63.5538 54.4389 64.9013 54.3812C67.0339 54.2897 69.6456 54.1777 72.2445 54.0529C75.6036 53.8833 78.9626 53.5101 82.2537 52.7975C86.0878 51.9832 89.7861 50.7278 93.179 48.726C95.1469 47.5724 96.9113 46.2152 98.506 44.5866C99.6256 43.433 100.508 42.1098 100.644 40.4811C100.745 39.4293 100.745 38.3775 100.61 37.3257C100.372 35.2221 99.5917 33.2881 98.6756 31.388C97.997 29.963 96.9452 28.8433 95.6219 27.9612C93.9255 26.8415 92.0594 26.095 90.1254 25.5861C85.7145 24.3646 81.168 24.0254 76.5875 23.8218C71.6338 23.5843 66.6801 23.7539 61.7264 24.2629C56.0602 24.8736 50.4958 25.8915 45.101 27.6897C38.6544 29.8273 32.2417 32.1684 26.0665 35.0524C25.8205 35.1678 25.571 35.2761 25.3211 35.3846L25.3208 35.3848C24.4682 35.755 23.6118 36.1269 22.8772 36.7828C22.811 36.8443 22.7449 36.9044 22.6794 36.9639C22.2745 37.3318 21.8941 37.6775 21.6896 38.1739C21.3843 39.0222 21.1128 39.8704 20.9093 40.7186C20.6718 41.6008 20.8075 42.4491 21.1807 43.2634C21.5879 44.2134 21.995 45.1634 22.47 46.0795C23.4879 48.0474 24.9808 49.5742 26.9487 50.66C28.9505 51.7457 31.0881 52.4582 33.3274 52.7636C36.1775 53.1708 39.0276 53.5101 41.8777 53.7815C47.7814 54.3244 53.6173 54.5958 61.5568 54.5279ZM36.0418 49.8797C39.8419 50.7958 43.7098 50.9315 47.6117 50.7958C50.9707 50.5583 54.3297 50.2868 57.6548 50.0154L57.7543 50.0073C62.3021 49.6367 66.8826 49.2635 71.3963 48.5225C74.9589 47.9796 78.4875 47.2671 81.9144 46.1135C84.0859 45.367 86.1556 44.417 88.0556 43.1277C89.1074 42.3813 90.0575 41.533 90.7021 40.4133C91.72 38.7169 91.72 36.9525 90.7021 35.2561C90.295 34.5775 89.786 33.9667 89.2432 33.3899C87.3092 31.3542 84.9341 29.997 82.2198 29.3184C78.6572 28.4362 74.9928 28.1648 71.3284 28.2666C69.8694 28.3005 68.4105 28.4023 66.9515 28.538C66.578 28.5715 66.2046 28.604 65.8313 28.6365C63.9322 28.8019 62.0371 28.967 60.1656 29.2505C55.144 29.997 50.2921 31.422 45.5081 33.1864C42.5901 34.2721 39.7061 35.3918 37.0596 37.0204C35.7025 37.8347 34.3792 38.6151 32.8863 39.1579C31.9363 39.5312 31.0541 40.108 30.3077 40.8205C29.188 41.9402 28.8487 43.2295 29.3577 44.7563C29.9005 46.351 30.9523 47.5046 32.3435 48.3868C33.497 49.0993 34.7524 49.5743 36.0418 49.8797ZM58.5709 48.251C54.9405 48.5564 51.344 48.8278 49.5118 48.9636C43.8795 49.1332 40.0454 48.9975 36.3132 47.9457C35.2953 47.6403 34.3453 47.1992 33.3953 46.7242C32.5131 46.2492 31.8345 45.5367 31.4274 44.6206C30.9184 43.5348 31.0541 42.8223 32.0042 42.1098C32.6827 41.6009 33.4631 41.1937 34.2435 40.8205C34.6914 40.5966 35.1392 40.4093 35.5871 40.222C35.8857 40.0971 36.1843 39.9723 36.4828 39.8365C37.0257 39.599 37.5007 39.2597 37.84 38.7169C37.9645 38.4991 38.2316 38.3668 38.4844 38.2417C38.5073 38.2304 38.53 38.2192 38.5525 38.2079C41.4365 36.8847 44.4223 35.7311 47.4421 34.6453C51.8868 33.0506 56.4673 31.7953 61.1835 31.1167C62.6764 30.8995 64.1693 30.7692 65.6622 30.6389C66.0354 30.6064 66.4086 30.5738 66.7819 30.5399C67.9015 30.4381 68.9873 30.3702 70.1069 30.3024C73.7713 30.0309 77.4357 30.3024 81.0322 31.0149C83.7127 31.5577 86.0538 32.7114 87.9878 34.6793C88.4628 35.1543 88.9039 35.6971 89.2432 36.2739C89.8878 37.3597 89.8539 38.4454 89.2432 39.5312C88.7342 40.4133 88.0217 41.0919 87.1735 41.6687C85.7145 42.6866 84.1198 43.4331 82.4573 44.0438C79.2 45.2653 75.8071 46.0117 72.3802 46.6224C67.7997 47.4028 63.1853 47.8778 58.5709 48.251Z" fill="black"/>
</svg>
