<svg width="96" height="97" viewBox="0 0 96 97" fill="none" xmlns="http://www.w3.org/2000/svg">
<path d="M95.3753 46.3716C94.9576 71.292 76.9286 92.2446 52.6347 95.7947C27.7143 99.4144 4.67336 82.2904 0.635974 57.4396C-2.49648 38.3664 6.20478 19.0148 20.9621 8.92136C29.5938 2.86528 39.2696 -0.127951 49.8503 0.15049C51.0337 0.2201 52.1474 -0.0583405 53.3308 0.0112695C54.7926 0.0808796 56.324 0.0808796 57.7858 0.35932C76.3021 3.97904 90.6418 18.3187 94.1223 36.9046C94.7488 40.0371 94.9576 43.2391 95.3753 46.3716Z" fill="#FF90E7"/>
<mask id="mask0_54_8" style="mask-type:alpha" maskUnits="userSpaceOnUse" x="0" y="0" width="96" height="97">
<path d="M95.3753 46.3716C94.9576 71.292 76.9286 92.2446 52.6347 95.7947C27.7143 99.4144 4.67336 82.2904 0.635974 57.4396C-2.49648 38.3664 6.20478 19.0148 20.9621 8.92136C29.5938 2.86528 39.2696 -0.127951 49.8503 0.15049C51.0337 0.2201 52.1474 -0.0583405 53.3308 0.0112695C54.7926 0.0808796 56.324 0.0808796 57.7858 0.35932C76.3021 3.97904 90.6418 18.3187 94.1223 36.9046C94.7488 40.0371 94.9576 43.2391 95.3753 46.3716Z" fill="#FF90E7"/>
</mask>
<g mask="url(#mask0_54_8)">
<path d="M-7.5 71.5C-2.5 67.8334 10.3 62.7 21.5 71.5C35.5 82.5 38 101.5 66.5 100.5" stroke="black" stroke-width="2"/>
<path d="M0 24C6.83333 30 22.7 38.4 31.5 24C42.5 6 29.5 -3.5 52.5 -7" stroke="black" stroke-width="2"/>
<path d="M83.9509 15C77.9509 21.8333 69.5509 37.7 83.9509 46.5C101.951 57.5 111.451 44.5 114.951 67.5" stroke="black" stroke-width="2"/>
<path d="M90.7453 69.6222C81.6708 70.2114 64.5117 75.4912 68.4715 91.896C73.4212 112.402 89.3311 109.927 75.5425 128.666" stroke="black" stroke-width="2"/>
</g>
</svg>
